<svg width="24" height="18" viewBox="0 0 24 18" fill="none" xmlns="http://www.w3.org/2000/svg">
<mask id="path-1-inside-1_324_313" fill="white">
<path d="M8.226 16.857H1.353L3.143 12.632H7.955L13.308 0.209961H7.564L3.338 10.03H5.925C6.105 10.33 6.436 10.54 6.812 10.54C7.08696 10.5394 7.35052 10.43 7.54504 10.2357C7.73956 10.0414 7.84921 9.77792 7.85 9.50296C7.85 8.93096 7.383 8.47996 6.812 8.47996C6.391 8.47996 6.045 8.71996 5.88 9.08196H4.647L8.15 1.14196H11.91L7.383 11.684L2.617 11.714L0 17.79H8.842L10 15.263H13.835L15.113 17.789H24L15.985 0.210961L8.226 16.857ZM10.496 14.271L11.88 11.248L13.383 14.271H10.496ZM15.714 16.962L14.842 15.203H17.579C17.759 15.533 18.105 15.759 18.496 15.759C18.771 15.7584 19.0345 15.649 19.229 15.4547C19.4236 15.2604 19.5332 14.9969 19.534 14.722C19.5335 14.4468 19.4239 14.1831 19.2294 13.9886C19.0348 13.794 18.7711 13.6845 18.496 13.684C18.076 13.684 17.714 13.94 17.549 14.301H14.42L12.33 10.241L13.864 6.87196L15.593 10.391H16.405C16.57 10.737 16.931 10.992 17.337 10.992C17.612 10.9914 17.8755 10.882 18.07 10.6877C18.2646 10.4934 18.3742 10.2299 18.375 9.95496C18.3745 9.67983 18.2649 9.41612 18.0704 9.22157C17.8758 9.02702 17.6121 8.91749 17.337 8.91696C17.1285 8.91696 16.9249 8.98025 16.7531 9.09846C16.5813 9.21666 16.4495 9.38421 16.375 9.57896H16.075L14.285 5.93896L15.984 2.21096L22.661 16.962H15.714Z"/>
</mask>
<path d="M8.226 16.857H1.353L3.143 12.632H7.955L13.308 0.209961H7.564L3.338 10.03H5.925C6.105 10.33 6.436 10.54 6.812 10.54C7.08696 10.5394 7.35052 10.43 7.54504 10.2357C7.73956 10.0414 7.84921 9.77792 7.85 9.50296C7.85 8.93096 7.383 8.47996 6.812 8.47996C6.391 8.47996 6.045 8.71996 5.88 9.08196H4.647L8.15 1.14196H11.91L7.383 11.684L2.617 11.714L0 17.79H8.842L10 15.263H13.835L15.113 17.789H24L15.985 0.210961L8.226 16.857ZM10.496 14.271L11.88 11.248L13.383 14.271H10.496ZM15.714 16.962L14.842 15.203H17.579C17.759 15.533 18.105 15.759 18.496 15.759C18.771 15.7584 19.0345 15.649 19.229 15.4547C19.4236 15.2604 19.5332 14.9969 19.534 14.722C19.5335 14.4468 19.4239 14.1831 19.2294 13.9886C19.0348 13.794 18.7711 13.6845 18.496 13.684C18.076 13.684 17.714 13.94 17.549 14.301H14.42L12.33 10.241L13.864 6.87196L15.593 10.391H16.405C16.57 10.737 16.931 10.992 17.337 10.992C17.612 10.9914 17.8755 10.882 18.07 10.6877C18.2646 10.4934 18.3742 10.2299 18.375 9.95496C18.3745 9.67983 18.2649 9.41612 18.0704 9.22157C17.8758 9.02702 17.6121 8.91749 17.337 8.91696C17.1285 8.91696 16.9249 8.98025 16.7531 9.09846C16.5813 9.21666 16.4495 9.38421 16.375 9.57896H16.075L14.285 5.93896L15.984 2.21096L22.661 16.962H15.714Z" fill="url(#paint0_linear_324_313)"/>
<path d="M8.226 16.857V20.857H10.7747L11.8515 18.5469L8.226 16.857ZM1.353 16.857L-2.33009 15.2966L-4.68586 20.857H1.353V16.857ZM3.143 12.632V8.63196H0.493492L-0.540087 11.0716L3.143 12.632ZM7.955 12.632V16.632H10.5869L11.6284 14.215L7.955 12.632ZM13.308 0.209961L16.9814 1.79295L19.3873 -3.79004H13.308V0.209961ZM7.564 0.209961V-3.79004H4.93071L3.88979 -1.37122L7.564 0.209961ZM3.338 10.03L-0.336215 8.44878L-2.73806 14.03H3.338V10.03ZM5.925 10.03L9.35497 7.97198L8.18976 6.02996H5.925V10.03ZM6.812 10.54V14.54L6.81968 14.54L6.812 10.54ZM7.85 9.50296L11.85 9.51449V9.50296H7.85ZM5.88 9.08196V13.082H8.45271L9.51974 10.741L5.88 9.08196ZM4.647 9.08196L0.987339 7.46738L-1.48973 13.082H4.647V9.08196ZM8.15 1.14196V-2.85804H5.54275L4.49034 -0.472622L8.15 1.14196ZM11.91 1.14196L15.5854 2.72029L17.9809 -2.85804H11.91V1.14196ZM7.383 11.684L7.40818 15.6839L10.0256 15.6674L11.0584 13.2623L7.383 11.684ZM2.617 11.714L2.59182 7.71404L-0.0225269 7.7305L-1.05673 10.1316L2.617 11.714ZM0 17.79L-3.67373 16.2076L-6.07809 21.79H0V17.79ZM8.842 17.79V21.79H11.409L12.4784 19.4563L8.842 17.79ZM10 15.263V11.263H7.43301L6.36363 13.5966L10 15.263ZM13.835 15.263L17.4042 13.4572L16.2941 11.263H13.835V15.263ZM15.113 17.789L11.5438 19.5948L12.6539 21.789H15.113V17.789ZM24 17.789V21.789H30.2201L27.6395 16.1295L24 17.789ZM15.985 0.210961L19.6245 -1.44854L16.025 -9.3428L12.3595 -1.47895L15.985 0.210961ZM10.496 14.271L6.85904 12.6059L4.26543 18.271H10.496V14.271ZM11.88 11.248L15.4617 9.46717L11.7312 1.96389L8.24304 9.58288L11.88 11.248ZM13.383 14.271V18.271H19.8389L16.9647 12.4902L13.383 14.271ZM15.714 16.962L12.1302 18.7386L13.2324 20.962H15.714V16.962ZM14.842 15.203V11.203H8.39452L11.2582 16.9796L14.842 15.203ZM17.579 15.203L21.0906 13.2876L19.9535 11.203H17.579V15.203ZM18.496 15.759V19.759L18.5037 19.759L18.496 15.759ZM19.534 14.722L23.534 14.7335L23.534 14.7239L23.534 14.7143L19.534 14.722ZM18.496 13.684L18.5037 9.68396H18.496V13.684ZM17.549 14.301V18.301H20.1188L21.187 15.9638L17.549 14.301ZM14.42 14.301L10.8636 16.1317L11.9802 18.301H14.42V14.301ZM12.33 10.241L8.68961 8.58339L7.88617 10.3479L8.77356 12.0717L12.33 10.241ZM13.864 6.87196L17.4541 5.10804L13.7265 -2.47866L10.2236 5.21439L13.864 6.87196ZM15.593 10.391L12.0029 12.1549L13.1016 14.391H15.593V10.391ZM16.405 10.391L20.0155 8.6692L18.929 6.39096H16.405V10.391ZM17.337 10.992V14.992L17.3447 14.992L17.337 10.992ZM18.375 9.95496L22.375 9.96649L22.375 9.95688L22.375 9.94728L18.375 9.95496ZM17.337 8.91696L17.3447 4.91696H17.3369L17.337 8.91696ZM16.375 9.57896V13.579H19.1276L20.111 11.0081L16.375 9.57896ZM16.075 9.57896L12.4855 11.3441L13.5845 13.579H16.075V9.57896ZM14.285 5.93896L10.6452 4.28015L9.85952 6.00405L10.6955 7.70411L14.285 5.93896ZM15.984 2.21096L19.6281 0.561484L15.9964 -7.46169L12.3442 0.552145L15.984 2.21096ZM22.661 16.962V20.962H28.8623L26.3051 15.3125L22.661 16.962ZM8.226 12.857H1.353V20.857H8.226V12.857ZM5.03609 18.4174L6.82609 14.1924L-0.540087 11.0716L-2.33009 15.2966L5.03609 18.4174ZM3.143 16.632H7.955V8.63196H3.143V16.632ZM11.6284 14.215L16.9814 1.79295L9.63456 -1.37303L4.28156 11.049L11.6284 14.215ZM13.308 -3.79004H7.564V4.20996H13.308V-3.79004ZM3.88979 -1.37122L-0.336215 8.44878L7.01222 11.6111L11.2382 1.79115L3.88979 -1.37122ZM3.338 14.03H5.925V6.02996H3.338V14.03ZM2.49503 12.0879C3.33803 13.4929 4.91832 14.54 6.812 14.54V6.53996C7.95368 6.53996 8.87197 7.16698 9.35497 7.97198L2.49503 12.0879ZM6.81968 14.54C8.15217 14.5374 9.42943 14.0073 10.3721 13.0655L4.71798 7.40592C5.27161 6.85282 6.02175 6.54147 6.80432 6.53997L6.81968 14.54ZM10.3721 13.0655C11.3148 12.1237 11.8461 10.847 11.85 9.51449L3.85002 9.49143C3.85227 8.70886 4.16434 7.95902 4.71798 7.40592L10.3721 13.0655ZM11.85 9.50296C11.85 6.64375 9.51325 4.47996 6.812 4.47996V12.48C5.25275 12.48 3.85 11.2182 3.85 9.50296H11.85ZM6.812 4.47996C4.75476 4.47996 3.02602 5.69906 2.24026 7.42296L9.51974 10.741C9.06398 11.7409 8.02724 12.48 6.812 12.48V4.47996ZM5.88 5.08196H4.647V13.082H5.88V5.08196ZM8.30666 10.6965L11.8097 2.75654L4.49034 -0.472622L0.987339 7.46738L8.30666 10.6965ZM8.15 5.14196H11.91V-2.85804H8.15V5.14196ZM8.23456 -0.436367L3.70756 10.1056L11.0584 13.2623L15.5854 2.72029L8.23456 -0.436367ZM7.35782 7.68404L2.59182 7.71404L2.64218 15.7139L7.40818 15.6839L7.35782 7.68404ZM-1.05673 10.1316L-3.67373 16.2076L3.67373 19.3723L6.29073 13.2963L-1.05673 10.1316ZM0 21.79H8.842V13.79H0V21.79ZM12.4784 19.4563L13.6364 16.9293L6.36363 13.5966L5.20563 16.1236L12.4784 19.4563ZM10 19.263H13.835V11.263H10V19.263ZM10.2658 17.0688L11.5438 19.5948L18.6822 15.9832L17.4042 13.4572L10.2658 17.0688ZM15.113 21.789H24V13.789H15.113V21.789ZM27.6395 16.1295L19.6245 -1.44854L12.3455 1.87046L20.3605 19.4485L27.6395 16.1295ZM12.3595 -1.47895L4.60051 15.1671L11.8515 18.5469L19.6105 1.90087L12.3595 -1.47895ZM14.133 15.936L15.517 12.913L8.24304 9.58288L6.85904 12.6059L14.133 15.936ZM8.29827 13.0288L9.80127 16.0518L16.9647 12.4902L15.4617 9.46717L8.29827 13.0288ZM13.383 10.271H10.496V18.271H13.383V10.271ZM19.2978 15.1853L18.4258 13.4263L11.2582 16.9796L12.1302 18.7386L19.2978 15.1853ZM14.842 19.203H17.579V11.203H14.842V19.203ZM14.0674 17.1184C14.892 18.6302 16.5273 19.759 18.496 19.759V11.759C19.6827 11.759 20.626 12.4357 21.0906 13.2876L14.0674 17.1184ZM18.5037 19.759C19.8362 19.7564 21.1134 19.2263 22.0561 18.2845L16.402 12.6249C16.9556 12.0718 17.7057 11.7605 18.4883 11.759L18.5037 19.759ZM22.0561 18.2845C22.9988 17.3427 23.5301 16.066 23.534 14.7335L15.534 14.7104C15.5363 13.9278 15.8483 13.178 16.402 12.6249L22.0561 18.2845ZM23.534 14.7143C23.5314 13.3809 23.0006 12.1029 22.0578 11.1601L16.401 16.817C15.8473 16.2633 15.5355 15.5127 15.534 14.7296L23.534 14.7143ZM22.0578 11.1601C21.115 10.2173 19.837 9.68653 18.5037 9.68397L18.4883 17.684C17.7052 17.6824 16.9547 17.3707 16.401 16.817L22.0578 11.1601ZM18.496 9.68396C16.4033 9.68396 14.681 10.9534 13.911 12.6382L21.187 15.9638C20.747 16.9265 19.7487 17.684 18.496 17.684V9.68396ZM17.549 10.301H14.42V18.301H17.549V10.301ZM17.9764 12.4702L15.8864 8.41018L8.77356 12.0717L10.8636 16.1317L17.9764 12.4702ZM15.9704 11.8985L17.5044 8.52953L10.2236 5.21439L8.68961 8.58339L15.9704 11.8985ZM10.2739 8.63588L12.0029 12.1549L19.1831 8.62704L17.4541 5.10804L10.2739 8.63588ZM15.593 14.391H16.405V6.39096H15.593V14.391ZM12.7945 12.1127C13.5629 13.7239 15.2534 14.992 17.337 14.992V6.99196C18.6086 6.99196 19.5771 7.75001 20.0155 8.6692L12.7945 12.1127ZM17.3447 14.992C18.6772 14.9894 19.9544 14.4593 20.8971 13.5175L15.243 7.85792C15.7966 7.30481 16.5468 6.99347 17.3293 6.99197L17.3447 14.992ZM20.8971 13.5175C21.8398 12.5757 22.3711 11.299 22.375 9.96649L14.375 9.94343C14.3773 9.16086 14.6893 8.41102 15.243 7.85792L20.8971 13.5175ZM22.375 9.94728C22.3724 8.61394 21.8416 7.33595 20.8988 6.39314L15.242 12.05C14.6883 11.4963 14.3765 10.7457 14.375 9.96265L22.375 9.94728ZM20.8988 6.39314C19.956 5.45033 18.678 4.91953 17.3447 4.91697L17.3293 12.917C16.5462 12.9154 15.7957 12.6037 15.242 12.05L20.8988 6.39314ZM17.3369 4.91696C16.3187 4.91698 15.3244 5.22605 14.4855 5.80329L19.0207 12.3936C18.5254 12.7345 17.9383 12.917 17.3371 12.917L17.3369 4.91696ZM14.4855 5.80329C13.6467 6.38053 13.0028 7.19877 12.639 8.14984L20.111 11.0081C19.8962 11.5697 19.516 12.0528 19.0207 12.3936L14.4855 5.80329ZM16.375 5.57896H16.075V13.579H16.375V5.57896ZM19.6645 7.81381L17.8745 4.17381L10.6955 7.70411L12.4855 11.3441L19.6645 7.81381ZM17.9248 7.59778L19.6238 3.86978L12.3442 0.552145L10.6452 4.28015L17.9248 7.59778ZM12.3399 3.86044L19.0169 18.6114L26.3051 15.3125L19.6281 0.561484L12.3399 3.86044ZM22.661 12.962H15.714V20.962H22.661V12.962Z" fill="url(#paint1_linear_324_313)" mask="url(#path-1-inside-1_324_313)"/>
<defs>
<linearGradient id="paint0_linear_324_313" x1="0" y1="8.99996" x2="24" y2="8.99996" gradientUnits="userSpaceOnUse">
<stop stop-color="#21D4FD"/>
<stop offset="1" stop-color="#B721FF"/>
</linearGradient>
<linearGradient id="paint1_linear_324_313" x1="0" y1="8.99996" x2="24" y2="8.99996" gradientUnits="userSpaceOnUse">
<stop stop-color="#21D4FD"/>
<stop offset="1" stop-color="#B721FF"/>
</linearGradient>
</defs>
</svg>
