<svg width="19" height="21" viewBox="0 0 19 21" fill="none" xmlns="http://www.w3.org/2000/svg">
<path d="M5.28349 6.33325H12.5606L12.3762 8.41658H7.40745C7.13118 8.41658 6.86623 8.52633 6.67088 8.72168C6.47553 8.91703 6.36578 9.18198 6.36578 9.45825C6.36578 9.73452 6.47553 9.99947 6.67088 10.1948C6.86623 10.3902 7.13118 10.4999 7.40745 10.4999H12.1918L11.9168 13.601L9.49078 14.151L7.06578 13.5999L6.96578 12.4916C6.95527 12.3541 6.91758 12.2201 6.85488 12.0973C6.79218 11.9745 6.70573 11.8654 6.60054 11.7763C6.49535 11.6871 6.37352 11.6198 6.24209 11.5781C6.11067 11.5364 5.97229 11.5212 5.83495 11.5334C5.69762 11.5456 5.56408 11.585 5.44207 11.6492C5.32005 11.7134 5.212 11.8012 5.12417 11.9074C5.03635 12.0137 4.97049 12.1364 4.93043 12.2683C4.89037 12.4002 4.87689 12.5388 4.89078 12.676L5.05745 14.5405C5.07706 14.7601 5.16576 14.9678 5.31081 15.1338C5.45586 15.2998 5.64979 15.4156 5.86474 15.4645L9.26058 16.2353C9.41253 16.2692 9.57008 16.2692 9.72203 16.2353L13.1179 15.4645C13.333 15.4155 13.527 15.2996 13.6721 15.1334C13.8171 14.9672 13.9058 14.7593 13.9252 14.5395L14.3752 9.46867L14.3772 9.45825L14.3762 9.45409L14.7366 5.38325C14.7492 5.23934 14.7317 5.09438 14.6853 4.95758C14.6388 4.82078 14.5645 4.69511 14.467 4.58855C14.3694 4.482 14.2508 4.39687 14.1186 4.33858C13.9864 4.28029 13.8436 4.25009 13.6991 4.24992H5.28349C5.00722 4.24992 4.74227 4.35967 4.54692 4.55502C4.35157 4.75037 4.24183 5.01532 4.24183 5.29158C4.24183 5.56785 4.35157 5.8328 4.54692 6.02815C4.74227 6.22351 5.00722 6.33325 5.28349 6.33325ZM18.5147 0.422835C18.4171 0.316044 18.2984 0.230711 18.1661 0.172252C18.0337 0.113793 17.8907 0.0834851 17.746 0.083252H1.23558C1.09087 0.0832435 0.947756 0.113383 0.815348 0.17175C0.682939 0.230118 0.564144 0.315431 0.466534 0.422254C0.368924 0.529076 0.29464 0.655063 0.248419 0.792185C0.202197 0.929306 0.185052 1.07455 0.198075 1.21867L1.70224 18.0874C1.72095 18.2982 1.80346 18.4982 1.93876 18.6609C2.07406 18.8235 2.25572 18.9411 2.45953 18.9978L9.20224 20.878C9.38514 20.9296 9.57872 20.9296 9.76162 20.878L16.522 18.9905C16.726 18.9339 16.9079 18.8165 17.0434 18.6538C17.1789 18.4911 17.2616 18.291 17.2804 18.0801L18.7835 1.21763C18.7961 1.07376 18.7788 0.928846 18.7325 0.792039C18.6862 0.655232 18.6121 0.529514 18.5147 0.422835ZM15.2689 17.177L9.48141 18.7926L3.71266 17.1833L2.37516 2.16659H16.6085L15.2689 17.177Z" fill="url(#paint0_linear_324_300)"/>
<defs>
<linearGradient id="paint0_linear_324_300" x1="0.193848" y1="10.5" x2="18.7875" y2="10.5" gradientUnits="userSpaceOnUse">
<stop stop-color="#21D4FD"/>
<stop offset="1" stop-color="#B721FF"/>
</linearGradient>
</defs>
</svg>
