<svg width="25" height="22" viewBox="0 0 25 22" fill="none" xmlns="http://www.w3.org/2000/svg">
<path d="M11.082 21.2306H6.9278C5.1972 21.2325 3.52868 20.5859 2.25129 19.4184C0.973906 18.2508 0.180371 16.6469 0.0271791 14.9231C-0.126012 13.1993 0.37226 11.4807 1.42373 10.1061C2.47521 8.73155 4.00356 7.80088 5.70738 7.4976C6.13892 5.24108 7.39636 3.22654 9.23397 1.84766C11.0716 0.468769 13.3573 -0.175377 15.6445 0.0410889C17.9317 0.257555 20.056 1.31908 21.6023 3.01822C23.1486 4.71737 24.0058 6.93204 24.0063 9.22946H22.16C22.1588 7.34142 21.4345 5.52554 20.1359 4.15502C18.8373 2.7845 17.063 1.96346 15.1778 1.86062C13.2926 1.75779 11.4395 2.38099 9.99957 3.60213C8.5596 4.82327 7.64207 6.54959 7.43554 8.42631L7.35246 9.19623L6.57977 9.24792C5.26488 9.33489 4.0354 9.93002 3.15151 10.9074C2.26762 11.8848 1.79867 13.1677 1.84389 14.4847C1.88911 15.8017 2.44495 17.0494 3.39379 17.9638C4.34264 18.8783 5.61004 19.3877 6.9278 19.3843H11.082V21.2306Z" fill="url(#paint0_linear_324_320)"/>
<defs>
<linearGradient id="paint0_linear_324_320" x1="0" y1="10.6153" x2="24.0063" y2="10.6153" gradientUnits="userSpaceOnUse">
<stop stop-color="#21D4FD"/>
<stop offset="1" stop-color="#B721FF"/>
</linearGradient>
</defs>
</svg>
