<svg width="447" height="428" viewBox="0 0 447 428" fill="none" xmlns="http://www.w3.org/2000/svg">
<g clip-path="url(#clip0_324_375)">
<path d="M10.5486 0C7.75191 0.00313825 5.07064 1.11439 3.09307 3.08995C1.1155 5.06551 0.00314144 7.74404 0 10.5379V362.685C0.00314144 365.479 1.1155 368.158 3.09307 370.133C5.07064 372.109 7.75191 373.22 10.5486 373.223H279.282C282.079 373.22 284.76 372.109 286.738 370.133C288.715 368.158 289.828 365.479 289.831 362.685V10.5379C289.828 7.74404 288.715 5.06552 286.738 3.08996C284.76 1.11441 282.079 0.00315262 279.282 0H10.5486Z" fill="url(#paint0_linear_324_375)" fill-opacity="0.4"/>
<path d="M271.213 141.653H18.6183C15.6412 141.65 12.787 140.467 10.6818 138.364C8.57667 136.261 7.39252 133.409 7.38916 130.435V58.5234C7.39252 55.5493 8.57667 52.698 10.6818 50.595C12.787 48.492 15.6412 47.309 18.6183 47.3057H271.213C274.19 47.309 277.044 48.4919 279.149 50.5949C281.254 52.6979 282.439 55.5493 282.442 58.5234V130.435C282.439 133.409 281.254 136.261 279.149 138.364C277.044 140.467 274.19 141.65 271.213 141.653Z" fill="white"/>
<path d="M271.213 251.444H18.6183C15.6412 251.441 12.787 250.258 10.6818 248.155C8.57669 246.052 7.39252 243.2 7.38916 240.226V168.314C7.39252 165.34 8.57667 162.489 10.6818 160.386C12.787 158.282 15.6412 157.1 18.6183 157.096H271.213C274.19 157.099 277.044 158.282 279.149 160.385C281.254 162.488 282.439 165.34 282.442 168.314V240.226C282.439 243.2 281.254 246.052 279.149 248.155C277.044 250.258 274.19 251.441 271.213 251.444Z" fill="white"/>
<path d="M18.6184 267.567C15.8217 267.571 13.1405 268.682 11.1629 270.657C9.18533 272.633 8.07295 275.311 8.06982 278.105V350.017C8.07295 352.811 9.18533 355.489 11.1629 357.465C13.1405 359.44 15.8217 360.552 18.6184 360.555H271.213C274.009 360.552 276.691 359.44 278.668 357.465C280.646 355.489 281.758 352.811 281.761 350.017V278.105C281.758 275.311 280.646 272.633 278.668 270.657C276.691 268.682 274.009 267.571 271.213 267.567H18.6184Z" fill="white"/>
<path d="M274.8 21.9252C279.045 21.9252 282.486 18.4878 282.486 14.2475C282.486 10.0072 279.045 6.56982 274.8 6.56982C270.556 6.56982 267.115 10.0072 267.115 14.2475C267.115 18.4878 270.556 21.9252 274.8 21.9252Z" fill="white"/>
<path d="M32.8993 211.948C37.1439 211.948 40.5848 208.51 40.5848 204.27C40.5848 200.03 37.1439 196.593 32.8993 196.593C28.6548 196.593 25.2139 200.03 25.2139 204.27C25.2139 208.51 28.6548 211.948 32.8993 211.948Z" fill="url(#paint1_linear_324_375)" fill-opacity="0.4"/>
<path d="M121.282 210.752H61.3357C59.6148 210.752 57.9644 210.069 56.7476 208.853C55.5308 207.638 54.8472 205.989 54.8472 204.27C54.8472 202.551 55.5308 200.902 56.7476 199.687C57.9644 198.471 59.6148 197.788 61.3357 197.788H121.282C123.003 197.788 124.654 198.471 125.871 199.687C127.087 200.902 127.771 202.551 127.771 204.27C127.771 205.989 127.087 207.638 125.871 208.853C124.654 210.069 123.003 210.752 121.282 210.752Z" fill="#F2F2F2"/>
<path d="M169.509 212.332C173.753 212.332 177.194 208.894 177.194 204.654C177.194 200.414 173.753 196.976 169.509 196.976C165.264 196.976 161.823 200.414 161.823 204.654C161.823 208.894 165.264 212.332 169.509 212.332Z" fill="url(#paint2_linear_324_375)" fill-opacity="0.4"/>
<path d="M257.892 211.136H197.945C196.224 211.136 194.574 210.453 193.357 209.238C192.14 208.022 191.457 206.373 191.457 204.654C191.457 202.935 192.14 201.286 193.357 200.07C194.574 198.855 196.224 198.172 197.945 198.172H257.892C259.613 198.172 261.263 198.855 262.48 200.07C263.697 201.286 264.381 202.935 264.381 204.654C264.381 206.373 263.697 208.022 262.48 209.238C261.263 210.453 259.613 211.136 257.892 211.136Z" fill="#F2F2F2"/>
<path d="M278.802 11.3355L277.715 10.2498L274.8 13.1623L271.885 10.2498L270.798 11.3355L273.713 14.248L270.798 17.1599L271.885 18.2456L274.8 15.3331L277.715 18.2456L278.802 17.1599L275.887 14.248L278.802 11.3355Z" fill="url(#paint3_linear_324_375)" fill-opacity="0.4"/>
<path d="M32.8994 102.157C37.1439 102.157 40.5848 98.7197 40.5848 94.4794C40.5848 90.2392 37.1439 86.8018 32.8994 86.8018C28.6548 86.8018 25.2139 90.2392 25.2139 94.4794C25.2139 98.7197 28.6548 102.157 32.8994 102.157Z" fill="url(#paint4_linear_324_375)" fill-opacity="0.4"/>
<path d="M258.117 100H63.8832C62.057 99.9982 60.3062 99.3126 59.0156 98.0938C57.7249 96.875 57 95.2228 57 93.5C57 91.7772 57.7249 90.125 59.0156 88.9062C60.3062 87.6874 62.057 87.0018 63.8832 87H258.117C259.943 87.0018 261.694 87.6874 262.984 88.9062C264.275 90.125 265 91.7772 265 93.5C265 95.2228 264.275 96.875 262.984 98.0938C261.694 99.3126 259.943 99.9982 258.117 100Z" fill="#F2F2F2"/>
<path d="M226.993 100H76.0127C74.4181 100 72.8887 99.3152 71.7611 98.0962C70.6335 96.8772 70 95.2239 70 93.5C70 91.7761 70.6335 90.1228 71.7611 88.9038C72.8887 87.6848 74.4181 87 76.0127 87H226.993C228.587 87.0018 230.115 87.6874 231.241 88.9062C232.367 90.125 233 91.7772 233 93.5C233 95.2228 232.367 96.875 231.241 98.0938C230.115 99.3126 228.587 99.9982 226.993 100Z" fill="url(#paint5_linear_324_375)" fill-opacity="0.4"/>
<path d="M32.8993 321.739C37.1439 321.739 40.5848 318.301 40.5848 314.061C40.5848 309.821 37.1439 306.383 32.8993 306.383C28.6548 306.383 25.2139 309.821 25.2139 314.061C25.2139 318.301 28.6548 321.739 32.8993 321.739Z" fill="url(#paint6_linear_324_375)" fill-opacity="0.4"/>
<path d="M258.11 320H63.8896C62.0624 320 60.31 319.315 59.0179 318.096C57.7259 316.877 57 315.224 57 313.5C57 311.776 57.7259 310.123 59.0179 308.904C60.31 307.685 62.0624 307 63.8896 307H258.11C259.938 307 261.69 307.685 262.982 308.904C264.274 310.123 265 311.776 265 313.5C265 315.224 264.274 316.877 262.982 318.096C261.69 319.315 259.938 320 258.11 320Z" fill="#F2F2F2"/>
<path d="M162.181 320H74.819C73.2757 320 71.7956 319.315 70.7043 318.096C69.6131 316.877 69 315.224 69 313.5C69 311.776 69.6131 310.123 70.7043 308.904C71.7956 307.685 73.2757 307 74.819 307H162.181C163.724 307 165.204 307.685 166.296 308.904C167.387 310.123 168 311.776 168 313.5C168 315.224 167.387 316.877 166.296 318.096C165.204 319.315 163.724 320 162.181 320Z" fill="url(#paint7_linear_324_375)" fill-opacity="0.4"/>
<path d="M71.9033 210.752H61.3357C59.6148 210.752 57.9645 210.069 56.7476 208.853C55.5308 207.638 54.8472 205.989 54.8472 204.27C54.8472 202.551 55.5308 200.902 56.7476 199.687C57.9645 198.471 59.6148 197.788 61.3357 197.788H71.9033C73.6241 197.788 75.2745 198.471 76.4914 199.687C77.7082 200.902 78.3918 202.551 78.3918 204.27C78.3918 205.989 77.7082 207.638 76.4914 208.853C75.2745 210.069 73.6241 210.752 71.9033 210.752Z" fill="url(#paint8_linear_324_375)" fill-opacity="0.4"/>
<path d="M230.993 211.136H197.945C196.224 211.136 194.574 210.453 193.357 209.238C192.14 208.022 191.457 206.373 191.457 204.654C191.457 202.935 192.14 201.286 193.357 200.07C194.574 198.855 196.224 198.172 197.945 198.172H230.993C232.713 198.174 234.361 198.857 235.577 200.073C236.792 201.288 237.475 202.936 237.475 204.654C237.475 206.372 236.792 208.02 235.577 209.235C234.361 210.451 232.713 211.134 230.993 211.136Z" fill="url(#paint9_linear_324_375)" fill-opacity="0.4"/>
<path d="M393.211 288.818C394.206 288.718 395.167 288.401 396.027 287.89C396.887 287.378 397.624 286.685 398.186 285.858C398.748 285.032 399.122 284.092 399.282 283.105C399.441 282.119 399.382 281.109 399.109 280.148L419.032 266.214L407.282 261.566L390.164 275.51C388.578 276.076 387.254 277.203 386.444 278.679C385.635 280.155 385.395 281.875 385.77 283.516C386.146 285.156 387.111 286.602 388.482 287.579C389.853 288.556 391.536 288.997 393.211 288.818L393.211 288.818Z" fill="#EFB98D"/>
<path d="M402.497 278.643C402.069 278.642 401.645 278.552 401.254 278.377C400.811 278.184 400.42 277.888 400.115 277.513C399.81 277.139 399.599 276.696 399.5 276.224L398.162 270.018C398.048 269.486 398.077 268.934 398.248 268.417C398.418 267.9 398.723 267.438 399.132 267.078L410.947 256.685L399.284 232.275C398.473 230.577 398.334 228.636 398.894 226.841C399.455 225.045 400.674 223.527 402.308 222.592C403.941 221.656 405.868 221.372 407.703 221.796C409.537 222.22 411.144 223.32 412.2 224.877L427.136 246.885C428.246 248.506 429.011 250.337 429.386 252.264C429.76 254.192 429.734 256.176 429.311 258.094C428.843 260.12 427.957 262.028 426.711 263.694C425.465 265.36 423.885 266.75 422.072 267.773L404.03 278.227C403.565 278.498 403.036 278.642 402.497 278.643Z" fill="url(#paint10_linear_324_375)"/>
<path d="M336.303 265.375C337.135 265.93 338.079 266.296 339.068 266.447C340.057 266.599 341.067 266.531 342.027 266.25C342.987 265.969 343.874 265.481 344.625 264.821C345.376 264.161 345.973 263.344 346.374 262.428L370.619 264.325L364.507 253.275L342.42 253.168C340.835 252.597 339.096 252.627 337.532 253.252C335.968 253.877 334.688 255.053 333.934 256.557C333.18 258.062 333.005 259.791 333.441 261.416C333.878 263.041 334.896 264.45 336.303 265.375Z" fill="#EFB98D"/>
<path d="M394.284 207.517C403.515 207.517 410.999 200.041 410.999 190.819C410.999 181.596 403.515 174.12 394.284 174.12C385.052 174.12 377.569 181.596 377.569 190.819C377.569 200.041 385.052 207.517 394.284 207.517Z" fill="#EFB98D"/>
<path d="M345.068 419.251L337.072 416.874L342.443 384.928L354.246 388.437L345.068 419.251Z" fill="#EFB98D"/>
<path d="M344.802 427.601L319.016 419.937L319.113 419.611C319.505 418.294 320.153 417.068 321.02 416.001C321.886 414.935 322.955 414.049 324.164 413.395C325.373 412.741 326.7 412.331 328.068 412.189C329.435 412.047 330.818 412.176 332.136 412.568L332.136 412.568L347.885 417.249L344.802 427.601Z" fill="#200D69"/>
<path d="M432.683 418.842L424.339 418.842L420.37 386.692L428.601 386.693L432.683 418.842Z" fill="#EFB98D"/>
<path d="M434.81 426.921L407.907 426.92V426.58C407.907 425.207 408.178 423.846 408.704 422.577C409.23 421.308 410.002 420.155 410.974 419.184C411.947 418.212 413.101 417.442 414.371 416.916C415.642 416.39 417.003 416.12 418.379 416.12H418.379L434.81 416.121L434.81 426.921Z" fill="#200D69"/>
<path d="M348.145 409.799H339.767C339.318 409.799 338.875 409.7 338.468 409.51C338.062 409.32 337.702 409.042 337.415 408.698C337.127 408.353 336.919 407.949 336.805 407.515C336.691 407.082 336.674 406.628 336.755 406.187L348.489 342.37C348.478 295.877 366.789 268.947 366.974 268.68L367.197 268.358L401.42 271.148L435.532 405.451C435.644 405.89 435.656 406.349 435.569 406.794C435.481 407.239 435.296 407.659 435.026 408.023C434.756 408.387 434.408 408.687 434.008 408.901C433.608 409.115 433.166 409.237 432.712 409.259L423.3 409.716C422.663 409.749 422.031 409.581 421.495 409.237C420.958 408.893 420.543 408.389 420.308 407.796L384.246 317.736C384.174 317.539 384.041 317.37 383.866 317.255C383.691 317.14 383.484 317.084 383.275 317.095C383.066 317.097 382.863 317.164 382.694 317.287C382.526 317.41 382.4 317.582 382.334 317.78L351.038 407.744C350.828 408.344 350.438 408.864 349.919 409.233C349.401 409.601 348.781 409.799 348.145 409.799Z" fill="#200D69"/>
<path d="M402.137 273.845L401.876 273.825L365.438 271.078L371.83 230.47C372.531 225.937 374.681 221.753 377.958 218.541C381.236 215.328 385.465 213.261 390.015 212.648C390.295 212.608 390.577 212.57 390.861 212.533C394.436 212.063 398.071 212.519 401.418 213.857C404.765 215.195 407.712 217.371 409.975 220.175C412.292 222.994 413.844 226.362 414.482 229.954C415.12 233.546 414.823 237.241 413.619 240.685L402.137 273.845Z" fill="url(#paint11_linear_324_375)"/>
<path d="M383.602 264.113C382.123 265.3 380.424 266.183 378.603 266.712C376.781 267.241 374.873 267.406 372.988 267.197L351.9 264.929C351.418 264.877 350.955 264.712 350.549 264.446C350.144 264.181 349.807 263.823 349.567 263.402C349.327 262.981 349.19 262.51 349.168 262.026C349.146 261.542 349.239 261.06 349.44 260.619L352.253 254.452C352.481 253.949 352.842 253.518 353.297 253.203C353.752 252.889 354.283 252.704 354.835 252.667L370.205 251.638L375.251 225.068C375.577 223.362 376.488 221.823 377.826 220.716C379.165 219.609 380.848 219.002 382.586 219C383.636 218.995 384.675 219.214 385.634 219.642C386.593 220.07 387.449 220.697 388.146 221.482C389.467 222.992 390.146 224.959 390.038 226.962L389.06 253.305C388.995 255.297 388.516 257.253 387.653 259.05C386.79 260.847 385.563 262.445 384.048 263.743C383.901 263.87 383.753 263.993 383.602 264.113Z" fill="url(#paint12_linear_324_375)"/>
<path d="M381.574 186.648C379.492 187.455 377.299 187.937 375.071 188.078C372.83 188.106 370.448 187.33 369.222 185.625C368.752 184.88 368.448 184.043 368.332 183.17C368.215 182.297 368.29 181.409 368.549 180.568C369.013 178.861 369.849 177.278 370.996 175.932C372.143 174.586 373.574 173.509 375.186 172.778C376.88 172.011 378.709 171.585 380.568 171.525C382.427 171.465 384.279 171.773 386.019 172.43C387.276 168.611 392.013 166.532 396.398 166.415C405.353 166.174 413.361 172.275 417.252 179.611C421.144 186.946 421.712 195.331 421.954 203.472C422.013 205.457 422.038 207.527 421.096 209.32C419.694 211.988 416.509 213.426 413.506 214.566C405.633 217.55 397.51 219.831 389.233 221.382C393.207 218.844 394.468 213.382 391.95 209.607C390.719 207.76 388.696 206.222 388.369 204.083C387.977 201.518 390.168 199.275 390.978 196.792C391.388 195.448 391.406 194.015 391.031 192.661C390.657 191.307 389.904 190.087 388.862 189.144C387.728 188.159 386.371 187.464 384.909 187.117C383.446 186.771 381.922 186.784 380.466 187.154" fill="url(#paint13_linear_324_375)"/>
<path d="M446.319 428H305.444C305.264 428 305.091 427.928 304.963 427.801C304.835 427.673 304.764 427.5 304.764 427.32C304.764 427.14 304.835 426.967 304.963 426.839C305.091 426.712 305.264 426.64 305.444 426.64H446.319C446.5 426.64 446.673 426.712 446.801 426.839C446.928 426.967 447 427.14 447 427.32C447 427.5 446.928 427.673 446.801 427.801C446.673 427.928 446.5 428 446.319 428Z" fill="#CCCCCC"/>
</g>
<defs>
<linearGradient id="paint0_linear_324_375" x1="0" y1="186.612" x2="289.831" y2="186.612" gradientUnits="userSpaceOnUse">
<stop stop-color="#21D4FD"/>
<stop offset="1" stop-color="#B721FF"/>
</linearGradient>
<linearGradient id="paint1_linear_324_375" x1="25.2139" y1="204.27" x2="40.5848" y2="204.27" gradientUnits="userSpaceOnUse">
<stop stop-color="#21D4FD"/>
<stop offset="1" stop-color="#B721FF"/>
</linearGradient>
<linearGradient id="paint2_linear_324_375" x1="161.823" y1="204.654" x2="177.194" y2="204.654" gradientUnits="userSpaceOnUse">
<stop stop-color="#21D4FD"/>
<stop offset="1" stop-color="#B721FF"/>
</linearGradient>
<linearGradient id="paint3_linear_324_375" x1="270.798" y1="14.2477" x2="278.802" y2="14.2477" gradientUnits="userSpaceOnUse">
<stop stop-color="#21D4FD"/>
<stop offset="1" stop-color="#B721FF"/>
</linearGradient>
<linearGradient id="paint4_linear_324_375" x1="25.2139" y1="94.4794" x2="40.5848" y2="94.4794" gradientUnits="userSpaceOnUse">
<stop stop-color="#21D4FD"/>
<stop offset="1" stop-color="#B721FF"/>
</linearGradient>
<linearGradient id="paint5_linear_324_375" x1="70" y1="93.5" x2="233" y2="93.5" gradientUnits="userSpaceOnUse">
<stop stop-color="#21D4FD"/>
<stop offset="1" stop-color="#B721FF"/>
</linearGradient>
<linearGradient id="paint6_linear_324_375" x1="25.2139" y1="314.061" x2="40.5848" y2="314.061" gradientUnits="userSpaceOnUse">
<stop stop-color="#21D4FD"/>
<stop offset="1" stop-color="#B721FF"/>
</linearGradient>
<linearGradient id="paint7_linear_324_375" x1="69" y1="313.5" x2="168" y2="313.5" gradientUnits="userSpaceOnUse">
<stop stop-color="#21D4FD"/>
<stop offset="1" stop-color="#B721FF"/>
</linearGradient>
<linearGradient id="paint8_linear_324_375" x1="54.8472" y1="204.27" x2="78.3918" y2="204.27" gradientUnits="userSpaceOnUse">
<stop stop-color="#21D4FD"/>
<stop offset="1" stop-color="#B721FF"/>
</linearGradient>
<linearGradient id="paint9_linear_324_375" x1="191.457" y1="204.654" x2="237.475" y2="204.654" gradientUnits="userSpaceOnUse">
<stop stop-color="#21D4FD"/>
<stop offset="1" stop-color="#B721FF"/>
</linearGradient>
<linearGradient id="paint10_linear_324_375" x1="398.094" y1="250.123" x2="429.649" y2="250.123" gradientUnits="userSpaceOnUse">
<stop stop-color="#C421FD"/>
<stop offset="1" stop-color="#013C94"/>
</linearGradient>
<linearGradient id="paint11_linear_324_375" x1="365.438" y1="243.099" x2="414.81" y2="243.099" gradientUnits="userSpaceOnUse">
<stop stop-color="#C421FD"/>
<stop offset="1" stop-color="#013C94"/>
</linearGradient>
<linearGradient id="paint12_linear_324_375" x1="349.165" y1="243.142" x2="390.049" y2="243.142" gradientUnits="userSpaceOnUse">
<stop stop-color="#C521FF"/>
<stop offset="1" stop-color="#3C12B7"/>
</linearGradient>
<linearGradient id="paint13_linear_324_375" x1="386" y1="173.5" x2="405" y2="217" gradientUnits="userSpaceOnUse">
<stop stop-color="#23116A"/>
<stop offset="1" stop-color="#0E0045"/>
</linearGradient>
<clipPath id="clip0_324_375">
<rect width="447" height="428" fill="white"/>
</clipPath>
</defs>
</svg>
