<svg width="50" height="50" viewBox="0 0 50 50" fill="none" xmlns="http://www.w3.org/2000/svg">
<path d="M30.4683 19.6059L30.8616 19.2972L30.8603 19.2956L30.4683 19.6059ZM31.3941 21.9584L30.8978 22.0195L30.8982 22.0226L31.3941 21.9584ZM27.6655 17.9464L27.5476 18.4323L27.5501 18.4329L27.6655 17.9464ZM26.2022 18.0422L25.865 17.673L25.8639 17.674L26.2022 18.0422ZM26.0818 19.146L26.5067 18.8822L26.5028 18.8762L26.0818 19.146ZM26.8864 19.5688L26.7901 20.0594L26.7959 20.0605L26.8864 19.5688ZM28.3736 20.0702L28.6236 19.6372L28.6218 19.6362L28.3736 20.0702ZM29.6701 22.5885L30.1698 22.5715L30.1698 22.5714L29.6701 22.5885ZM29.946 23.565L29.5897 23.9159L29.5921 23.9183L29.946 23.565ZM31.2904 23.416L31.7135 23.6825L31.7166 23.6774L31.2904 23.416ZM31.4229 22.7705L30.9231 22.7556L30.9231 22.7565L31.4229 22.7705ZM34.7446 23.0277L34.2455 23.0567L34.2456 23.0587L34.7446 23.0277ZM31.4055 16.1402L31.7199 15.7514L31.7194 15.751L31.4055 16.1402ZM34.3176 24.757L34.0848 24.3144L34.08 24.317L34.3176 24.757ZM33.2573 24.5928L33.6187 24.2472L33.6155 24.2439L33.2573 24.5928ZM33.0005 23.6703L32.5005 23.6671L32.5005 23.6673L33.0005 23.6703ZM32.2284 19.9407L31.7778 20.1574L31.7783 20.1584L32.2284 19.9407ZM29.7176 17.0639L29.44 17.4798L29.4405 17.4801L29.7176 17.0639ZM26.2826 15.892L26.3261 15.3939L26.2826 15.892ZM25.0546 15.3083L25.5188 15.1225L25.5165 15.1168L25.0546 15.3083ZM25.0958 14.512L24.6753 14.2413L24.6723 14.2461L25.0958 14.512ZM25.6005 14.1227L25.7381 14.6034L25.7405 14.6027L25.6005 14.1227ZM27.3563 14.2716L27.456 13.7816L27.4537 13.7812L27.3563 14.2716ZM38.1681 33.647L38.5884 33.3762L38.5849 33.371L38.1681 33.647ZM38.4522 34.2163L37.9791 34.3782L37.9819 34.3859L38.4522 34.2163ZM32.7635 29.4155L32.535 29.8603L32.5354 29.8605L32.7635 29.4155ZM30.6699 28.9364L30.8053 29.4177L30.8104 29.4162L30.6699 28.9364ZM28.941 30.4639L29.3297 30.7785L29.3305 30.7774L28.941 30.4639ZM28.1026 31.4032L27.8251 30.9872L27.8177 30.9923L28.1026 31.4032ZM27.0321 31.7116L27.0291 32.2116H27.0321V31.7116ZM23.7022 30.5208L23.9627 30.0941L23.9622 30.0937L23.7022 30.5208ZM20.9029 28.1395L21.2724 27.8026L21.2716 27.8018L20.9029 28.1395ZM18.6955 25.0133L19.1437 24.7915L19.1432 24.7905L18.6955 25.0133ZM18.1177 22.1527L18.5711 22.3634L18.5729 22.3594L18.1177 22.1527ZM18.326 21.7779L17.9545 21.4433L17.9462 21.4525L17.9384 21.4621L18.326 21.7779ZM19.3065 20.9667L18.9953 20.5754L18.9921 20.578L19.3065 20.9667ZM20.6091 19.4961L21.0823 19.6579L21.0826 19.657L20.6091 19.4961ZM20.4244 17.4563L20.8699 17.2293L20.8685 17.2265L20.4244 17.4563ZM18.9371 15.0606L19.3476 14.7751L19.3468 14.7739L18.9371 15.0606ZM16.2372 11.7446L16.557 11.3603L16.5527 11.3568L16.2372 11.7446ZM13.9967 11.498L13.8161 11.0318L13.8158 11.0319L13.9967 11.498ZM10.6716 14.1688L10.2735 13.8663L10.2729 13.867L10.6716 14.1688ZM9.729 16.4506L10.2284 16.4755L10.2284 16.4741L9.729 16.4506ZM10.1032 18.239L10.5655 18.0486L10.5654 18.0482L10.1032 18.239ZM22.5607 34.4393L22.861 34.0395L22.8609 34.0395L22.5607 34.4393ZM31.7025 39.4726L31.5317 39.9425L31.5319 39.9426L31.7025 39.4726ZM35.2881 39.6244L35.5402 40.0562L35.5442 40.0538L35.2881 39.6244ZM37.2207 37.6414L37.6212 37.9407L37.622 37.9396L37.2207 37.6414ZM38.5612 35.4023L38.0724 35.2972L38.0719 35.2995L38.5612 35.4023ZM38.1555 23.6949L38.6553 23.6801L38.6551 23.6765L38.1555 23.6949ZM37.2411 19.2006L37.7079 19.0214L37.7077 19.0208L37.2411 19.2006ZM38.1396 25.0174L38.6388 25.0457L38.6389 25.0434L38.1396 25.0174ZM37.8315 26.1476L37.4932 25.7794L37.4894 25.783L37.8315 26.1476ZM36.5132 25.9989L36.0913 26.2673L36.0947 26.2725L36.5132 25.9989ZM36.3825 24.7208L36.8823 24.7355L36.8823 24.7351L36.3825 24.7208ZM34.6187 17.8712L34.1937 18.1346L34.1942 18.1353L34.6187 17.8712ZM27.7168 12.8482L27.8486 12.3659L27.8484 12.3658L27.7168 12.8482ZM25.2858 12.3736L25.3525 11.8781L25.3507 11.8778L25.2858 12.3736ZM24.321 12.1511L24.0513 12.5722L24.059 12.5769L24.321 12.1511ZM24.313 10.7218L24.5861 11.1406L24.5905 11.1377L24.313 10.7218ZM25.5744 10.6512L25.5109 11.1472L25.5124 11.1473L25.5744 10.6512ZM31.9093 12.7531L32.1707 12.3268L32.1704 12.3267L31.9093 12.7531ZM35.0062 15.4526L35.3901 15.1323L35.3888 15.1307L35.0062 15.4526ZM49.5 25C49.5 11.469 38.531 0.500004 25 0.500004V1.5C37.9787 1.5 48.5 12.0213 48.5 25H49.5ZM25 49.5C38.531 49.5 49.5 38.531 49.5 25H48.5C48.5 37.9787 37.9787 48.5 25 48.5V49.5ZM0.5 25C0.5 38.531 11.469 49.5 25 49.5V48.5C12.0213 48.5 1.5 37.9787 1.5 25H0.5ZM25 0.500004C11.469 0.500004 0.5 11.469 0.5 25H1.5C1.5 12.0213 12.0213 1.5 25 1.5V0.500004ZM30.0749 19.9146C30.5283 20.4923 30.7905 21.1477 30.8979 22.0195L31.8904 21.8973C31.7642 20.8725 31.4435 20.0386 30.8616 19.2972L30.0749 19.9146ZM27.5501 18.4329C28.7357 18.7142 29.4874 19.1723 30.0762 19.9162L30.8603 19.2956C30.1048 18.341 29.1386 17.782 27.7809 17.4599L27.5501 18.4329ZM26.5394 18.4114C26.6088 18.348 26.6612 18.3222 26.7684 18.3151C26.9117 18.3057 27.1391 18.3332 27.5476 18.4323L27.7834 17.4605C27.3632 17.3586 27.0087 17.2971 26.7025 17.3173C26.3602 17.34 26.0953 17.4626 25.865 17.673L26.5394 18.4114ZM26.5028 18.8762C26.4674 18.821 26.4427 18.7275 26.4544 18.6191C26.4663 18.5095 26.509 18.4393 26.5405 18.4104L25.8639 17.674C25.6162 17.9016 25.4921 18.2168 25.4602 18.5117C25.4282 18.8078 25.4829 19.1379 25.6608 19.4157L26.5028 18.8762ZM26.9827 19.0781C26.7474 19.0319 26.6448 18.9972 26.5909 18.9691C26.5619 18.954 26.5432 18.9412 26.5066 18.8823L25.657 19.4097C25.7705 19.5925 25.9134 19.7438 26.1288 19.856C26.3193 19.9552 26.544 20.0111 26.7901 20.0594L26.9827 19.0781ZM28.6218 19.6362C28.1569 19.3704 27.6566 19.2021 26.9769 19.077L26.7959 20.0605C27.3985 20.1714 27.7843 20.3093 28.1254 20.5043L28.6218 19.6362ZM30.1698 22.5714C30.1469 21.8992 30.0274 21.3141 29.7712 20.8164C29.511 20.3112 29.1257 19.9271 28.6236 19.6372L28.1236 20.5033C28.477 20.7073 28.7186 20.9567 28.8821 21.2742C29.0495 21.5994 29.1506 22.0264 29.1704 22.6055L30.1698 22.5714ZM30.3022 23.2142C30.2471 23.1583 30.2336 23.1322 30.2197 23.0831C30.1971 23.0029 30.1798 22.8657 30.1698 22.5715L29.1704 22.6054C29.1803 22.8988 29.1983 23.1457 29.2573 23.3548C29.3251 23.595 29.4396 23.7634 29.5897 23.9159L30.3022 23.2142ZM30.8673 23.1495C30.752 23.3326 30.4544 23.3666 30.2998 23.2118L29.5921 23.9183C30.1983 24.5254 31.2545 24.4112 31.7134 23.6825L30.8673 23.1495ZM30.9231 22.7565C30.9173 22.9636 30.9105 23.0377 30.9023 23.0774C30.9001 23.088 30.9017 23.0934 30.8641 23.1546L31.7166 23.6774C31.7844 23.5668 31.8467 23.449 31.8817 23.2795C31.9106 23.1391 31.9174 22.9763 31.9227 22.7844L30.9231 22.7565ZM30.8982 22.0226C30.9192 22.1842 30.9301 22.5232 30.9231 22.7556L31.9227 22.7853C31.9305 22.5238 31.9201 22.1274 31.89 21.8943L30.8982 22.0226ZM35.2438 22.9986C35.0676 19.9697 33.8757 17.4947 31.7199 15.7514L31.0911 16.529C33.0028 18.0749 34.0837 20.2749 34.2455 23.0567L35.2438 22.9986ZM34.5503 25.1995C34.6992 25.1212 34.8414 25.0161 34.9588 24.8657C35.0755 24.7161 35.1489 24.5458 35.1944 24.3622C35.2802 24.0166 35.2791 23.5671 35.2437 22.9967L34.2456 23.0587C34.2812 23.6326 34.2685 23.9416 34.2238 24.1214C34.2042 24.2007 34.1827 24.2348 34.1704 24.2505C34.1587 24.2655 34.1377 24.2866 34.0848 24.3145L34.5503 25.1995ZM32.896 24.9383C33.336 25.3985 33.9943 25.4998 34.5551 25.197L34.08 24.317C33.9123 24.4076 33.7451 24.3794 33.6187 24.2473L32.896 24.9383ZM32.5005 23.6673C32.4975 24.173 32.5712 24.6049 32.8992 24.9417L33.6155 24.2439C33.5683 24.1954 33.4979 24.1005 33.5004 23.6732L32.5005 23.6673ZM31.7783 20.1584C32.223 21.0783 32.5083 22.4409 32.5005 23.6671L33.5004 23.6735C33.5091 22.3201 33.2001 20.8021 32.6786 19.7231L31.7783 20.1584ZM29.4405 17.4801C30.4542 18.1548 31.2581 19.0762 31.7778 20.1574L32.6791 19.7241C32.0805 18.4789 31.1557 17.4204 29.9946 16.6477L29.4405 17.4801ZM26.239 16.3901C27.3839 16.4902 28.5627 16.8942 29.44 17.4798L29.9951 16.648C28.9677 15.9623 27.6255 15.5076 26.3261 15.3939L26.239 16.3901ZM24.5904 15.4942C24.7073 15.7861 24.8975 16.018 25.2138 16.1683C25.4897 16.2993 25.8366 16.3549 26.239 16.3901L26.3261 15.3939C25.9358 15.3597 25.7448 15.3134 25.6429 15.265C25.5815 15.2358 25.5541 15.2106 25.5188 15.1225L24.5904 15.4942ZM24.6723 14.2461C24.5522 14.4373 24.5095 14.6772 24.4992 14.8632C24.4884 15.0563 24.5071 15.2933 24.5927 15.4998L25.5165 15.1168C25.5142 15.1113 25.5068 15.0894 25.5016 15.049C25.4967 15.0103 25.495 14.9651 25.4976 14.9186C25.5002 14.8719 25.5067 14.8311 25.5143 14.8008C25.5228 14.7669 25.5285 14.7631 25.5192 14.7778L24.6723 14.2461ZM25.4629 13.642C25.2964 13.6897 25.1393 13.7864 25.0202 13.878C24.8985 13.9717 24.768 14.0975 24.6753 14.2413L25.5162 14.7826C25.528 14.7642 25.567 14.719 25.63 14.6705C25.6588 14.6484 25.6861 14.6306 25.709 14.6179C25.7335 14.6043 25.7434 14.6019 25.7381 14.6034L25.4629 13.642ZM27.4537 13.7812C27.1512 13.721 26.7364 13.669 26.3784 13.6383C26.1984 13.6229 26.0254 13.6122 25.882 13.6089C25.8107 13.6073 25.7413 13.6074 25.6792 13.6105C25.6287 13.6129 25.543 13.6186 25.4605 13.6427L25.7405 14.6027C25.7019 14.614 25.6866 14.6113 25.7279 14.6093C25.7576 14.6078 25.8014 14.6074 25.8594 14.6087C25.9749 14.6113 26.1255 14.6203 26.293 14.6347C26.63 14.6636 27.0052 14.7116 27.2588 14.762L27.4537 13.7812ZM31.7194 15.751C30.507 14.7732 29.0472 14.1055 27.456 13.7816L27.2565 14.7615C28.7018 15.0557 30.0122 15.6589 31.0916 16.5294L31.7194 15.751ZM37.7477 33.9178C37.827 34.0409 37.9388 34.2603 37.9792 34.3782L38.9253 34.0545C38.852 33.8403 38.6986 33.5474 38.5884 33.3763L37.7477 33.9178ZM32.5354 29.8605C33.2928 30.2487 34.4649 31.0577 35.5341 31.8948C36.0651 32.3104 36.5616 32.7259 36.9594 33.0899C37.3687 33.4645 37.6393 33.7542 37.7512 33.9231L38.5849 33.371C38.3984 33.0893 38.0444 32.7273 37.6345 32.3522C37.2131 31.9666 36.696 31.5343 36.1506 31.1074C35.067 30.2591 33.8352 29.403 32.9916 28.9706L32.5354 29.8605ZM30.8104 29.4162C31.1145 29.3272 31.638 29.3995 32.535 29.8603L32.992 28.9708C32.0607 28.4924 31.2295 28.2516 30.5294 28.4565L30.8104 29.4162ZM29.3305 30.7774C29.7857 30.2118 30.0581 29.9004 30.2733 29.7102C30.4648 29.5409 30.6028 29.4747 30.8053 29.4177L30.5345 28.4551C30.197 28.55 29.9229 28.6853 29.6111 28.9608C29.3231 29.2153 29.001 29.5918 28.5514 30.1505L29.3305 30.7774ZM28.3801 31.8191C28.455 31.7691 28.5318 31.6925 28.5816 31.6416C28.6439 31.5779 28.7171 31.4985 28.7957 31.4102C28.9535 31.2331 29.1433 31.0088 29.3297 30.7785L28.5523 30.1494C28.374 30.3698 28.1944 30.5819 28.049 30.7451C27.976 30.8271 27.9142 30.8938 27.867 30.9421C27.8073 31.0031 27.7999 31.0041 27.8252 30.9872L28.3801 31.8191ZM27.0321 32.2116C27.2614 32.2116 27.5151 32.1669 27.7409 32.102C27.9629 32.0383 28.2025 31.9424 28.3875 31.8141L27.8177 30.9923C27.7564 31.0348 27.6312 31.0931 27.4649 31.1409C27.3023 31.1876 27.1439 31.2116 27.0321 31.2116V32.2116ZM23.4417 30.9476C24.0249 31.3036 24.6909 31.6144 25.3161 31.8379C25.9309 32.0576 26.5499 32.2087 27.0291 32.2116L27.0352 31.2116C26.7233 31.2097 26.2292 31.1023 25.6527 30.8962C25.0866 30.6939 24.4832 30.4117 23.9627 30.0941L23.4417 30.9476ZM20.5333 28.4763C21.4011 29.4283 22.5358 30.3963 23.4423 30.948L23.9622 30.0937C23.154 29.6019 22.091 28.7008 21.2724 27.8026L20.5333 28.4763ZM18.2474 25.235C18.8077 26.3671 19.5145 27.3636 20.5341 28.4771L21.2716 27.8018C20.3018 26.7426 19.654 25.8227 19.1437 24.7915L18.2474 25.235ZM17.6643 21.9419C17.462 22.377 17.4405 22.8602 17.5489 23.3943C17.6558 23.9208 17.8946 24.5259 18.2479 25.236L19.1432 24.7905C18.805 24.1107 18.6103 23.5963 18.5289 23.1953C18.4491 22.802 18.4844 22.5498 18.5711 22.3634L17.6643 21.9419ZM17.9384 21.4621C17.8532 21.5667 17.7369 21.7818 17.6624 21.946L18.5729 22.3594C18.602 22.2953 18.6369 22.2273 18.6687 22.1707C18.6845 22.1425 18.6981 22.1196 18.7085 22.1031C18.7212 22.0829 18.7224 22.083 18.7137 22.0937L17.9384 21.4621ZM18.9921 20.578C18.7452 20.7777 18.5093 20.9698 18.3294 21.1183C18.2395 21.1924 18.1623 21.2568 18.1041 21.3063C18.0621 21.342 17.9933 21.4002 17.9545 21.4433L18.6976 22.1125C18.6801 22.1319 18.6829 22.1267 18.7519 22.0681C18.8045 22.0233 18.8774 21.9626 18.9658 21.8896C19.1423 21.744 19.3753 21.5542 19.621 21.3554L18.9921 20.578ZM20.136 19.3344C20.0592 19.5591 20.0028 19.6688 19.8785 19.8091C19.7303 19.9764 19.4856 20.1855 18.9953 20.5754L19.6177 21.3581C20.0938 20.9795 20.4105 20.7166 20.6269 20.4724C20.8673 20.2011 20.9791 19.9598 21.0823 19.6579L20.136 19.3344ZM19.979 17.6833C20.2744 18.263 20.3155 18.8064 20.1357 19.3352L21.0826 19.657C21.3575 18.848 21.2756 18.0252 20.8699 17.2293L19.979 17.6833ZM18.5267 15.3462C19.0311 16.0713 19.7239 17.1903 19.9804 17.6861L20.8685 17.2265C20.585 16.6786 19.8662 15.5206 19.3476 14.7751L18.5267 15.3462ZM15.9173 12.1289C15.9641 12.1679 16.1049 12.3158 16.3284 12.5729C16.5397 12.816 16.7996 13.1267 17.0716 13.4605C17.6176 14.1308 18.1994 14.8786 18.5275 15.3474L19.3468 14.7739C18.9975 14.2749 18.3975 13.5048 17.8469 12.8289C17.5706 12.4898 17.3035 12.1704 17.083 11.9167C16.8745 11.677 16.6784 11.4614 16.557 11.3603L15.9173 12.1289ZM14.1773 11.9643C14.9025 11.6834 15.4816 11.7745 15.9216 12.1325L16.5527 11.3568C15.7801 10.7282 14.8058 10.6484 13.8161 11.0318L14.1773 11.9643ZM11.0696 14.4714C11.3976 14.0399 11.9682 13.489 12.58 12.9972C13.1983 12.5 13.7995 12.1109 14.1776 11.9642L13.8158 11.0319C13.2893 11.2362 12.5903 11.7057 11.9534 12.2178C11.3099 12.7352 10.6703 13.3442 10.2735 13.8663L11.0696 14.4714ZM10.2284 16.4741C10.2603 15.7967 10.4578 15.2795 11.0702 14.4706L10.2729 13.867C9.57803 14.7848 9.27356 15.4915 9.22955 16.4271L10.2284 16.4741ZM10.5654 18.0482C10.391 17.6257 10.3053 17.3818 10.2617 17.1732C10.2203 16.9753 10.2127 16.7888 10.2284 16.4755L9.22962 16.4257C9.21212 16.7765 9.21638 17.0596 9.2828 17.3776C9.34697 17.6849 9.46492 18.0031 9.64104 18.4298L10.5654 18.0482ZM22.8609 34.0395C17.312 29.8727 13.2747 24.6278 10.5655 18.0486L9.64087 18.4294C12.4168 25.1709 16.5644 30.5618 22.2605 34.8391L22.8609 34.0395ZM31.8732 39.0027C28.7646 37.873 25.7621 36.2187 22.861 34.0395L22.2604 34.8391C25.2327 37.0717 28.3216 38.776 31.5317 39.9425L31.8732 39.0027ZM35.0361 39.1926C34.6347 39.4269 34.2927 39.5246 33.8539 39.5061C33.3864 39.4864 32.786 39.334 31.8731 39.0026L31.5319 39.9426C32.4615 40.28 33.1826 40.4787 33.8117 40.5052C34.4694 40.5329 34.999 40.3721 35.5402 40.0562L35.0361 39.1926ZM36.8202 37.3421C36.562 37.6876 36.1938 38.1072 35.8395 38.4707C35.4712 38.8486 35.1672 39.1143 35.0321 39.1949L35.5442 40.0538C35.8069 39.8972 36.1945 39.5391 36.5556 39.1687C36.9308 38.7838 37.3299 38.3306 37.6212 37.9407L36.8202 37.3421ZM38.0719 35.2995C38.0406 35.4482 37.9633 35.6477 37.7674 35.9752C37.5712 36.3032 37.2722 36.7338 36.8194 37.3432L37.622 37.9396C38.0787 37.3251 38.4025 36.8615 38.6256 36.4885C38.8489 36.1152 38.987 35.8071 39.0505 35.5051L38.0719 35.2995ZM37.9819 34.3859C38.0255 34.5069 38.0626 34.6829 38.0799 34.8684C38.0977 35.0581 38.0905 35.2127 38.0724 35.2972L39.05 35.5075C39.0982 35.2836 39.0981 35.016 39.0756 34.7752C39.0527 34.5302 39.0021 34.2674 38.9226 34.0468L37.9819 34.3859ZM38.6551 23.6765C38.5924 21.9784 38.3048 20.5761 37.7079 19.0214L36.7743 19.3798C37.3314 20.8309 37.5972 22.1246 37.6558 23.7134L38.6551 23.6765ZM38.6389 25.0434C38.6607 24.6265 38.6653 24.018 38.6552 23.6801L37.6557 23.7098C37.6649 24.0212 37.6606 24.6024 37.6403 24.9914L38.6389 25.0434ZM38.1698 26.5157C38.3345 26.3645 38.4613 26.1972 38.5349 25.927C38.595 25.7068 38.6175 25.421 38.6388 25.0457L37.6404 24.9891C37.6179 25.3861 37.5976 25.5633 37.5701 25.664C37.5595 25.703 37.5512 25.7161 37.5481 25.7209C37.5436 25.7278 37.532 25.7437 37.4932 25.7795L38.1698 26.5157ZM36.0947 26.2725C36.328 26.6294 36.7214 26.8066 37.081 26.8474C37.4414 26.8883 37.8633 26.8034 38.1736 26.5122L37.4894 25.783C37.4423 25.8271 37.3371 25.87 37.1938 25.8537C37.0497 25.8374 36.9626 25.7725 36.9317 25.7253L36.0947 26.2725ZM35.8828 24.706C35.8697 25.1493 35.866 25.4497 35.8888 25.6689C35.9157 25.9262 35.9812 26.0941 36.0914 26.2673L36.935 25.7305C36.9073 25.6868 36.8941 25.6669 36.8834 25.565C36.8688 25.4249 36.8688 25.1947 36.8823 24.7355L35.8828 24.706ZM34.1942 18.1353C35.4386 20.1351 35.9568 22.1268 35.8827 24.7064L36.8823 24.7351C36.9616 21.9758 36.4 19.7872 35.0432 17.607L34.1942 18.1353ZM27.5849 13.3305C30.4948 14.1259 32.7107 15.742 34.1937 18.1346L35.0437 17.6077C33.4183 14.9854 30.9848 13.2232 27.8486 12.3659L27.5849 13.3305ZM25.2191 12.8691C26.2124 13.0029 26.8398 13.1272 27.5852 13.3305L27.8484 12.3658C27.052 12.1485 26.38 12.0164 25.3525 11.8781L25.2191 12.8691ZM24.059 12.5769C24.3292 12.7432 24.5877 12.7865 25.2209 12.8694L25.3507 11.8778C24.6676 11.7884 24.6377 11.7589 24.5831 11.7252L24.059 12.5769ZM24.0398 10.303C23.628 10.5716 23.4468 11.025 23.4495 11.4415C23.4523 11.8577 23.639 12.308 24.0514 12.5721L24.5907 11.73C24.5123 11.6798 24.4504 11.575 24.4495 11.4349C24.4486 11.2951 24.5088 11.1911 24.5861 11.1406L24.0398 10.303ZM25.6379 10.1553C25.2356 10.1037 24.9372 10.0719 24.7028 10.0845C24.4245 10.0996 24.2294 10.1765 24.0354 10.3059L24.5905 11.1377C24.649 11.0987 24.6731 11.0876 24.7567 11.0831C24.8843 11.0762 25.0904 11.0933 25.5109 11.1472L25.6379 10.1553ZM32.1704 12.3267C30.3315 11.2006 28.1084 10.464 25.6364 10.1551L25.5124 11.1473C27.866 11.4415 29.9488 12.1388 31.6482 13.1795L32.1704 12.3267ZM35.3888 15.1307C34.3278 13.8697 33.4881 13.1347 32.1707 12.3268L31.6479 13.1793C32.8665 13.9266 33.6259 14.5887 34.6236 15.7745L35.3888 15.1307ZM37.7077 19.0208C37.1169 17.4874 36.5112 16.4758 35.3901 15.1323L34.6223 15.773C35.6788 17.0391 36.2261 17.9569 36.7746 19.3803L37.7077 19.0208Z" fill="url(#paint0_linear_502_730)"/>
<defs>
<linearGradient id="paint0_linear_502_730" x1="1" y1="25" x2="49" y2="25" gradientUnits="userSpaceOnUse">
<stop stop-color="#21D4FD"/>
<stop offset="1" stop-color="#B721FF"/>
</linearGradient>
</defs>
</svg>
