<svg width="541" height="392" viewBox="0 0 541 392" fill="none" xmlns="http://www.w3.org/2000/svg">
<g clip-path="url(#clip0_356_818)">
<path d="M344.628 293.87V388.366H107.881C80.9073 388.366 58.9609 367.17 58.9609 341.118C58.9609 315.066 80.9073 293.87 107.881 293.87H344.628Z" fill="#F2F2F2"/>
<path d="M350.443 387.639C350.443 388.602 350.06 389.527 349.378 390.208C348.697 390.89 347.772 391.273 346.809 391.273H103.665C90.4592 391.273 77.7945 386.027 68.4567 376.689C59.119 367.352 53.873 354.687 53.873 341.481C53.873 328.276 59.119 315.611 68.4567 306.273C77.7945 296.935 90.4592 291.69 103.665 291.69H346.809C347.772 291.69 348.697 292.072 349.378 292.754C350.06 293.436 350.443 294.36 350.443 295.324C350.443 296.288 350.06 297.212 349.378 297.894C348.697 298.576 347.772 298.958 346.809 298.958H103.665C92.387 298.958 81.5712 303.439 73.5966 311.413C65.622 319.388 61.1419 330.204 61.1419 341.481C61.1419 352.759 65.622 363.575 73.5966 371.55C81.5712 379.524 92.387 384.004 103.665 384.004H346.809C347.772 384.005 348.697 384.388 349.378 385.069C350.06 385.751 350.443 386.675 350.443 387.639Z" fill="url(#paint0_linear_356_818)"/>
<path d="M344.628 315.677H90.2171C90.0243 315.677 89.8395 315.6 89.7031 315.464C89.5668 315.328 89.4902 315.143 89.4902 314.95C89.4902 314.757 89.5668 314.572 89.7031 314.436C89.8395 314.3 90.0243 314.223 90.2171 314.223H344.628C344.82 314.223 345.005 314.3 345.142 314.436C345.278 314.572 345.355 314.757 345.355 314.95C345.355 315.143 345.278 315.328 345.142 315.464C345.005 315.6 344.82 315.677 344.628 315.677Z" fill="#21D4FD"/>
<path d="M344.628 333.122H90.2171C90.0243 333.122 89.8395 333.046 89.7031 332.909C89.5668 332.773 89.4902 332.588 89.4902 332.395C89.4902 332.202 89.5668 332.018 89.7031 331.881C89.8395 331.745 90.0243 331.668 90.2171 331.668H344.628C344.82 331.668 345.005 331.745 345.142 331.881C345.278 332.018 345.355 332.202 345.355 332.395C345.355 332.588 345.278 332.773 345.142 332.909C345.005 333.046 344.82 333.122 344.628 333.122Z" fill="#21D4FD"/>
<path d="M344.628 350.567H90.2171C90.0243 350.567 89.8395 350.491 89.7031 350.355C89.5668 350.218 89.4902 350.033 89.4902 349.841C89.4902 349.648 89.5668 349.463 89.7031 349.327C89.8395 349.19 90.0243 349.114 90.2171 349.114H344.628C344.82 349.114 345.005 349.19 345.142 349.327C345.278 349.463 345.355 349.648 345.355 349.841C345.355 350.033 345.278 350.218 345.142 350.355C345.005 350.491 344.82 350.567 344.628 350.567Z" fill="#21D4FD"/>
<path d="M344.628 368.013H90.2171C90.0243 368.013 89.8395 367.936 89.7031 367.8C89.5668 367.663 89.4902 367.479 89.4902 367.286C89.4902 367.093 89.5668 366.908 89.7031 366.772C89.8395 366.636 90.0243 366.559 90.2171 366.559H344.628C344.82 366.559 345.005 366.636 345.142 366.772C345.278 366.908 345.355 367.093 345.355 367.286C345.355 367.479 345.278 367.663 345.142 367.8C345.005 367.936 344.82 368.013 344.628 368.013Z" fill="#21D4FD"/>
<path d="M527.598 311.658L468.309 385.24L283.96 236.7C262.955 219.776 259.165 189.501 275.51 169.215C291.856 148.929 322.244 146.194 343.248 163.118L527.598 311.658Z" fill="#F2F2F2"/>
<path d="M473.294 388.322C472.689 389.072 471.811 389.552 470.853 389.655C469.894 389.758 468.934 389.476 468.184 388.872L278.852 236.318C268.569 228.033 261.999 216.002 260.587 202.872C259.174 189.742 263.035 176.589 271.321 166.306C279.606 156.023 291.637 149.453 304.767 148.04C317.897 146.628 331.05 150.489 341.333 158.775L530.664 311.328C531.036 311.627 531.346 311.997 531.575 312.416C531.804 312.835 531.948 313.295 531.999 313.77C532.05 314.244 532.008 314.724 531.873 315.183C531.739 315.641 531.515 316.068 531.216 316.44C530.916 316.812 530.546 317.121 530.127 317.349C529.708 317.578 529.248 317.722 528.773 317.773C528.299 317.824 527.819 317.781 527.36 317.646C526.902 317.512 526.475 317.288 526.104 316.988L336.772 164.435C332.424 160.928 327.428 158.313 322.069 156.738C316.71 155.163 311.094 154.66 305.54 155.256C299.986 155.852 294.604 157.537 289.702 160.214C284.8 162.89 280.472 166.507 276.968 170.856C273.463 175.206 270.85 180.203 269.277 185.562C267.705 190.922 267.203 196.539 267.802 202.092C268.4 207.646 270.087 213.027 272.766 217.928C275.444 222.83 279.062 227.155 283.413 230.658L472.744 383.212C473.494 383.817 473.974 384.695 474.077 385.653C474.18 386.611 473.898 387.571 473.294 388.322Z" fill="#21D4FD"/>
<path d="M513.915 328.638L315.811 169.016C315.737 168.956 315.675 168.882 315.629 168.798C315.583 168.714 315.554 168.622 315.544 168.527C315.534 168.433 315.543 168.337 315.569 168.245C315.596 168.153 315.641 168.068 315.701 167.994C315.761 167.919 315.835 167.858 315.919 167.812C316.002 167.766 316.094 167.737 316.189 167.727C316.284 167.717 316.38 167.725 316.472 167.752C316.563 167.779 316.649 167.824 316.723 167.884L514.827 327.506C514.902 327.566 514.964 327.64 515.01 327.724C515.056 327.808 515.084 327.9 515.095 327.995C515.105 328.09 515.097 328.186 515.07 328.277C515.043 328.369 514.998 328.454 514.938 328.529C514.878 328.603 514.804 328.665 514.72 328.711C514.636 328.757 514.544 328.785 514.449 328.796C514.354 328.806 514.258 328.797 514.167 328.77C514.075 328.743 513.99 328.698 513.915 328.638V328.638Z" fill="#21D4FD"/>
<path d="M502.97 342.223L304.866 182.6C304.716 182.479 304.62 182.303 304.6 182.112C304.579 181.92 304.636 181.729 304.757 181.579C304.877 181.429 305.053 181.333 305.244 181.312C305.436 181.291 305.628 181.347 305.778 181.468L503.882 341.09C503.957 341.15 504.019 341.224 504.065 341.308C504.111 341.392 504.139 341.484 504.15 341.579C504.16 341.674 504.151 341.77 504.125 341.862C504.098 341.953 504.053 342.039 503.993 342.113C503.933 342.188 503.859 342.249 503.775 342.295C503.691 342.341 503.599 342.37 503.504 342.38C503.409 342.39 503.313 342.381 503.222 342.354C503.13 342.327 503.045 342.283 502.97 342.223Z" fill="#21D4FD"/>
<path d="M492.025 355.807L293.92 196.184C293.77 196.063 293.674 195.888 293.654 195.696C293.633 195.504 293.689 195.312 293.81 195.162C293.931 195.012 294.107 194.916 294.299 194.896C294.49 194.875 294.682 194.931 294.832 195.052L492.937 354.675C493.011 354.735 493.073 354.809 493.119 354.892C493.164 354.976 493.193 355.068 493.203 355.163C493.214 355.258 493.205 355.354 493.178 355.446C493.151 355.537 493.107 355.623 493.047 355.697C492.987 355.771 492.913 355.833 492.829 355.879C492.745 355.925 492.653 355.953 492.559 355.964C492.464 355.974 492.368 355.965 492.276 355.938C492.184 355.911 492.099 355.867 492.025 355.807V355.807Z" fill="#21D4FD"/>
<path d="M481.079 369.391L282.975 209.769C282.901 209.709 282.839 209.635 282.793 209.551C282.747 209.467 282.718 209.375 282.708 209.28C282.698 209.186 282.707 209.09 282.734 208.998C282.76 208.906 282.805 208.821 282.865 208.747C282.925 208.672 282.999 208.61 283.083 208.565C283.166 208.519 283.258 208.49 283.353 208.48C283.448 208.47 283.544 208.478 283.636 208.505C283.727 208.532 283.813 208.577 283.887 208.637L481.991 368.259C482.066 368.319 482.128 368.393 482.174 368.477C482.22 368.561 482.248 368.653 482.259 368.748C482.269 368.842 482.261 368.939 482.234 369.03C482.207 369.122 482.162 369.207 482.102 369.282C482.042 369.356 481.968 369.418 481.884 369.464C481.8 369.51 481.708 369.538 481.613 369.548C481.518 369.559 481.422 369.55 481.331 369.523C481.239 369.496 481.154 369.451 481.079 369.391Z" fill="#21D4FD"/>
<path d="M540.077 392H0.726887C0.534105 392 0.349218 391.923 0.2129 391.787C0.076582 391.651 0 391.466 0 391.273C0 391.08 0.076582 390.895 0.2129 390.759C0.349218 390.623 0.534105 390.546 0.726887 390.546H540.077C540.27 390.546 540.455 390.623 540.591 390.759C540.727 390.895 540.804 391.08 540.804 391.273C540.804 391.466 540.727 391.651 540.591 391.787C540.455 391.923 540.27 392 540.077 392Z" fill="#21D4FD"/>
<path d="M245.747 283.938L237.437 283.937L233.485 251.885L245.75 251.886L245.747 283.938Z" fill="#FFB8B8"/>
<path d="M231.501 281.563H247.527V291.654H221.41C221.41 290.329 221.671 289.016 222.178 287.792C222.685 286.568 223.429 285.455 224.366 284.518C225.303 283.581 226.415 282.838 227.639 282.331C228.863 281.824 230.176 281.563 231.501 281.563Z" fill="#18065A"/>
<path d="M160.85 283.938L152.54 283.937L148.588 251.885L160.853 251.886L160.85 283.938Z" fill="#FFB8B8"/>
<path d="M146.604 281.563H162.631V291.654H136.514C136.514 290.329 136.775 289.016 137.282 287.792C137.789 286.568 138.532 285.455 139.469 284.518C140.406 283.581 141.519 282.838 142.743 282.331C143.967 281.824 145.279 281.563 146.604 281.563Z" fill="#18065A"/>
<path d="M188.606 46.1814V42.5469C188.606 36.3297 191.076 30.3671 195.472 25.9708C199.869 21.5746 205.831 19.1048 212.049 19.1048H212.049C218.266 19.1048 224.228 21.5746 228.625 25.9708C233.021 30.3671 235.491 36.3297 235.491 42.5469V46.1814C235.491 50.6636 233.71 54.9622 230.541 58.1316C227.371 61.301 223.073 63.0815 218.591 63.0815H205.507C203.287 63.0815 201.09 62.6444 199.039 61.7951C196.989 60.9458 195.126 59.7009 193.556 58.1316C191.987 56.5623 190.742 54.6992 189.893 52.6488C189.044 50.5984 188.606 48.4007 188.606 46.1814Z" fill="url(#paint1_linear_356_818)"/>
<path d="M212.048 64.3321C221.908 64.3321 229.902 56.339 229.902 46.479C229.902 36.619 221.908 28.6259 212.048 28.6259C202.188 28.6259 194.195 36.619 194.195 46.479C194.195 56.339 202.188 64.3321 212.048 64.3321Z" fill="#FFB8B8"/>
<path d="M114.939 107.838C115.664 107.154 116.529 106.637 117.475 106.323C118.421 106.01 119.424 105.908 120.414 106.024C121.404 106.14 122.356 106.472 123.203 106.996C124.051 107.52 124.773 108.224 125.319 109.057L140.624 106.162L144.651 115.033L122.981 118.818C121.52 119.643 119.808 119.903 118.168 119.55C116.528 119.196 115.074 118.253 114.083 116.9C113.092 115.546 112.631 113.876 112.789 112.206C112.947 110.536 113.712 108.982 114.939 107.838V107.838Z" fill="#FFB8B8"/>
<path d="M198.129 75.5753L198.33 75.8786L173.233 92.4112L130.886 105.934C130.325 106.114 129.843 106.483 129.523 106.979C129.204 107.474 129.066 108.065 129.133 108.651L130.057 116.608C130.098 116.96 130.212 117.3 130.392 117.605C130.572 117.911 130.813 118.175 131.101 118.382C131.39 118.588 131.718 118.733 132.065 118.805C132.412 118.877 132.77 118.876 133.117 118.802L172.972 110.259C174.901 109.848 176.725 109.045 178.33 107.9L206.525 87.8402C207.547 87.109 208.362 86.1258 208.892 84.9861C209.422 83.8464 209.647 82.5891 209.547 81.3364C209.444 80.0819 209.016 78.876 208.305 77.8372C207.594 76.7984 206.625 75.9626 205.493 75.4119C204.361 74.8612 203.106 74.6147 201.85 74.6965C200.593 74.7783 199.38 75.1857 198.33 75.8786L198.129 75.5753Z" fill="url(#paint2_linear_356_818)"/>
<path d="M237.585 274.842C236.947 274.842 236.323 274.657 235.789 274.308C235.255 273.96 234.834 273.463 234.578 272.879L196.481 178.746C196.393 178.542 196.243 178.37 196.054 178.253C195.864 178.137 195.643 178.081 195.421 178.093C195.198 178.106 194.985 178.186 194.81 178.323C194.635 178.461 194.505 178.648 194.44 178.861L163.36 270.503C163.228 270.929 163.011 271.324 162.722 271.664C162.432 272.003 162.076 272.28 161.676 272.477C161.275 272.674 160.839 272.786 160.393 272.808C159.948 272.83 159.502 272.761 159.084 272.604L148.662 268.696C148.096 268.486 147.6 268.123 147.228 267.647C146.856 267.172 146.624 266.603 146.556 266.003C141.867 225.157 182.755 122.058 183.169 121.021L183.283 120.734L220.556 128.979L220.633 129.064C235.504 145.286 247.727 247.606 250.026 267.953C250.112 268.688 249.945 269.43 249.552 270.057C249.16 270.684 248.565 271.159 247.867 271.403L238.667 274.656C238.32 274.779 237.954 274.842 237.585 274.842Z" fill="#1F0C66"/>
<path d="M205.471 132.298C196.44 132.298 186.372 130.497 183.273 123.066L183.202 122.895L183.298 122.737C185.744 118.723 188.977 111.877 187.24 110.591C183.817 108.06 182.155 103.897 182.303 98.2158C182.623 85.8836 191.026 74.9345 203.213 70.9704H203.213C206.614 69.8818 210.076 68.9905 213.58 68.301C216.135 67.7855 218.772 67.8422 221.302 68.467C223.833 69.0918 226.193 70.2693 228.214 71.9148C230.261 73.5711 231.915 75.6601 233.058 78.0318C234.202 80.4035 234.805 82.9989 234.826 85.6316C234.954 98.8107 232.925 117.166 222.533 129.768C222.046 130.353 221.368 130.747 220.619 130.881C215.619 131.786 210.551 132.26 205.471 132.298Z" fill="url(#paint3_linear_356_818)"/>
<path d="M202.112 131.804C202.604 130.041 203.771 128.543 205.36 127.636C206.95 126.729 208.833 126.486 210.601 126.96C210.962 127.061 211.314 127.191 211.653 127.35L223.274 116.774L231.355 122.219L214.738 136.925C213.987 138.278 212.806 139.341 211.382 139.945C209.957 140.549 208.372 140.659 206.878 140.259C206.007 140.02 205.192 139.612 204.481 139.057C203.769 138.502 203.175 137.811 202.731 137.025C202.288 136.239 202.005 135.373 201.899 134.477C201.793 133.58 201.865 132.672 202.112 131.804Z" fill="#FFB8B8"/>
<path d="M221.433 131.938C220.679 131.939 219.948 131.678 219.365 131.201L214.782 127.456C214.4 127.144 214.094 126.749 213.886 126.302C213.678 125.854 213.574 125.366 213.581 124.872C213.589 124.379 213.708 123.894 213.93 123.453C214.152 123.012 214.47 122.628 214.861 122.327L234.082 107.586C234.309 107.411 234.459 107.152 234.497 106.867C234.536 106.582 234.461 106.293 234.288 106.064L222.425 90.3802C221.046 88.5641 220.355 86.319 220.473 84.0422C220.591 81.7654 221.511 79.6038 223.07 77.9401C224.711 76.1671 226.959 75.076 229.368 74.8834C231.777 74.6908 234.169 75.4106 236.072 76.9001L236.147 76.9793L248.535 94.717C249.874 95.7673 250.953 97.113 251.686 98.6491C252.42 100.185 252.788 101.87 252.763 103.572C252.738 105.274 252.319 106.947 251.54 108.461C250.761 109.974 249.643 111.287 248.273 112.297L223.38 131.297C222.817 131.714 222.134 131.938 221.433 131.938Z" fill="url(#paint4_linear_356_818)"/>
<path d="M196.234 41.4566V32.5986L212.048 25.6932L227.127 32.5986V41.4566C227.127 41.8421 226.974 42.2119 226.701 42.4845C226.429 42.7572 226.059 42.9103 225.673 42.9103H197.688C197.303 42.9103 196.933 42.7572 196.66 42.4845C196.388 42.2119 196.234 41.8421 196.234 41.4566Z" fill="url(#paint5_linear_356_818)"/>
<path d="M211.322 20.2799C208.997 12.8377 213.88 4.30849 221.099 1.36266C228.318 -1.58317 236.955 0.476055 243.047 5.34302C249.138 10.21 252.918 17.4998 254.92 25.0352C256.923 32.5707 257.303 40.4284 257.673 48.2167C266.542 49.8459 272.576 60.366 269.503 68.8445C266.431 77.3229 255.058 81.5351 247.204 77.1036C239.35 72.6721 237.075 60.7598 242.743 53.746C245.426 50.4273 246.924 46.3085 247.001 42.0421C247.078 37.7757 245.729 33.6055 243.169 30.192C240.608 26.7786 236.982 24.3169 232.865 23.197C228.747 22.0771 224.374 22.363 220.437 24.0093C216.066 25.8374 210.581 21.0877 211.322 20.2799Z" fill="url(#paint6_linear_356_818)"/>
<path d="M111.66 73.4758C101.041 73.4061 90.5542 71.1093 80.8778 66.734C80.3018 66.4773 79.8129 66.0586 79.4707 65.5289C79.1284 64.9992 78.9476 64.3815 78.9502 63.7508V37.2791C78.9512 36.4119 79.2961 35.5804 79.9093 34.9672C80.5226 34.354 81.354 34.0091 82.2212 34.0081H141.099C141.966 34.0091 142.798 34.354 143.411 34.9672C144.024 35.5805 144.369 36.4119 144.37 37.2791V63.7509C144.373 64.3815 144.192 64.9993 143.85 65.5289C143.507 66.0586 143.018 66.4773 142.442 66.734C132.766 71.1094 122.279 73.4061 111.66 73.4758Z" fill="url(#paint7_linear_356_818)"/>
<path d="M111.652 52.0305C111.216 52.0308 110.784 51.944 110.381 51.7749L63.6918 32.0766C63.0898 31.8226 62.5775 31.394 62.2213 30.8462C61.865 30.2984 61.681 29.6564 61.6929 29.0031C61.7049 28.3497 61.9123 27.7149 62.2885 27.1805C62.6646 26.6461 63.1921 26.2366 63.8031 26.0049L110.493 8.29229C111.245 8.00569 112.077 8.00745 112.827 8.29725L158.892 26.0098C159.499 26.2434 160.023 26.653 160.397 27.1861C160.77 27.7193 160.976 28.3517 160.988 29.0025C161 29.6532 160.818 30.2928 160.464 30.8394C160.111 31.3859 159.602 31.8146 159.004 32.0705L112.939 51.7685C112.532 51.9418 112.094 52.0309 111.652 52.0305Z" fill="url(#paint8_linear_356_818)"/>
<path d="M84.4023 68.5352C86.811 68.5352 88.7637 66.5826 88.7637 64.1739C88.7637 61.7652 86.811 59.8126 84.4023 59.8126C81.9936 59.8126 80.041 61.7652 80.041 64.1739C80.041 66.5826 81.9936 68.5352 84.4023 68.5352Z" fill="#3F3D56"/>
<path opacity="0.2" d="M159.163 29.2745L113.098 48.9725C112.739 49.1261 112.352 49.2057 111.962 49.2067C111.571 49.2076 111.184 49.1298 110.825 48.978L64.1352 29.2802C63.5489 29.0388 63.0597 28.6088 62.745 28.0583C62.5391 28.4153 62.4115 28.812 62.3707 29.222C62.3299 29.6321 62.3768 30.0462 62.5083 30.4367C62.6398 30.8273 62.8528 31.1854 63.1333 31.4873C63.4138 31.7892 63.7554 32.028 64.1352 32.1878L110.825 51.8856C111.184 52.0374 111.571 52.1151 111.962 52.1142C112.352 52.1133 112.739 52.0336 113.098 51.8801L159.163 32.182C159.541 32.0208 159.88 31.7813 160.159 31.4793C160.437 31.1772 160.649 30.8195 160.779 30.4298C160.909 30.0401 160.955 29.6272 160.914 29.2184C160.873 28.8096 160.745 28.4142 160.54 28.0582C160.228 28.6043 159.743 29.0319 159.163 29.2745Z" fill="black"/>
<path d="M84.7679 64.1569C84.9607 64.1569 85.1456 64.0803 85.2819 63.944C85.4182 63.8077 85.4948 63.6228 85.4948 63.43V39.1073L109.468 30.3737C109.661 30.3765 109.847 30.3027 109.986 30.1684C110.124 30.0341 110.203 29.8504 110.206 29.6576C110.209 29.4648 110.135 29.2788 110.001 29.1404C109.867 29.0021 109.683 28.9228 109.49 28.9199L85.5164 37.6535C85.3235 37.6491 85.1317 37.6839 84.9526 37.7557C84.7735 37.8276 84.6109 37.9351 84.4746 38.0716C84.3368 38.2066 84.2274 38.3677 84.153 38.5456C84.0785 38.7235 84.0404 38.9145 84.041 39.1073V63.43C84.041 63.6228 84.1176 63.8076 84.2539 63.944C84.3902 64.0803 84.5751 64.1569 84.7679 64.1569Z" fill="#3F3D56"/>
</g>
<defs>
<linearGradient id="paint0_linear_356_818" x1="53.873" y1="341.481" x2="350.443" y2="341.481" gradientUnits="userSpaceOnUse">
<stop stop-color="#21D4FD"/>
<stop offset="1" stop-color="#B721FF"/>
</linearGradient>
<linearGradient id="paint1_linear_356_818" x1="212.049" y1="19.1048" x2="212.049" y2="63.0815" gradientUnits="userSpaceOnUse">
<stop stop-color="#1F0C66"/>
<stop offset="1" stop-color="#240250"/>
</linearGradient>
<linearGradient id="paint2_linear_356_818" x1="129.116" y1="96.7698" x2="209.57" y2="96.7698" gradientUnits="userSpaceOnUse">
<stop stop-color="#2151FD"/>
<stop offset="1" stop-color="#0E01AB"/>
</linearGradient>
<linearGradient id="paint3_linear_356_818" x1="182.294" y1="100.125" x2="234.832" y2="100.125" gradientUnits="userSpaceOnUse">
<stop stop-color="#2151FD"/>
<stop offset="1" stop-color="#0E01AB"/>
</linearGradient>
<linearGradient id="paint4_linear_356_818" x1="213.581" y1="103.396" x2="252.764" y2="103.396" gradientUnits="userSpaceOnUse">
<stop stop-color="#2151FD"/>
<stop offset="1" stop-color="#0E01AB"/>
</linearGradient>
<linearGradient id="paint5_linear_356_818" x1="211.681" y1="25.6932" x2="211.681" y2="42.9103" gradientUnits="userSpaceOnUse">
<stop stop-color="#1F0C66"/>
<stop offset="1" stop-color="#240250"/>
</linearGradient>
<linearGradient id="paint6_linear_356_818" x1="240.526" y1="3.05176e-05" x2="240.526" y2="78.8896" gradientUnits="userSpaceOnUse">
<stop stop-color="#1F0C66"/>
<stop offset="1" stop-color="#240250"/>
</linearGradient>
<linearGradient id="paint7_linear_356_818" x1="78.9502" y1="53.7419" x2="144.37" y2="53.7419" gradientUnits="userSpaceOnUse">
<stop stop-color="#21D4FD"/>
<stop offset="1" stop-color="#B721FF"/>
</linearGradient>
<linearGradient id="paint8_linear_356_818" x1="61.6924" y1="30.0545" x2="160.989" y2="30.0545" gradientUnits="userSpaceOnUse">
<stop stop-color="#21D4FD"/>
<stop offset="1" stop-color="#B721FF"/>
</linearGradient>
<clipPath id="clip0_356_818">
<rect width="540.804" height="392" fill="white"/>
</clipPath>
</defs>
</svg>
