<svg width="598" height="392" viewBox="0 0 598 392" fill="none" xmlns="http://www.w3.org/2000/svg">
<g clip-path="url(#clip0_390_1368)">
<path d="M26.3923 361.091C28.9139 361.978 31.6213 362.2 34.2537 361.736C36.8861 361.272 39.3547 360.139 41.4217 358.444C46.6857 354.025 48.3364 346.748 49.679 340.008L53.651 320.072L45.3352 325.798C39.3546 329.916 33.2397 334.166 29.0991 340.13C24.9586 346.095 23.1522 354.237 26.478 360.691" fill="#E6E6E6"/>
<path d="M27.677 386.615C26.6303 378.99 25.5535 371.266 26.2894 363.559C26.9416 356.714 29.0299 350.029 33.2815 344.546C35.5382 341.642 38.2842 339.154 41.3961 337.193C42.2073 336.681 42.9542 337.967 42.1464 338.477C36.7619 341.879 32.5971 346.904 30.2525 352.826C27.6631 359.412 27.2474 366.592 27.6934 373.588C27.963 377.818 28.5359 382.021 29.1112 386.219C29.1567 386.409 29.1283 386.609 29.0319 386.779C28.9355 386.949 28.7782 387.076 28.5919 387.134C28.4018 387.185 28.1992 387.159 28.028 387.062C27.8568 386.965 27.7309 386.804 27.6775 386.614L27.677 386.615Z" fill="#F2F2F2"/>
<path d="M35.2109 374.38C36.2923 376.024 37.7788 377.362 39.5273 378.264C41.2758 379.167 43.2273 379.604 45.1938 379.534C50.2487 379.294 54.4611 375.767 58.2528 372.418L69.4702 362.514L62.0464 362.159C56.7076 361.903 51.231 361.663 46.1458 363.311C41.0607 364.96 36.3711 368.92 35.4414 374.184" fill="#E6E6E6"/>
<path d="M24.7179 390.999C29.7569 382.083 35.6013 372.174 46.0451 369.007C48.9487 368.129 51.9933 367.815 55.015 368.08C55.9675 368.163 55.7296 369.631 54.7791 369.549C49.7139 369.128 44.6585 370.466 40.4639 373.336C36.4274 376.083 33.2845 379.903 30.6247 383.954C28.9952 386.435 27.5358 389.021 26.0763 391.604C25.6099 392.43 24.2461 391.834 24.7179 390.999Z" fill="#F2F2F2"/>
<path d="M376.399 202.769H155.291V391.097H376.399V202.769Z" fill="white"/>
<path d="M377.042 391.739H154.648V202.126H377.042V391.739ZM155.934 390.454H375.757V203.412H155.934V390.454Z" fill="#21D4FD"/>
<path d="M293.484 239.406H238.207V391.097H293.484V239.406Z" fill="url(#paint0_linear_390_1368)"/>
<path d="M293.484 239.406H238.207V391.097H293.484V239.406Z" fill="url(#paint1_linear_390_1368)"/>
<path opacity="0.2" d="M155.934 216.588V247.144L376.399 261.26L375.749 223.557L155.934 216.588Z" fill="black"/>
<path d="M389.255 185.415H142.437V239.406H389.255V185.415Z" fill="white"/>
<path d="M389.897 240.049H141.793V184.772H389.897V240.049ZM143.078 238.763H388.611V186.057H143.078V238.763Z" fill="#21D4FD"/>
<path d="M293.484 180.273H238.207V238.763H293.484V180.273Z" fill="url(#paint2_linear_390_1368)"/>
<path d="M259.927 129.274C274.518 150.904 260.771 185.692 260.771 185.692C260.771 185.692 223.365 185.412 208.774 163.782C194.182 142.152 207.93 107.364 207.93 107.364C207.93 107.364 245.336 107.644 259.927 129.274Z" fill="url(#paint3_linear_390_1368)"/>
<path d="M266.621 129.274C252.03 150.904 265.778 185.692 265.778 185.692C265.778 185.692 303.183 185.412 317.775 163.782C332.366 142.152 318.618 107.364 318.618 107.364C318.618 107.364 281.213 107.644 266.621 129.274Z" fill="url(#paint4_linear_390_1368)"/>
<path d="M227.28 145.564C230.475 145.564 233.065 142.974 233.065 139.779C233.065 136.584 230.475 133.994 227.28 133.994C224.085 133.994 221.495 136.584 221.495 139.779C221.495 142.974 224.085 145.564 227.28 145.564Z" fill="#21D4FD"/>
<path d="M261.989 204.055C265.184 204.055 267.774 201.465 267.774 198.27C267.774 195.075 265.184 192.485 261.989 192.485C258.794 192.485 256.204 195.075 256.204 198.27C256.204 201.465 258.794 204.055 261.989 204.055Z" fill="#21D4FD"/>
<path d="M261.989 330.678C265.184 330.678 267.774 328.088 267.774 324.893C267.774 321.698 265.184 319.108 261.989 319.108C258.794 319.108 256.204 321.698 256.204 324.893C256.204 328.088 258.794 330.678 261.989 330.678Z" fill="#21D4FD"/>
<path d="M242.706 164.846C244.836 164.846 246.563 163.12 246.563 160.99C246.563 158.86 244.836 157.133 242.706 157.133C240.576 157.133 238.85 158.86 238.85 160.99C238.85 163.12 240.576 164.846 242.706 164.846Z" fill="#21D4FD"/>
<path d="M300.554 132.066C302.684 132.066 304.41 130.339 304.41 128.209C304.41 126.079 302.684 124.353 300.554 124.353C298.424 124.353 296.697 126.079 296.697 128.209C296.697 130.339 298.424 132.066 300.554 132.066Z" fill="#21D4FD"/>
<path d="M275.486 222.695C277.616 222.695 279.343 220.968 279.343 218.838C279.343 216.708 277.616 214.981 275.486 214.981C273.357 214.981 271.63 216.708 271.63 218.838C271.63 220.968 273.357 222.695 275.486 222.695Z" fill="#21D4FD"/>
<path d="M252.348 272.829C254.478 272.829 256.204 271.103 256.204 268.973C256.204 266.843 254.478 265.116 252.348 265.116C250.218 265.116 248.491 266.843 248.491 268.973C248.491 271.103 250.218 272.829 252.348 272.829Z" fill="#21D4FD"/>
<path d="M272.273 290.184C274.402 290.184 276.129 288.457 276.129 286.327C276.129 284.197 274.402 282.471 272.273 282.471C270.143 282.471 268.416 284.197 268.416 286.327C268.416 288.457 270.143 290.184 272.273 290.184Z" fill="#21D4FD"/>
<path d="M267.774 362.815C269.903 362.815 271.63 361.089 271.63 358.959C271.63 356.829 269.903 355.102 267.774 355.102C265.644 355.102 263.917 356.829 263.917 358.959C263.917 361.089 265.644 362.815 267.774 362.815Z" fill="#21D4FD"/>
<path d="M505.615 383.997L498.562 383.996L495.206 356.791L505.616 356.791L505.615 383.997Z" fill="#FFB8B8"/>
<path d="M507.413 390.834L484.671 390.833V390.545C484.671 388.197 485.604 385.946 487.264 384.286C488.924 382.626 491.175 381.693 493.523 381.693H493.523L507.414 381.694L507.413 390.834Z" fill="#2F2E41"/>
<path d="M522.842 383.997L529.896 383.996L533.251 356.791L522.841 356.791L522.842 383.997Z" fill="#FFB8B8"/>
<path d="M521.043 381.694L534.933 381.693H534.934C537.281 381.693 539.533 382.626 541.193 384.286C542.853 385.946 543.786 388.197 543.786 390.545V390.833L521.043 390.834L521.043 381.694Z" fill="#2F2E41"/>
<path d="M504.047 171.396C507.077 165.298 504.59 157.9 498.492 154.87C492.395 151.841 484.996 154.328 481.967 160.425C478.937 166.523 481.424 173.921 487.522 176.951C493.619 179.98 501.018 177.493 504.047 171.396Z" fill="#FFB8B8"/>
<path d="M483.929 250.718C483.929 250.718 480.036 266.939 481.983 274.725C483.929 282.511 489.769 335.715 489.769 335.715L493.662 377.889L509.234 379.187L507.287 329.876L509.234 287.053L520.264 328.578V378.036L536.779 378.685L537.133 314.304C537.133 314.304 538.431 263.695 529.996 257.206C521.561 250.718 520.264 249.42 520.264 249.42L483.929 250.718Z" fill="#1F0C66"/>
<path d="M507.437 179.346L522.21 187.132L524.157 254.611C524.157 254.611 515.722 249.42 502.745 255.909C489.769 262.397 481.334 257.855 481.334 257.855L489.12 228.658L485.876 189.728L490.516 185.516L507.437 179.346Z" fill="white"/>
<path d="M490.517 184.288L487.822 186.484C487.822 186.484 470.953 194.918 470.304 200.758L481.983 232.551C481.983 232.551 485.227 239.688 482.632 242.283C480.036 244.879 477.441 251.367 478.09 254.611C478.739 257.855 474.197 271.481 479.387 271.481C484.578 271.481 496.906 240.337 496.257 228.009C495.608 215.681 495.159 183.39 490.517 184.288Z" fill="url(#paint5_linear_390_1368)"/>
<path d="M501.86 180.078L507.803 179.089C507.803 179.089 529.863 184.928 533.107 194.661L524.023 217.37C524.023 217.37 530.512 258.895 528.565 258.895H526.619C526.619 258.895 531.809 262.788 528.565 264.086C525.321 265.383 517.535 275.765 515.589 271.223C513.642 266.681 501.963 212.828 503.261 201.149C504.559 189.47 500.707 181.301 501.86 180.078Z" fill="url(#paint6_linear_390_1368)"/>
<path d="M504.438 153.84L505.015 152.678L502.11 151.234C502.11 151.234 498.905 146.019 493.105 147.485C487.306 148.95 484.696 149.827 484.696 149.827L481.798 151.285L483.253 152.733L480.643 153.61L482.387 154.476L480.358 155.642L481.45 161.618C481.45 161.618 483.264 157.085 486.75 158.817C490.236 160.55 496.614 157.922 496.614 157.922L502.154 168.644C502.154 168.644 503.297 164.885 505.335 165.888C505.335 165.888 510.541 157.597 504.438 153.84Z" fill="url(#paint7_linear_390_1368)"/>
<path d="M522.485 267.693C522.165 266.911 522.02 266.067 522.06 265.222C522.101 264.378 522.326 263.552 522.721 262.804C523.115 262.055 523.668 261.403 524.342 260.892C525.016 260.38 525.794 260.023 526.62 259.845L529.118 239.439L537.256 246.36L533.637 264.677C533.844 266.086 533.527 267.522 532.746 268.713C531.966 269.903 530.775 270.766 529.401 271.138C528.026 271.51 526.563 271.365 525.288 270.73C524.014 270.095 523.017 269.014 522.485 267.693Z" fill="#FFB8B8"/>
<path d="M487.678 266.289C487.914 265.477 487.969 264.623 487.839 263.787C487.709 262.951 487.397 262.154 486.926 261.452C486.454 260.75 485.835 260.159 485.11 259.723C484.386 259.286 483.575 259.013 482.734 258.923L478.087 238.897L470.729 246.642L476.27 264.472C476.213 265.895 476.68 267.289 477.583 268.391C478.485 269.492 479.761 270.224 481.167 270.448C482.573 270.672 484.013 270.372 485.213 269.606C486.413 268.839 487.29 267.659 487.678 266.289H487.678Z" fill="#FFB8B8"/>
<path d="M522.799 189.373C522.799 189.373 531.233 186.129 533.829 195.861C536.424 205.594 539.668 225.059 539.668 225.059C539.83 235.883 539.254 235.883 539.668 246.47L537.722 256.203L526.692 254.905L527.173 230.13L521.501 204.945L522.799 189.373Z" fill="url(#paint8_linear_390_1368)"/>
<path d="M476.144 196.865L472.145 197.293C472.145 197.293 468.358 200.109 468.358 206.597C468.358 213.086 467.709 232.551 467.709 232.551C467.709 232.551 467.341 233.006 470.304 249.42C471.749 257.421 474.245 261.196 474.245 261.196L482.299 253.717L481.334 234.497L483.93 224.116L476.144 196.865Z" fill="url(#paint9_linear_390_1368)"/>
<path d="M597.12 391.739H0.642756C0.472287 391.739 0.308799 391.672 0.188258 391.551C0.0677183 391.431 0 391.267 0 391.097C0 390.926 0.0677183 390.763 0.188258 390.642C0.308799 390.522 0.472287 390.454 0.642756 390.454H597.12C597.291 390.454 597.454 390.522 597.575 390.642C597.696 390.763 597.763 390.926 597.763 391.097C597.763 391.267 597.696 391.431 597.575 391.551C597.454 391.672 597.291 391.739 597.12 391.739Z" fill="#21D4FD"/>
<path d="M148.25 200.69C156.07 200.69 162.409 194.351 162.409 186.531C162.409 178.712 156.07 172.373 148.25 172.373C140.431 172.373 134.092 178.712 134.092 186.531C134.092 194.351 140.431 200.69 148.25 200.69Z" fill="#FFB8B8"/>
<path d="M143.139 270.309C142.96 270.309 142.781 270.301 142.601 270.286C141.711 270.211 140.846 269.95 140.064 269.518C139.282 269.086 138.599 268.494 138.062 267.78C137.524 267.066 137.144 266.247 136.945 265.376C136.746 264.504 136.734 263.601 136.909 262.725C136.95 262.521 137.002 262.32 137.064 262.122L116.168 237.407C115.487 236.596 115.086 235.586 115.024 234.528C114.962 233.471 115.243 232.421 115.825 231.536L115.863 231.49L134.673 212.943C135.699 211.931 137.086 211.368 138.528 211.378C139.97 211.388 141.349 211.97 142.362 212.997C143.374 214.024 143.937 215.411 143.927 216.853C143.917 218.295 143.334 219.674 142.307 220.687C142.284 220.71 142.26 220.733 142.236 220.756L128.613 233.707L143.527 257.644C143.809 257.658 144.09 257.693 144.368 257.747C145.911 258.055 147.284 258.925 148.221 260.189C149.158 261.452 149.592 263.019 149.439 264.585C149.286 266.15 148.556 267.603 147.392 268.661C146.228 269.719 144.712 270.306 143.139 270.309H143.139Z" fill="#FFB8B8"/>
<path d="M171.57 383.581H178.637L181.999 356.322L171.568 356.323L171.57 383.581Z" fill="#FFB8B8"/>
<path d="M169.767 381.274L183.685 381.274H183.685C186.037 381.274 188.293 382.208 189.957 383.871C191.62 385.535 192.555 387.791 192.555 390.143V390.432L169.767 390.432L169.767 381.274Z" fill="#2F2E41"/>
<path d="M101.325 373.811L107.398 377.426L124.233 355.724L115.271 350.388L101.325 373.811Z" fill="#FFB8B8"/>
<path d="M100.957 370.906L112.915 378.026L112.916 378.026C114.937 379.23 116.397 381.187 116.976 383.467C117.554 385.747 117.203 388.163 115.999 390.185L115.999 390.185L115.851 390.432L96.2715 378.775L100.957 370.906Z" fill="#2F2E41"/>
<path d="M180.305 373.954H172.391C171.75 373.955 171.132 373.718 170.655 373.289C170.179 372.861 169.878 372.271 169.812 371.634L161.833 296.638C161.813 296.449 161.731 296.272 161.601 296.135C161.47 295.997 161.298 295.906 161.11 295.876C160.923 295.846 160.731 295.878 160.564 295.968C160.396 296.058 160.264 296.2 160.185 296.373L145.792 328.244L120.31 369.795C119.981 370.328 119.47 370.724 118.872 370.911C118.274 371.098 117.629 371.063 117.054 370.813L106.874 366.334C106.538 366.186 106.237 365.968 105.991 365.694C105.745 365.421 105.56 365.098 105.448 364.748C105.336 364.398 105.3 364.027 105.342 363.662C105.384 363.297 105.504 362.944 105.692 362.629L129.117 323.406L136.301 290.358C134.042 276.027 143.728 254.72 143.827 254.506L143.875 254.402L170.557 243.973L170.69 244.137C181.213 278.668 187.625 315.83 182.891 371.577C182.832 372.224 182.535 372.825 182.057 373.265C181.579 373.704 180.954 373.95 180.305 373.954Z" fill="#1F0C66"/>
<path d="M142.8 257.893L142.676 257.632C142.616 257.507 136.683 244.994 132.11 231.62C131.231 229.034 130.899 226.293 131.134 223.572C131.369 220.85 132.168 218.208 133.478 215.811C134.805 213.389 136.62 211.269 138.809 209.586C140.999 207.903 143.513 206.692 146.195 206.032C150.849 204.916 155.75 205.51 160.004 207.704C164.258 209.899 167.581 213.549 169.369 217.989C172.997 227.061 171.841 236.744 170.753 244.359L170.731 244.512L170.593 244.578L142.8 257.893Z" fill="#21D4FD"/>
<path d="M165.418 178.533H142.936V168.733C147.87 166.773 152.699 165.106 155.618 168.733C158.217 168.733 160.709 169.766 162.547 171.604C164.385 173.442 165.418 175.934 165.418 178.533H165.418Z" fill="url(#paint10_linear_390_1368)"/>
<path d="M141.691 167.004C128.251 167.004 124.489 183.851 124.489 193.355C124.489 198.655 126.886 200.551 130.653 201.192L131.983 194.098L135.099 201.498C136.157 201.503 137.268 201.482 138.421 201.461L139.477 199.286L141.833 201.422C151.268 201.436 158.893 202.811 158.893 193.355C158.893 183.851 155.594 167.004 141.691 167.004Z" fill="url(#paint11_linear_390_1368)"/>
<path d="M201.432 185.859C201.517 186.015 201.596 186.176 201.669 186.342C202.03 187.159 202.215 188.043 202.212 188.937C202.208 189.83 202.015 190.713 201.646 191.527C201.277 192.341 200.741 193.067 200.072 193.659C199.402 194.252 198.615 194.696 197.763 194.962C197.564 195.024 197.363 195.075 197.159 195.115L185.489 225.302C185.103 226.289 184.409 227.125 183.511 227.686C182.612 228.247 181.557 228.504 180.501 228.418L180.442 228.407L155.148 220.792C153.768 220.375 152.611 219.428 151.929 218.158C151.248 216.888 151.099 215.4 151.514 214.02C151.93 212.64 152.876 211.481 154.145 210.799C155.415 210.116 156.903 209.965 158.283 210.38C158.315 210.389 158.346 210.399 158.378 210.409L176.275 216.155L190.131 191.591C190.008 191.336 189.904 191.072 189.818 190.803C189.349 189.301 189.454 187.679 190.114 186.251C190.773 184.823 191.94 183.691 193.387 183.075C194.835 182.458 196.46 182.402 197.946 182.917C199.433 183.431 200.675 184.48 201.432 185.859L201.432 185.859Z" fill="#FFB8B8"/>
<path d="M426.288 109.184C416.832 96.53 399.526 93.476 390.926 99.9023C382.326 106.329 380.351 123.791 389.806 136.445C398.559 148.158 414.416 151.352 423.15 146.964C423.122 147.101 423.12 147.242 423.145 147.38L423.638 149.814C423.675 150 423.759 150.173 423.883 150.316C424.006 150.46 424.164 150.57 424.341 150.636C424.519 150.701 424.71 150.721 424.897 150.691C425.084 150.662 425.261 150.586 425.41 150.469L429.58 147.212C429.729 147.095 429.846 146.942 429.92 146.768C429.993 146.593 430.021 146.403 430 146.215C429.98 146.027 429.911 145.847 429.801 145.692C429.692 145.538 429.544 145.414 429.373 145.333L427.13 144.266C427.051 144.231 426.968 144.205 426.883 144.189C433.616 137.071 435.059 120.922 426.288 109.184Z" fill="#21D4FD"/>
<path d="M405.605 104.406C410.23 105.141 414.397 107.624 417.245 111.342C420.093 115.06 421.405 119.729 420.91 124.386C420.808 125.453 422.475 125.446 422.576 124.386C423.053 119.367 421.614 114.352 418.549 110.349C415.483 106.345 411.018 103.649 406.047 102.8C404.999 102.622 404.548 104.227 405.605 104.406Z" fill="white"/>
<path d="M110.681 125.055C118.948 111.594 115.394 94.3838 106.246 88.7655C97.0974 83.1472 80.1402 87.7609 71.8733 101.222C64.2213 113.681 67.1095 129.597 74.4133 136.093C74.2756 136.118 74.1438 136.168 74.025 136.242L71.9446 137.599C71.786 137.702 71.6565 137.844 71.5683 138.012C71.4802 138.18 71.4363 138.367 71.4409 138.556C71.4455 138.745 71.4984 138.93 71.5946 139.093C71.6908 139.257 71.8271 139.392 71.9905 139.488L76.5579 142.16C76.7214 142.255 76.9065 142.308 77.0958 142.312C77.2851 142.315 77.4723 142.271 77.6395 142.182C77.8068 142.093 77.9486 141.963 78.0515 141.804C78.1543 141.645 78.2148 141.463 78.2273 141.274L78.3902 138.795C78.394 138.709 78.3875 138.622 78.371 138.537C87.4717 142.165 103.012 137.542 110.681 125.055Z" fill="url(#paint12_linear_390_1368)"/>
<path d="M107.482 104.07C108.507 108.64 107.739 113.429 105.336 117.449C102.933 121.468 99.0785 124.412 94.5677 125.672C93.5388 125.972 94.1609 127.518 95.1831 127.221C100.024 125.81 104.153 122.621 106.741 118.294C109.329 113.966 110.185 108.82 109.139 103.888C108.917 102.847 107.259 103.022 107.482 104.07Z" fill="url(#paint13_linear_390_1368)"/>
<path d="M524.016 27.5916C523.325 11.81 510.741 -0.456748 500.015 0.0130554C489.29 0.482859 477.827 13.803 478.518 29.5846C479.158 44.1924 490.465 55.7595 500.154 57.0497C500.054 57.1471 499.973 57.2628 499.916 57.3905L498.953 59.6797C498.879 59.8543 498.852 60.0446 498.872 60.2328C498.893 60.421 498.962 60.6008 499.072 60.755C499.181 60.9092 499.329 61.0328 499.5 61.114C499.671 61.1952 499.86 61.2314 500.049 61.2191L505.329 60.8741C505.518 60.8618 505.701 60.8014 505.86 60.6986C506.019 60.5958 506.149 60.4541 506.238 60.2869C506.326 60.1197 506.371 59.9325 506.367 59.7432C506.363 59.5539 506.311 59.3688 506.216 59.2053L504.962 57.0609C504.917 56.9871 504.863 56.919 504.802 56.8578C514.373 54.7654 524.657 42.2312 524.016 27.5916Z" fill="url(#paint14_linear_390_1368)"/>
<path d="M509.612 11.9991C513.021 15.2103 515.067 19.6079 515.328 24.284C515.589 28.9602 514.044 33.558 511.013 37.1285C510.329 37.953 511.71 38.8856 512.39 38.0665C515.61 34.1862 517.244 29.232 516.965 24.1975C516.685 19.1629 514.512 14.4203 510.882 10.9206C510.116 10.1828 508.839 11.2559 509.612 11.9991Z" fill="white"/>
<path d="M425.36 73.1515C421.226 72.8911 417.212 71.6546 413.648 69.5435C410.084 67.4323 407.071 64.5066 404.856 61.0062C404.235 60.0138 403.425 58.9233 403.855 57.7019C404.005 57.2335 404.309 56.8298 404.718 56.5567C405.126 56.2837 405.616 56.1574 406.106 56.1985C407.373 56.3527 408.19 57.5921 408.346 58.7797C408.523 60.1268 407.573 61.1844 406.4 61.6849C403.532 62.908 400.64 61.0178 398.304 59.5093C392.982 56.072 387.128 52.9634 380.68 52.5716C374.713 52.2092 368.315 54.5486 364.997 59.7227C364.416 60.6279 365.858 61.4644 366.435 60.5637C369.727 55.4323 376.38 53.5893 382.165 54.3824C385.613 54.9265 388.942 56.0567 392.008 57.7241C393.598 58.5493 395.14 59.4641 396.651 60.4257C398.089 61.429 399.613 62.3027 401.206 63.0365C403.861 64.1274 407.377 64.0421 409.232 61.5306C410.962 59.1874 409.625 55.2865 406.73 54.6277C406.095 54.5026 405.439 54.5369 404.821 54.7277C404.202 54.9185 403.641 55.2597 403.187 55.7209C402.733 56.182 402.4 56.7486 402.219 57.3699C402.038 57.9912 402.014 58.6477 402.149 59.2807C402.438 60.6605 403.477 62.0108 404.281 63.1386C406.697 66.5379 409.845 69.3518 413.494 71.3731C417.142 73.3943 421.197 74.5714 425.36 74.8177C426.432 74.8707 426.429 73.2044 425.36 73.1515H425.36Z" fill="#CCCCCC"/>
</g>
<defs>
<linearGradient id="paint0_linear_390_1368" x1="238.207" y1="315.251" x2="293.484" y2="315.251" gradientUnits="userSpaceOnUse">
<stop stop-color="#21D4FD"/>
<stop offset="1" stop-color="#B721FF"/>
</linearGradient>
<linearGradient id="paint1_linear_390_1368" x1="238.207" y1="315.251" x2="293.484" y2="315.251" gradientUnits="userSpaceOnUse">
<stop stop-color="#21D4FD"/>
<stop offset="1" stop-color="#B721FF"/>
</linearGradient>
<linearGradient id="paint2_linear_390_1368" x1="238.207" y1="209.518" x2="293.484" y2="209.518" gradientUnits="userSpaceOnUse">
<stop stop-color="#21D4FD"/>
<stop offset="1" stop-color="#B721FF"/>
</linearGradient>
<linearGradient id="paint3_linear_390_1368" x1="202.062" y1="146.528" x2="266.638" y2="146.528" gradientUnits="userSpaceOnUse">
<stop stop-color="#21D4FD"/>
<stop offset="1" stop-color="#B721FF"/>
</linearGradient>
<linearGradient id="paint4_linear_390_1368" x1="259.91" y1="146.528" x2="324.486" y2="146.528" gradientUnits="userSpaceOnUse">
<stop stop-color="#21D4FD"/>
<stop offset="1" stop-color="#B721FF"/>
</linearGradient>
<linearGradient id="paint5_linear_390_1368" x1="483.293" y1="184.27" x2="483.293" y2="271.481" gradientUnits="userSpaceOnUse">
<stop stop-color="#15025E"/>
<stop offset="1" stop-color="#390A68"/>
</linearGradient>
<linearGradient id="paint6_linear_390_1368" x1="517.374" y1="179.089" x2="517.374" y2="272.365" gradientUnits="userSpaceOnUse">
<stop stop-color="#15025E"/>
<stop offset="1" stop-color="#390A68"/>
</linearGradient>
<linearGradient id="paint7_linear_390_1368" x1="493.881" y1="147.225" x2="493.881" y2="168.644" gradientUnits="userSpaceOnUse">
<stop stop-color="#22154B"/>
<stop offset="1" stop-color="#1E1250"/>
</linearGradient>
<linearGradient id="paint8_linear_390_1368" x1="530.599" y1="188.854" x2="530.599" y2="256.203" gradientUnits="userSpaceOnUse">
<stop stop-color="#15025E"/>
<stop offset="1" stop-color="#390A68"/>
</linearGradient>
<linearGradient id="paint9_linear_390_1368" x1="475.812" y1="196.865" x2="475.812" y2="261.196" gradientUnits="userSpaceOnUse">
<stop stop-color="#15025E"/>
<stop offset="1" stop-color="#390A68"/>
</linearGradient>
<linearGradient id="paint10_linear_390_1368" x1="154.177" y1="166.593" x2="154.177" y2="178.533" gradientUnits="userSpaceOnUse">
<stop stop-color="#22154B"/>
<stop offset="1" stop-color="#1E1250"/>
</linearGradient>
<linearGradient id="paint11_linear_390_1368" x1="141.691" y1="167.004" x2="141.691" y2="201.499" gradientUnits="userSpaceOnUse">
<stop stop-color="#22154B"/>
<stop offset="1" stop-color="#1E1250"/>
</linearGradient>
<linearGradient id="paint12_linear_390_1368" x1="67.3545" y1="114.367" x2="115.329" y2="114.367" gradientUnits="userSpaceOnUse">
<stop stop-color="white"/>
<stop offset="1" stop-color="white"/>
</linearGradient>
<linearGradient id="paint13_linear_390_1368" x1="94.04" y1="115.224" x2="109.574" y2="115.224" gradientUnits="userSpaceOnUse">
<stop stop-color="#21D4FD"/>
<stop offset="1" stop-color="#B721FF"/>
</linearGradient>
<linearGradient id="paint14_linear_390_1368" x1="478.488" y1="30.6107" x2="524.045" y2="30.6107" gradientUnits="userSpaceOnUse">
<stop stop-color="#21D4FD"/>
<stop offset="1" stop-color="#B721FF"/>
</linearGradient>
<clipPath id="clip0_390_1368">
<rect width="597.763" height="392" fill="white"/>
</clipPath>
</defs>
</svg>
