<svg width="451" height="392" viewBox="0 0 451 392" fill="none" xmlns="http://www.w3.org/2000/svg">
<g clip-path="url(#clip0_297_305)">
<path d="M406.119 204.003C406.178 252.509 387.413 299.149 353.77 334.118C351.742 336.24 349.659 338.31 347.521 340.33C344.265 343.425 340.898 346.401 337.422 349.256C304.908 376.022 264.317 391.063 222.198 391.952C220.794 391.984 219.386 392 217.972 392C184.381 392 142.131 374.073 103.79 349.256C100.618 347.203 97.4742 345.103 94.3585 342.954C92.9022 341.96 91.4529 340.951 90.0107 339.928C75.223 329.495 61.1866 318.037 48.0049 305.64C39.3743 297.547 31.2811 288.9 23.7768 279.754C-5.68339 243.445 -12.1813 210.728 29.8193 204.003C34.792 203.209 39.6182 202.361 44.2978 201.458C51.0764 200.156 57.5637 198.751 63.7597 197.241C72.1058 195.214 79.947 193.016 87.2834 190.648C89.7512 189.854 92.1625 189.044 94.5174 188.219C129.332 176.001 152.633 160.069 168.494 142.782C171.184 139.856 173.664 136.894 175.934 133.898C179.407 129.336 182.562 124.542 185.376 119.548C189.261 112.608 192.523 105.34 195.126 97.8265L195.269 97.4138C207.889 61.0409 204.049 27.3032 217.972 16.0114C277.485 -32.2617 351.578 36.4837 386.355 117.553C388.108 121.638 389.757 125.747 391.301 129.882C391.995 131.728 392.664 133.579 393.309 135.432C395.003 140.263 396.541 145.107 397.921 149.962C398.451 151.814 398.956 153.665 399.436 155.513C399.949 157.508 400.442 159.497 400.897 161.487C404.281 176.054 406.119 190.42 406.119 204.003Z" fill="white"/>
<path d="M222.198 391.952C220.794 391.984 219.386 392 217.972 392C184.381 392 142.131 374.073 103.79 349.256C100.618 347.203 97.4741 345.103 94.3584 342.954L97.091 326.339L179.816 315.365L221.334 347.087L222.198 391.952Z" fill="#2F2E41"/>
<path d="M226.18 95.2709H214.392C214.027 95.271 213.677 95.416 213.419 95.674C213.16 95.9319 213.015 96.2817 213.015 96.6466V108.43C213.015 108.611 213.051 108.789 213.12 108.956C213.19 109.122 213.291 109.274 213.419 109.401C213.547 109.528 213.699 109.629 213.866 109.698C214.033 109.766 214.211 109.801 214.392 109.801H226.18C226.545 109.801 226.894 109.657 227.152 109.4C227.41 109.143 227.556 108.794 227.557 108.43V96.6466C227.556 96.282 227.411 95.9327 227.153 95.6749C226.895 95.4172 226.545 95.2719 226.18 95.2709Z" fill="url(#paint0_linear_297_305)" fill-opacity="0.25"/>
<path d="M226.18 115.352H214.392C214.027 115.352 213.677 115.497 213.419 115.755C213.16 116.013 213.015 116.363 213.015 116.727V128.511C213.015 128.692 213.051 128.87 213.12 129.037C213.19 129.203 213.291 129.354 213.419 129.482C213.547 129.609 213.699 129.71 213.866 129.778C214.033 129.847 214.211 129.882 214.392 129.882H226.18C226.545 129.882 226.894 129.738 227.152 129.481C227.41 129.224 227.556 128.875 227.557 128.511V116.727C227.556 116.363 227.411 116.013 227.153 115.756C226.895 115.498 226.545 115.353 226.18 115.352Z" fill="#E6E6E6"/>
<path d="M226.18 135.432H214.392C214.027 135.432 213.677 135.577 213.419 135.835C213.16 136.093 213.015 136.443 213.015 136.808V148.587C213.015 148.767 213.05 148.946 213.119 149.114C213.188 149.281 213.29 149.432 213.418 149.56C213.546 149.688 213.697 149.789 213.865 149.858C214.032 149.927 214.211 149.963 214.392 149.962H226.18C226.545 149.962 226.896 149.817 227.154 149.559C227.412 149.301 227.557 148.951 227.557 148.587V136.808C227.556 136.444 227.411 136.094 227.153 135.836C226.895 135.579 226.545 135.433 226.18 135.432Z" fill="#E6E6E6"/>
<path d="M227.536 156.645C227.477 156.329 227.31 156.042 227.062 155.835C226.815 155.629 226.503 155.515 226.18 155.513H214.392C214.027 155.513 213.677 155.658 213.419 155.916C213.16 156.174 213.015 156.524 213.015 156.889V168.667C213.015 168.848 213.05 169.027 213.119 169.194C213.188 169.361 213.29 169.513 213.418 169.641C213.545 169.769 213.697 169.87 213.865 169.939C214.032 170.008 214.211 170.044 214.392 170.043H226.18C226.545 170.043 226.896 169.898 227.154 169.64C227.412 169.382 227.557 169.032 227.557 168.667V156.889C227.558 156.807 227.551 156.726 227.536 156.645Z" fill="#E6E6E6"/>
<path d="M226.715 175.7C226.546 175.629 226.364 175.594 226.18 175.594H214.392C214.211 175.593 214.032 175.629 213.865 175.698C213.697 175.767 213.545 175.868 213.418 175.996C213.29 176.124 213.188 176.276 213.119 176.443C213.05 176.61 213.015 176.789 213.015 176.969V188.748C213.014 188.929 213.049 189.108 213.118 189.275C213.187 189.443 213.289 189.595 213.417 189.723C213.545 189.851 213.697 189.952 213.864 190.021C214.031 190.09 214.211 190.125 214.392 190.124H226.18C226.545 190.124 226.896 189.979 227.154 189.721C227.412 189.463 227.557 189.113 227.557 188.748V176.969C227.557 176.699 227.476 176.434 227.327 176.208C227.177 175.983 226.964 175.806 226.715 175.7Z" fill="#E6E6E6"/>
<path d="M250.943 95.2709H239.155C238.79 95.271 238.439 95.416 238.181 95.674C237.923 95.9319 237.778 96.2817 237.778 96.6466V108.43C237.778 108.611 237.814 108.789 237.883 108.956C237.952 109.122 238.054 109.274 238.182 109.401C238.31 109.528 238.461 109.629 238.628 109.698C238.795 109.766 238.974 109.801 239.155 109.801H250.943C251.307 109.801 251.657 109.657 251.915 109.4C252.173 109.143 252.319 108.794 252.32 108.43V96.6466C252.319 96.282 252.173 95.9327 251.915 95.6749C251.657 95.4172 251.308 95.2719 250.943 95.2709Z" fill="#E6E6E6"/>
<path d="M250.943 115.352H239.155C238.79 115.352 238.439 115.497 238.181 115.755C237.923 116.013 237.778 116.363 237.778 116.727V128.511C237.778 128.692 237.814 128.87 237.883 129.037C237.952 129.203 238.054 129.354 238.182 129.482C238.31 129.609 238.461 129.71 238.628 129.778C238.795 129.847 238.974 129.882 239.155 129.882H250.943C251.307 129.882 251.657 129.738 251.915 129.481C252.173 129.224 252.319 128.875 252.32 128.511V116.727C252.319 116.363 252.173 116.013 251.915 115.756C251.657 115.498 251.308 115.353 250.943 115.352Z" fill="url(#paint1_linear_297_305)"/>
<path d="M250.943 135.432H239.155C238.79 135.432 238.439 135.577 238.181 135.835C237.923 136.093 237.778 136.443 237.778 136.808V148.587C237.777 148.767 237.813 148.946 237.882 149.114C237.951 149.281 238.052 149.432 238.18 149.56C238.308 149.688 238.46 149.789 238.627 149.858C238.795 149.927 238.974 149.963 239.155 149.962H250.943C251.308 149.962 251.658 149.817 251.916 149.559C252.175 149.301 252.32 148.951 252.32 148.587V136.808C252.319 136.444 252.173 136.094 251.915 135.836C251.657 135.579 251.308 135.433 250.943 135.432Z" fill="url(#paint2_linear_297_305)"/>
<path d="M250.943 155.513H239.155C238.866 155.513 238.585 155.604 238.351 155.773C238.117 155.943 237.942 156.181 237.852 156.455C237.803 156.594 237.778 156.741 237.778 156.889V168.667C237.777 168.848 237.813 169.027 237.882 169.194C237.951 169.361 238.052 169.513 238.18 169.641C238.308 169.769 238.46 169.87 238.627 169.939C238.795 170.008 238.974 170.043 239.155 170.043H250.943C251.308 170.043 251.658 169.898 251.916 169.64C252.175 169.382 252.32 169.032 252.32 168.667V156.889C252.319 156.524 252.173 156.175 251.915 155.917C251.657 155.659 251.308 155.514 250.943 155.513Z" fill="url(#paint3_linear_297_305)"/>
<path d="M250.943 175.594H239.155C238.974 175.593 238.795 175.629 238.627 175.698C238.46 175.767 238.308 175.868 238.18 175.996C238.052 176.124 237.951 176.276 237.882 176.443C237.813 176.61 237.777 176.789 237.778 176.969V188.748C237.777 188.929 237.813 189.108 237.882 189.275C237.951 189.442 238.052 189.594 238.18 189.722C238.308 189.85 238.46 189.951 238.627 190.02C238.795 190.089 238.974 190.124 239.155 190.124H250.943C251.308 190.124 251.658 189.979 251.916 189.721C252.175 189.463 252.32 189.113 252.32 188.748V176.969C252.32 176.605 252.175 176.255 251.916 175.997C251.658 175.739 251.308 175.594 250.943 175.594Z" fill="#E6E6E6"/>
<path d="M275.706 95.2709H263.917C263.552 95.271 263.202 95.416 262.944 95.674C262.686 95.9319 262.541 96.2817 262.541 96.6466V108.43C262.541 108.611 262.576 108.789 262.646 108.956C262.715 109.122 262.817 109.274 262.944 109.401C263.072 109.528 263.224 109.629 263.391 109.698C263.558 109.766 263.737 109.801 263.917 109.801H275.706C276.07 109.801 276.42 109.657 276.678 109.4C276.936 109.143 277.081 108.794 277.083 108.43V96.6466C277.082 96.282 276.936 95.9327 276.678 95.6749C276.42 95.4172 276.071 95.2719 275.706 95.2709Z" fill="url(#paint4_linear_297_305)"/>
<path d="M275.706 115.352H263.917C263.552 115.352 263.202 115.497 262.944 115.755C262.686 116.013 262.541 116.363 262.541 116.727V128.511C262.541 128.692 262.576 128.87 262.646 129.037C262.715 129.203 262.817 129.354 262.944 129.482C263.072 129.609 263.224 129.71 263.391 129.778C263.558 129.847 263.737 129.882 263.917 129.882H275.706C276.07 129.882 276.419 129.738 276.678 129.481C276.936 129.224 277.081 128.875 277.083 128.511V116.727C277.082 116.363 276.936 116.013 276.678 115.756C276.42 115.498 276.071 115.353 275.706 115.352Z" fill="url(#paint5_linear_297_305)"/>
<path d="M275.706 135.432H263.917C263.552 135.432 263.202 135.577 262.944 135.835C262.686 136.093 262.541 136.443 262.541 136.808V148.587C262.54 148.767 262.576 148.946 262.645 149.114C262.714 149.281 262.815 149.432 262.943 149.56C263.071 149.688 263.223 149.789 263.39 149.858C263.557 149.927 263.736 149.963 263.917 149.962H275.706C276.071 149.962 276.421 149.817 276.679 149.559C276.937 149.301 277.082 148.951 277.083 148.587V136.808C277.082 136.444 276.936 136.094 276.678 135.836C276.42 135.579 276.071 135.433 275.706 135.432Z" fill="#E6E6E6"/>
<path d="M275.706 155.513H263.917C263.552 155.513 263.202 155.658 262.944 155.916C262.686 156.174 262.541 156.524 262.541 156.889V168.667C262.54 168.848 262.576 169.027 262.645 169.194C262.714 169.361 262.815 169.513 262.943 169.641C263.071 169.769 263.223 169.87 263.39 169.939C263.557 170.008 263.736 170.044 263.917 170.043H275.706C276.071 170.043 276.421 169.898 276.679 169.64C276.937 169.382 277.082 169.032 277.083 168.667V156.889C277.082 156.524 276.936 156.175 276.678 155.917C276.42 155.659 276.071 155.514 275.706 155.513Z" fill="url(#paint6_linear_297_305)"/>
<path d="M275.706 175.594H263.917C263.736 175.593 263.557 175.629 263.39 175.698C263.223 175.767 263.071 175.868 262.943 175.996C262.815 176.124 262.714 176.276 262.645 176.443C262.576 176.61 262.54 176.789 262.541 176.969V188.748C262.54 188.929 262.576 189.108 262.645 189.275C262.714 189.442 262.815 189.594 262.943 189.722C263.071 189.85 263.223 189.951 263.39 190.02C263.557 190.089 263.736 190.124 263.917 190.124H275.706C276.071 190.124 276.421 189.979 276.679 189.721C276.937 189.463 277.082 189.113 277.083 188.748V176.969C277.082 176.605 276.937 176.255 276.679 175.997C276.421 175.739 276.071 175.594 275.706 175.594Z" fill="url(#paint7_linear_297_305)"/>
<path d="M300.469 95.2709H288.681C288.315 95.271 287.965 95.416 287.707 95.674C287.449 95.9319 287.304 96.2817 287.304 96.6466V108.43C287.304 108.611 287.34 108.789 287.409 108.956C287.478 109.122 287.58 109.274 287.708 109.401C287.836 109.528 287.987 109.629 288.154 109.698C288.321 109.766 288.5 109.801 288.681 109.801H300.469C300.833 109.801 301.183 109.657 301.441 109.4C301.699 109.143 301.845 108.794 301.846 108.43V96.6466C301.845 96.282 301.699 95.9327 301.441 95.6749C301.183 95.4172 300.834 95.2719 300.469 95.2709Z" fill="url(#paint8_linear_297_305)"/>
<path d="M300.469 115.352H288.681C288.315 115.352 287.965 115.497 287.707 115.755C287.449 116.013 287.304 116.362 287.304 116.727V128.511C287.304 128.692 287.34 128.87 287.409 129.037C287.478 129.203 287.58 129.354 287.708 129.482C287.836 129.609 287.987 129.71 288.154 129.778C288.321 129.847 288.5 129.882 288.681 129.882H300.469C300.833 129.882 301.183 129.738 301.441 129.481C301.699 129.224 301.845 128.875 301.846 128.511V116.727C301.845 116.363 301.699 116.013 301.441 115.756C301.183 115.498 300.834 115.353 300.469 115.352Z" fill="url(#paint9_linear_297_305)" fill-opacity="0.25"/>
<path d="M300.469 135.432H288.681C288.315 135.432 287.965 135.577 287.707 135.835C287.449 136.093 287.304 136.443 287.304 136.808V148.587C287.303 148.767 287.339 148.946 287.408 149.114C287.477 149.281 287.578 149.432 287.706 149.56C287.834 149.688 287.986 149.789 288.153 149.858C288.32 149.927 288.5 149.963 288.681 149.962H300.469C300.834 149.962 301.184 149.817 301.442 149.559C301.701 149.301 301.846 148.951 301.846 148.587V136.808C301.845 136.444 301.699 136.094 301.441 135.836C301.183 135.579 300.834 135.433 300.469 135.432Z" fill="url(#paint10_linear_297_305)" fill-opacity="0.25"/>
<path d="M300.469 155.513H288.681C288.315 155.513 287.965 155.658 287.707 155.916C287.449 156.174 287.304 156.524 287.304 156.889V168.667C287.303 168.848 287.339 169.027 287.408 169.194C287.477 169.361 287.578 169.513 287.706 169.641C287.834 169.769 287.986 169.87 288.153 169.939C288.32 170.008 288.5 170.044 288.681 170.043H300.469C300.834 170.043 301.184 169.898 301.442 169.64C301.701 169.382 301.846 169.032 301.846 168.667V156.889C301.845 156.524 301.699 156.175 301.441 155.917C301.183 155.659 300.834 155.514 300.469 155.513Z" fill="#E6E6E6"/>
<path d="M300.469 175.594H288.681C288.5 175.593 288.32 175.629 288.153 175.698C287.986 175.767 287.834 175.868 287.706 175.996C287.578 176.124 287.477 176.275 287.408 176.443C287.339 176.61 287.303 176.789 287.304 176.969V188.748C287.303 188.929 287.339 189.108 287.408 189.275C287.477 189.442 287.578 189.594 287.706 189.722C287.834 189.85 287.986 189.951 288.153 190.02C288.32 190.089 288.5 190.124 288.681 190.124H300.469C300.834 190.124 301.184 189.979 301.442 189.721C301.701 189.463 301.846 189.113 301.846 188.748V176.969C301.846 176.605 301.701 176.255 301.442 175.997C301.184 175.739 300.834 175.594 300.469 175.594Z" fill="url(#paint11_linear_297_305)"/>
<path d="M325.232 95.2709H313.438C313.074 95.2721 312.725 95.4176 312.468 95.6755C312.211 95.9334 312.066 96.2826 312.066 96.6466V108.43C312.066 108.794 312.211 109.142 312.468 109.399C312.725 109.656 313.074 109.801 313.438 109.801H325.232C325.596 109.801 325.945 109.657 326.204 109.4C326.462 109.143 326.607 108.794 326.609 108.43V96.6466C326.607 96.282 326.462 95.9327 326.204 95.6749C325.946 95.4172 325.596 95.2719 325.232 95.2709Z" fill="url(#paint12_linear_297_305)" fill-opacity="0.25"/>
<path d="M325.232 115.352H313.438C313.074 115.353 312.725 115.498 312.468 115.756C312.211 116.014 312.066 116.363 312.066 116.727V128.511C312.066 128.875 312.211 129.223 312.468 129.48C312.725 129.737 313.074 129.882 313.438 129.882H325.232C325.596 129.882 325.945 129.738 326.204 129.481C326.462 129.224 326.607 128.875 326.609 128.511V116.727C326.608 116.363 326.462 116.013 326.204 115.756C325.946 115.498 325.596 115.353 325.232 115.352Z" fill="url(#paint13_linear_297_305)" fill-opacity="0.25"/>
<path d="M325.232 135.432H313.438C313.074 135.434 312.725 135.579 312.468 135.837C312.211 136.095 312.066 136.444 312.066 136.808V148.587C312.066 148.767 312.101 148.946 312.17 149.113C312.238 149.279 312.339 149.431 312.467 149.559C312.594 149.686 312.745 149.788 312.912 149.857C313.079 149.926 313.258 149.962 313.438 149.962H325.232C325.597 149.962 325.947 149.817 326.205 149.559C326.463 149.301 326.608 148.951 326.609 148.587V136.808C326.608 136.444 326.462 136.094 326.204 135.836C325.946 135.579 325.596 135.433 325.232 135.432Z" fill="url(#paint14_linear_297_305)" fill-opacity="0.25"/>
<path d="M325.232 155.513H313.438C313.074 155.514 312.725 155.66 312.468 155.918C312.211 156.176 312.066 156.525 312.066 156.889V168.667C312.066 168.848 312.101 169.026 312.17 169.193C312.238 169.36 312.339 169.512 312.467 169.639C312.594 169.767 312.745 169.869 312.912 169.938C313.079 170.007 313.258 170.043 313.438 170.043H325.232C325.597 170.043 325.947 169.898 326.205 169.64C326.463 169.382 326.608 169.032 326.609 168.667V156.889C326.608 156.524 326.462 156.175 326.204 155.917C325.946 155.659 325.596 155.514 325.232 155.513Z" fill="url(#paint15_linear_297_305)"/>
<path d="M325.232 175.594H313.438C313.258 175.594 313.079 175.63 312.912 175.699C312.745 175.768 312.594 175.87 312.467 175.997C312.339 176.125 312.238 176.277 312.17 176.444C312.101 176.61 312.066 176.789 312.066 176.969V188.748C312.066 188.928 312.101 189.107 312.17 189.274C312.238 189.441 312.339 189.592 312.467 189.72C312.594 189.848 312.745 189.949 312.912 190.019C313.079 190.088 313.258 190.124 313.438 190.124H325.232C325.597 190.124 325.947 189.979 326.205 189.721C326.463 189.463 326.608 189.113 326.609 188.748V176.969C326.608 176.605 326.463 176.255 326.205 175.997C325.947 175.739 325.597 175.594 325.232 175.594Z" fill="#E6E6E6"/>
<path d="M349.994 95.2709H338.201C337.836 95.2721 337.487 95.4176 337.23 95.6755C336.973 95.9334 336.829 96.2826 336.829 96.6466V108.43C336.829 108.794 336.974 109.142 337.231 109.399C337.488 109.656 337.837 109.801 338.201 109.801H349.994C350.359 109.801 350.708 109.657 350.966 109.4C351.224 109.143 351.37 108.794 351.371 108.43V96.6466C351.37 96.282 351.225 95.9327 350.967 95.675C350.709 95.4172 350.359 95.2719 349.994 95.2709Z" fill="url(#paint16_linear_297_305)" fill-opacity="0.25"/>
<path d="M349.994 115.352H338.201C337.836 115.353 337.487 115.498 337.23 115.756C336.973 116.014 336.829 116.363 336.829 116.727V128.511C336.829 128.875 336.974 129.223 337.231 129.48C337.488 129.737 337.837 129.882 338.201 129.882H349.994C350.359 129.882 350.708 129.738 350.966 129.481C351.224 129.224 351.37 128.875 351.371 128.511V116.727C351.37 116.363 351.225 116.013 350.967 115.756C350.709 115.498 350.359 115.353 349.994 115.352Z" fill="url(#paint17_linear_297_305)" fill-opacity="0.25"/>
<path d="M349.994 135.432H338.201C337.836 135.434 337.487 135.579 337.23 135.837C336.973 136.095 336.829 136.444 336.829 136.808V148.587C336.829 148.767 336.864 148.946 336.932 149.113C337.001 149.279 337.102 149.431 337.229 149.559C337.357 149.686 337.508 149.788 337.675 149.857C337.841 149.926 338.02 149.962 338.201 149.962H349.994C350.359 149.962 350.709 149.817 350.968 149.559C351.226 149.301 351.371 148.951 351.371 148.587V136.808C351.37 136.444 351.225 136.094 350.967 135.836C350.709 135.579 350.359 135.433 349.994 135.432Z" fill="url(#paint18_linear_297_305)"/>
<path d="M349.994 155.513H338.201C337.836 155.514 337.487 155.66 337.23 155.918C336.973 156.176 336.829 156.525 336.829 156.889V168.667C336.829 168.848 336.864 169.026 336.932 169.193C337.001 169.36 337.102 169.512 337.229 169.639C337.357 169.767 337.508 169.869 337.675 169.938C337.841 170.007 338.02 170.043 338.201 170.043H349.994C350.359 170.043 350.71 169.898 350.968 169.64C351.226 169.382 351.371 169.032 351.371 168.667V156.889C351.37 156.524 351.225 156.175 350.967 155.917C350.709 155.659 350.359 155.514 349.994 155.513Z" fill="#E6E6E6"/>
<path d="M349.994 175.594H338.201C338.02 175.594 337.841 175.63 337.675 175.699C337.508 175.768 337.357 175.87 337.229 175.997C337.102 176.125 337.001 176.277 336.932 176.444C336.864 176.61 336.829 176.789 336.829 176.969V188.748C336.829 188.928 336.864 189.107 336.932 189.274C337.001 189.441 337.102 189.592 337.229 189.72C337.357 189.848 337.508 189.949 337.675 190.019C337.841 190.088 338.02 190.124 338.201 190.124H349.994C350.359 190.124 350.71 189.979 350.968 189.721C351.226 189.463 351.371 189.113 351.371 188.748V176.969C351.371 176.605 351.226 176.255 350.968 175.997C350.71 175.739 350.359 175.594 349.994 175.594Z" fill="url(#paint19_linear_297_305)" fill-opacity="0.25"/>
<path d="M374.757 95.2709H362.964C362.6 95.2721 362.251 95.4176 361.994 95.6755C361.736 95.9334 361.592 96.2826 361.592 96.6466V108.43C361.592 108.794 361.737 109.142 361.994 109.399C362.251 109.656 362.6 109.801 362.964 109.801H374.757C375.122 109.801 375.471 109.657 375.729 109.4C375.987 109.143 376.133 108.794 376.134 108.43V96.6466C376.133 96.282 375.988 95.9327 375.73 95.675C375.472 95.4172 375.122 95.2719 374.757 95.2709Z" fill="url(#paint20_linear_297_305)"/>
<path d="M374.757 115.352H362.964C362.6 115.353 362.251 115.498 361.994 115.756C361.736 116.014 361.592 116.363 361.592 116.727V128.511C361.592 128.875 361.737 129.223 361.994 129.48C362.251 129.737 362.6 129.882 362.964 129.882H374.757C375.122 129.882 375.471 129.738 375.729 129.481C375.987 129.224 376.133 128.875 376.134 128.511V116.727C376.133 116.363 375.988 116.013 375.73 115.756C375.472 115.498 375.122 115.353 374.757 115.352Z" fill="url(#paint21_linear_297_305)"/>
<path d="M374.757 135.432H362.964C362.6 135.434 362.251 135.579 361.994 135.837C361.736 136.095 361.592 136.444 361.592 136.808V148.587C361.592 148.767 361.627 148.946 361.696 149.113C361.764 149.279 361.865 149.431 361.993 149.559C362.12 149.686 362.271 149.788 362.438 149.857C362.605 149.926 362.783 149.962 362.964 149.962H374.757C375.123 149.962 375.473 149.817 375.731 149.559C375.989 149.301 376.134 148.951 376.134 148.587V136.808C376.133 136.444 375.988 136.094 375.73 135.836C375.472 135.579 375.122 135.433 374.757 135.432Z" fill="#E6E6E6"/>
<path d="M374.757 155.513H362.964C362.6 155.514 362.251 155.66 361.994 155.918C361.736 156.176 361.592 156.525 361.592 156.889V168.667C361.592 168.848 361.627 169.026 361.696 169.193C361.764 169.36 361.865 169.512 361.993 169.639C362.12 169.767 362.271 169.869 362.438 169.938C362.605 170.007 362.783 170.043 362.964 170.043H374.757C375.123 170.043 375.473 169.898 375.731 169.64C375.989 169.382 376.134 169.032 376.134 168.667V156.889C376.133 156.524 375.988 156.175 375.73 155.917C375.472 155.659 375.122 155.514 374.757 155.513Z" fill="url(#paint22_linear_297_305)"/>
<path d="M374.757 175.594H362.964C362.783 175.594 362.605 175.63 362.438 175.699C362.271 175.768 362.12 175.87 361.993 175.997C361.865 176.125 361.764 176.277 361.696 176.444C361.627 176.61 361.592 176.789 361.592 176.969V188.748C361.592 188.928 361.627 189.107 361.696 189.274C361.764 189.441 361.865 189.592 361.993 189.72C362.12 189.848 362.271 189.949 362.438 190.019C362.605 190.088 362.783 190.124 362.964 190.124H374.757C375.123 190.124 375.473 189.979 375.731 189.721C375.989 189.463 376.134 189.113 376.134 188.748V176.969C376.134 176.605 375.989 176.255 375.731 175.997C375.473 175.739 375.123 175.594 374.757 175.594Z" fill="url(#paint23_linear_297_305)"/>
<path d="M399.52 95.2709H387.727C387.362 95.2721 387.013 95.4176 386.756 95.6755C386.499 95.9334 386.355 96.2826 386.355 96.6466V108.43C386.355 108.794 386.5 109.142 386.757 109.399C387.014 109.656 387.363 109.801 387.727 109.801H399.52C399.884 109.801 400.234 109.657 400.492 109.4C400.75 109.143 400.896 108.794 400.897 108.43V96.6466C400.896 96.282 400.751 95.9327 400.493 95.675C400.235 95.4172 399.885 95.2719 399.52 95.2709Z" fill="url(#paint24_linear_297_305)"/>
<path d="M399.52 115.352H387.727C387.362 115.353 387.013 115.498 386.756 115.756C386.499 116.014 386.355 116.363 386.355 116.727V128.511C386.355 128.875 386.5 129.223 386.757 129.48C387.014 129.737 387.363 129.882 387.727 129.882H399.52C399.884 129.882 400.234 129.738 400.492 129.481C400.75 129.224 400.896 128.875 400.897 128.511V116.727C400.896 116.363 400.751 116.013 400.493 115.756C400.235 115.498 399.885 115.353 399.52 115.352Z" fill="url(#paint25_linear_297_305)"/>
<path d="M399.52 135.432H387.727C387.362 135.434 387.013 135.579 386.756 135.837C386.499 136.095 386.355 136.444 386.355 136.808V148.587C386.354 148.767 386.39 148.946 386.458 149.113C386.527 149.279 386.628 149.431 386.755 149.559C386.883 149.686 387.034 149.788 387.201 149.857C387.367 149.926 387.546 149.962 387.727 149.962H399.52C399.885 149.962 400.235 149.817 400.494 149.559C400.752 149.301 400.897 148.951 400.897 148.587V136.808C400.896 136.444 400.751 136.094 400.493 135.836C400.235 135.579 399.885 135.433 399.52 135.432Z" fill="#E6E6E6"/>
<path d="M399.52 155.513H387.727C387.362 155.514 387.013 155.66 386.756 155.918C386.499 156.176 386.355 156.525 386.355 156.889V168.667C386.354 168.848 386.39 169.026 386.458 169.193C386.527 169.36 386.628 169.512 386.755 169.639C386.883 169.767 387.034 169.869 387.201 169.938C387.367 170.007 387.546 170.043 387.727 170.043H399.52C399.885 170.043 400.235 169.898 400.494 169.64C400.752 169.382 400.897 169.032 400.897 168.667V156.889C400.896 156.524 400.751 156.175 400.493 155.917C400.235 155.659 399.885 155.514 399.52 155.513Z" fill="url(#paint26_linear_297_305)"/>
<path d="M399.52 175.594H387.727C387.546 175.594 387.367 175.63 387.201 175.699C387.034 175.768 386.883 175.87 386.755 175.997C386.628 176.125 386.527 176.277 386.458 176.444C386.39 176.61 386.354 176.789 386.355 176.969V188.748C386.354 188.928 386.39 189.107 386.458 189.274C386.527 189.441 386.628 189.592 386.755 189.72C386.883 189.848 387.034 189.949 387.201 190.019C387.367 190.088 387.546 190.124 387.727 190.124H399.52C399.885 190.124 400.235 189.979 400.494 189.721C400.752 189.463 400.897 189.113 400.897 188.748V176.969C400.897 176.605 400.752 176.255 400.494 175.997C400.235 175.739 399.885 175.594 399.52 175.594Z" fill="url(#paint27_linear_297_305)"/>
<path d="M424.283 95.2709H412.49C412.125 95.2721 411.777 95.4176 411.519 95.6755C411.262 95.9334 411.118 96.2826 411.118 96.6466V108.43C411.118 108.794 411.263 109.142 411.52 109.399C411.777 109.656 412.126 109.801 412.49 109.801H424.283C424.648 109.801 424.997 109.657 425.255 109.4C425.513 109.143 425.659 108.794 425.66 108.43V96.6466C425.659 96.282 425.514 95.9327 425.256 95.675C424.998 95.4172 424.648 95.2719 424.283 95.2709Z" fill="#E6E6E6"/>
<path d="M424.283 115.352H412.49C412.125 115.353 411.777 115.498 411.519 115.756C411.262 116.014 411.118 116.363 411.118 116.727V128.511C411.118 128.875 411.263 129.223 411.52 129.48C411.777 129.737 412.126 129.882 412.49 129.882H424.283C424.648 129.882 424.997 129.738 425.255 129.481C425.513 129.224 425.659 128.875 425.66 128.511V116.727C425.659 116.363 425.514 116.013 425.256 115.756C424.998 115.498 424.648 115.353 424.283 115.352Z" fill="url(#paint28_linear_297_305)"/>
<path d="M424.283 135.432H412.49C412.125 135.434 411.777 135.579 411.519 135.837C411.262 136.095 411.118 136.444 411.118 136.808V148.587C411.118 148.767 411.153 148.946 411.221 149.113C411.29 149.279 411.391 149.431 411.518 149.559C411.646 149.686 411.797 149.788 411.964 149.857C412.131 149.926 412.309 149.962 412.49 149.962H424.283C424.648 149.962 424.999 149.817 425.257 149.559C425.515 149.301 425.66 148.951 425.66 148.587V136.808C425.659 136.444 425.514 136.094 425.256 135.836C424.998 135.579 424.648 135.433 424.283 135.432Z" fill="url(#paint29_linear_297_305)"/>
<path d="M424.283 155.513H412.49C412.125 155.514 411.777 155.66 411.519 155.918C411.262 156.176 411.118 156.525 411.118 156.889V168.667C411.118 168.848 411.153 169.026 411.221 169.193C411.29 169.36 411.391 169.512 411.518 169.639C411.646 169.767 411.797 169.869 411.964 169.938C412.131 170.007 412.309 170.043 412.49 170.043H424.283C424.648 170.043 424.999 169.898 425.257 169.64C425.515 169.382 425.66 169.032 425.66 168.667V156.889C425.659 156.524 425.514 156.175 425.256 155.917C424.998 155.659 424.648 155.514 424.283 155.513Z" fill="url(#paint30_linear_297_305)"/>
<path d="M424.283 175.594H412.49C412.309 175.594 412.131 175.63 411.964 175.699C411.797 175.768 411.646 175.87 411.518 175.997C411.391 176.125 411.29 176.277 411.221 176.444C411.153 176.61 411.118 176.789 411.118 176.969V188.748C411.118 188.928 411.153 189.107 411.221 189.274C411.29 189.441 411.391 189.592 411.518 189.72C411.646 189.848 411.797 189.949 411.964 190.019C412.131 190.088 412.309 190.124 412.49 190.124H424.283C424.648 190.124 424.999 189.979 425.257 189.721C425.515 189.463 425.66 189.113 425.66 188.748V176.969C425.66 176.605 425.515 176.255 425.257 175.997C424.999 175.739 424.648 175.594 424.283 175.594Z" fill="#E6E6E6"/>
<path d="M449.046 95.2709H437.253C436.888 95.2721 436.539 95.4176 436.282 95.6755C436.025 95.9334 435.881 96.2826 435.881 96.6466V108.43C435.881 108.794 436.025 109.142 436.283 109.399C436.54 109.656 436.889 109.801 437.253 109.801H449.046C449.41 109.801 449.76 109.657 450.018 109.4C450.276 109.143 450.422 108.794 450.423 108.43V96.6466C450.422 96.282 450.277 95.9327 450.019 95.675C449.761 95.4172 449.411 95.2719 449.046 95.2709Z" fill="#E6E6E6"/>
<path d="M449.046 115.352H437.253C436.888 115.353 436.539 115.498 436.282 115.756C436.025 116.014 435.881 116.363 435.881 116.727V128.511C435.881 128.875 436.025 129.223 436.283 129.48C436.54 129.737 436.889 129.882 437.253 129.882H449.046C449.41 129.882 449.76 129.738 450.018 129.481C450.276 129.224 450.422 128.875 450.423 128.511V116.727C450.422 116.363 450.277 116.013 450.019 115.756C449.761 115.498 449.411 115.353 449.046 115.352Z" fill="#E6E6E6"/>
<path d="M449.046 135.432H437.253C436.888 135.434 436.539 135.579 436.282 135.837C436.025 136.095 435.881 136.444 435.881 136.808V148.587C435.88 148.767 435.915 148.946 435.984 149.113C436.053 149.279 436.154 149.431 436.281 149.559C436.409 149.686 436.56 149.788 436.727 149.857C436.893 149.926 437.072 149.962 437.253 149.962H449.046C449.411 149.962 449.761 149.817 450.02 149.559C450.278 149.301 450.423 148.951 450.423 148.587V136.808C450.422 136.444 450.277 136.094 450.019 135.836C449.761 135.579 449.411 135.433 449.046 135.432Z" fill="url(#paint31_linear_297_305)"/>
<path d="M449.046 155.513H437.253C436.888 155.514 436.539 155.66 436.282 155.918C436.025 156.176 435.881 156.525 435.881 156.889V168.667C435.88 168.848 435.915 169.026 435.984 169.193C436.053 169.36 436.154 169.512 436.281 169.639C436.409 169.767 436.56 169.869 436.727 169.938C436.893 170.007 437.072 170.043 437.253 170.043H449.046C449.411 170.043 449.761 169.898 450.02 169.64C450.278 169.382 450.423 169.032 450.423 168.667V156.889C450.422 156.524 450.277 156.175 450.019 155.917C449.761 155.659 449.411 155.514 449.046 155.513Z" fill="#E6E6E6"/>
<path d="M449.046 175.594H437.253C437.072 175.594 436.893 175.63 436.727 175.699C436.56 175.768 436.409 175.87 436.281 175.997C436.154 176.125 436.053 176.277 435.984 176.444C435.915 176.61 435.88 176.789 435.881 176.969V188.748C435.88 188.928 435.915 189.107 435.984 189.274C436.053 189.441 436.154 189.592 436.281 189.72C436.409 189.848 436.56 189.949 436.727 190.019C436.893 190.088 437.072 190.124 437.253 190.124H449.046C449.411 190.124 449.761 189.979 450.02 189.721C450.278 189.463 450.423 189.113 450.423 188.748V176.969C450.423 176.605 450.278 176.255 450.02 175.997C449.761 175.739 449.411 175.594 449.046 175.594Z" fill="#E6E6E6"/>
<path d="M177.987 349.257H177.659L177.939 349.22L177.987 349.257Z" fill="#2F2E41"/>
<path d="M149.771 129.667C169.754 129.667 185.953 113.482 185.953 93.5158C185.953 73.5498 169.754 57.3642 149.771 57.3642C129.789 57.3642 113.59 73.5498 113.59 93.5158C113.59 113.482 129.789 129.667 149.771 129.667Z" fill="#FCD8BB"/>
<path d="M181.456 67.01C181.456 67.01 190.92 48.9343 170.1 47.291C170.1 47.291 152.352 31.204 134.261 44.35C134.261 44.35 124.393 44.35 118.997 55.5072C118.997 55.5072 111.236 52.5663 109.531 60.437C109.531 60.437 103.852 76.8696 109.531 91.6589C115.21 106.448 117.096 108.091 117.096 108.091C117.096 108.091 107.764 77.0849 130.478 75.4416C153.192 73.7983 178.61 59.6154 180.502 77.6912C182.395 95.7669 185.244 100.221 185.244 100.221C185.244 100.221 203.223 74.4047 181.456 67.01Z" fill="#2F2E41"/>
<path d="M243.365 182.61L243.248 183.224L241.94 190.124L232.9 237.852L232.366 240.662L231.243 246.604L229.707 254.71L226.302 272.674L225.328 277.823L224.962 279.754L224.835 280.432L223.824 285.76L223.516 287.369L221.049 305.64L218.893 321.561L226.106 328.768L221.806 333.065L218.983 349.219L218.988 349.256H103.79C99.13 346.24 94.5368 343.131 90.0108 339.928L90.9587 332.837C90.9587 332.837 94.2208 320.175 92.8492 318.662C91.483 317.148 88.4855 314.444 88.4855 314.444L92.2614 305.64L92.7857 304.417L91.9066 286.199L91.8855 285.76L91.5942 279.754L91.5571 278.982L91.4988 277.823L90.3814 254.71L90.3603 254.329L90.0214 247.323L89.7036 240.662L89.5659 237.852L88.2049 209.739L87.2835 190.648L86.4785 174.027L89.7142 172.932L124.322 161.18L138.657 142.56L168.494 142.782L183.099 142.893L207.47 165.477L213.015 168.122L213.057 168.143L217.034 170.043L227.118 174.853L237.778 179.943L243.248 182.552L243.365 182.61Z" fill="#EDEDED"/>
<path d="M142.513 295.021C140.327 295.867 137.981 296.224 135.642 296.067C133.302 295.909 131.026 295.241 128.973 294.11C126.92 292.978 125.14 291.411 123.759 289.517C122.377 287.624 121.429 285.451 120.979 283.152L64.5479 275.153L84.1648 252.981L134.745 263.976C138.661 263.477 142.624 264.431 145.883 266.656C149.143 268.882 151.472 272.224 152.429 276.051C153.387 279.878 152.906 283.922 151.079 287.418C149.251 290.915 146.203 293.62 142.513 295.021V295.021Z" fill="#FFB6B6"/>
<path d="M117.353 254.71C116.307 253.386 114.827 252.473 113.174 252.133L90.0213 247.323L87.6436 246.831C86.2617 246.543 84.9563 245.967 83.8128 245.14C82.6693 244.313 81.7135 243.254 81.0079 242.032C80.276 240.75 79.8332 239.323 79.7105 237.852C79.6001 236.514 79.7604 235.168 80.1818 233.894L88.2049 209.739L93.4105 194.066C94.0414 192.176 94.4138 190.209 94.5174 188.219C94.8074 182.712 93.1022 177.285 89.7141 172.932C86.7354 169.106 82.604 166.339 77.9303 165.039C73.2565 163.739 68.2883 163.976 63.7597 165.715C63.6273 165.762 63.4896 165.815 63.3572 165.868C60.1095 167.164 57.2078 169.197 54.8816 171.806C52.5554 174.415 50.8683 177.528 49.9537 180.901L44.2978 201.458L32.6313 243.837C31.4634 248.082 31.2275 252.53 31.9396 256.876C32.6518 261.221 34.2952 265.362 36.7574 269.014C39.2196 272.666 42.4424 275.743 46.2053 278.035C49.9682 280.328 54.1824 281.78 58.5593 282.294L91.9066 286.199L107.338 288.009C109.123 288.223 110.923 287.758 112.379 286.706C113.835 285.653 114.842 284.091 115.197 282.331C115.222 282.235 115.242 282.138 115.255 282.04L115.626 279.754L118.767 260.504L118.798 260.308C118.962 259.326 118.918 258.321 118.669 257.356C118.42 256.392 117.971 255.491 117.353 254.71Z" fill="url(#paint32_linear_297_305)"/>
<path d="M178.457 295.638C180.741 296.167 183.114 296.19 185.408 295.705C187.702 295.22 189.861 294.237 191.734 292.828C193.607 291.418 195.148 289.616 196.248 287.547C197.348 285.478 197.981 283.193 198.102 280.853L252.84 264.983L230.289 245.796L181.767 263.809C177.819 263.867 174.03 265.369 171.118 268.031C168.205 270.694 166.371 274.331 165.963 278.255C165.555 282.178 166.602 286.115 168.904 289.318C171.207 292.522 174.606 294.771 178.457 295.638V295.638Z" fill="#FFB6B6"/>
<path d="M280.017 229.481L253.983 169.615C251.853 164.7 248.05 160.697 243.248 158.317C241.764 157.587 240.205 157.02 238.599 156.624C238.35 156.561 238.101 156.502 237.852 156.455C234.446 155.712 230.913 155.777 227.536 156.645C224.449 157.438 221.565 158.871 219.07 160.852C216.575 162.834 214.526 165.318 213.057 168.144C213.041 168.167 213.027 168.192 213.015 168.218C211.374 171.39 210.501 174.902 210.467 178.473C210.433 182.043 211.239 185.572 212.819 188.775L213.142 189.42L231.54 226.338C232.168 227.6 232.522 228.981 232.578 230.39C232.635 231.799 232.392 233.203 231.867 234.512C231.342 235.821 230.546 237.004 229.531 237.983C228.517 238.963 227.306 239.717 225.979 240.196L224.687 240.662L201.449 249.048C199.705 249.67 198.271 250.944 197.448 252.601C196.626 254.258 196.478 256.169 197.038 257.933L197.096 258.118L203.61 278.945C203.641 279.04 203.673 279.135 203.71 279.23C203.768 279.41 203.838 279.585 203.922 279.754C204.614 281.306 205.838 282.559 207.373 283.29C208.908 284.02 210.653 284.179 212.295 283.739L224.835 280.431L227.393 279.754L259.776 271.209C264.037 270.084 268.005 268.052 271.407 265.252C274.809 262.453 277.566 258.952 279.488 254.989C281.41 251.027 282.452 246.696 282.544 242.293C282.635 237.89 281.773 233.52 280.017 229.481L280.017 229.481Z" fill="url(#paint33_linear_297_305)"/>
<path d="M23.7769 279.754C31.2812 288.9 39.3743 297.547 48.0049 305.64H287.357C289.663 305.643 291.873 306.561 293.503 308.19C295.133 309.82 296.05 312.029 296.052 314.333L296.396 374.935C311.121 368.176 324.91 359.545 337.423 349.256C340.897 346.404 344.263 343.429 347.521 340.33C349.656 338.309 351.739 336.238 353.77 334.118C369.003 318.262 381.338 299.863 390.216 279.754H23.7769Z" fill="url(#paint34_linear_297_305)"/>
<path d="M353.771 334.118C351.742 336.24 349.659 338.31 347.522 340.33H296.571V334.118H353.771Z" fill="white"/>
<path d="M240.691 136.624L240.697 136.637L240.704 136.649C240.734 136.701 240.749 136.76 240.748 136.82L240.748 136.827V136.835V238.162H66.2598V136.836C66.26 136.721 66.3059 136.61 66.3881 136.527C66.47 136.445 66.5815 136.399 66.6983 136.398H240.309H240.31C240.388 136.398 240.465 136.419 240.532 136.459C240.599 136.499 240.654 136.556 240.691 136.624Z" fill="white" stroke="#EDEDED" stroke-width="5"/>
<path d="M63.6025 237.851V250.663C63.6025 251.194 63.7072 251.72 63.9107 252.211C64.1141 252.702 64.4123 253.147 64.7881 253.523C65.164 253.899 65.6103 254.197 66.1014 254.4C66.5925 254.603 67.1189 254.708 67.6505 254.708H133.899V279.993H133.018C132.949 279.993 132.881 280.007 132.817 280.033C132.753 280.06 132.695 280.098 132.647 280.147C132.598 280.196 132.559 280.254 132.533 280.318C132.506 280.381 132.493 280.45 132.493 280.519V282.277C132.493 282.346 132.506 282.415 132.533 282.479C132.559 282.542 132.598 282.6 132.647 282.649C132.695 282.698 132.753 282.736 132.817 282.763C132.881 282.789 132.949 282.803 133.018 282.803H174.144C174.213 282.803 174.282 282.789 174.346 282.763C174.409 282.736 174.467 282.698 174.516 282.649C174.565 282.6 174.604 282.542 174.63 282.479C174.657 282.415 174.67 282.346 174.67 282.277V280.519C174.67 280.45 174.657 280.381 174.63 280.318C174.604 280.254 174.565 280.196 174.516 280.147C174.467 280.098 174.409 280.06 174.346 280.033C174.282 280.007 174.213 279.993 174.144 279.993H173.264V254.708H239.512C240.044 254.708 240.57 254.603 241.061 254.4C241.552 254.197 241.999 253.899 242.375 253.523C242.751 253.147 243.049 252.702 243.252 252.211C243.456 251.72 243.56 251.194 243.56 250.663V237.851H63.6025Z" fill="#200D69"/>
<path d="M151.407 201.077C160.563 201.077 167.986 193.661 167.986 184.512C167.986 175.363 160.563 167.947 151.407 167.947C142.25 167.947 134.828 175.363 134.828 184.512C134.828 193.661 142.25 201.077 151.407 201.077Z" fill="url(#paint35_linear_297_305)"/>
<path d="M193.648 91.5404H191C191 71.539 171.189 58.4323 151.203 58.4218C148.296 58.4133 145.395 58.6951 142.544 59.2631C139.335 59.9033 136.004 60.6706 132.731 61.6707C119.826 65.6233 107.857 73.264 107.857 91.5404C107.855 95.0898 108.307 98.625 109.202 102.06L106.639 102.726C105.689 99.0736 105.208 95.3146 105.209 91.5404C105.209 75.5711 111.771 64.6021 123.104 58.0619C129.062 54.6226 136.333 52.4055 144.663 51.326C148.129 50.8652 151.634 50.7589 155.122 51.0086C178.105 52.6594 193.648 70.2691 193.648 91.5404Z" fill="url(#paint36_linear_297_305)"/>
<path d="M198.06 93.0061L197.016 85.3019C196.759 83.3563 195.821 81.5643 194.368 80.2433C193.436 79.3821 192.32 78.7441 191.104 78.3774C189.888 78.0107 188.605 77.925 187.352 78.1268L185.694 78.3543C185.241 78.414 184.803 78.563 184.408 78.7928C184.012 79.0226 183.667 79.3286 183.39 79.693C183.112 80.0562 182.908 80.4709 182.791 80.9132C182.674 81.3555 182.645 81.8166 182.707 82.2699L185.117 100.017C185.216 100.741 185.541 101.414 186.044 101.943C186.548 102.472 187.205 102.829 187.924 102.964C188.136 103.007 188.353 103.028 188.57 103.028C188.726 103.028 188.881 103.017 189.036 102.996L190.889 102.748C192.019 102.598 193.107 102.219 194.085 101.633C195.063 101.048 195.911 100.27 196.577 99.3452C196.72 99.1441 196.857 98.9377 196.985 98.726C197.977 96.9947 198.356 94.9793 198.06 93.0061Z" fill="url(#paint37_linear_297_305)"/>
<path d="M184.624 78.6771C184.138 78.9131 183.715 79.2614 183.39 79.693C183.112 80.0562 182.908 80.4709 182.791 80.9132C182.674 81.3555 182.645 81.8166 182.707 82.2699L185.117 100.017C185.216 100.741 185.541 101.414 186.044 101.943C186.548 102.472 187.205 102.829 187.924 102.964L184.624 78.6771Z" fill="white"/>
<path d="M198.06 93.0061L197.017 85.3019C196.759 83.3562 195.821 81.5643 194.369 80.2433L196.768 97.9006C196.804 98.1841 196.877 98.4616 196.985 98.7261C197.977 96.9947 198.356 94.9793 198.06 93.0061Z" fill="#200D69"/>
<path d="M189.814 98.5571C190.539 98.4589 190.903 96.736 190.628 94.7089C190.353 92.6819 189.542 91.1182 188.818 91.2164C188.093 91.3146 187.729 93.0375 188.004 95.0646C188.279 97.0917 189.09 98.6553 189.814 98.5571Z" fill="#200D69"/>
<path d="M188.226 89.0327C188.95 88.9344 189.314 87.2116 189.039 85.1845C188.764 83.1574 187.953 81.5938 187.229 81.692C186.504 81.7902 186.14 83.5131 186.415 85.5401C186.691 87.5672 187.501 89.1309 188.226 89.0327Z" fill="#200D69"/>
<path d="M198.288 92.7366C199.012 92.6384 199.376 90.9155 199.101 88.8884C198.826 86.8614 198.015 85.2977 197.291 85.3959C196.566 85.4941 196.202 87.217 196.477 89.2441C196.753 91.2712 197.563 92.8348 198.288 92.7366Z" fill="#200D69"/>
<path d="M151.203 58.4217C148.296 58.4132 145.396 58.6951 142.545 59.2631C139.335 59.9033 136.004 60.6706 132.732 61.6706C127.621 61.4219 123.861 60.0991 123.104 58.0619C129.062 54.6225 136.333 52.4054 144.663 51.326C148.129 50.8652 151.634 50.7588 155.122 51.0085C155.491 51.2248 155.811 51.5167 156.059 51.8651C156.307 52.2135 156.479 52.6104 156.563 53.0298C156.811 54.8712 154.709 56.829 151.203 58.4217Z" fill="#200D69"/>
<path d="M117.395 109.901L113.318 92.9638C113.172 92.3527 112.849 91.7982 112.389 91.3698C111.93 90.9415 111.353 90.6584 110.733 90.5562C110.558 90.529 110.381 90.5148 110.204 90.5139C109.954 90.5148 109.705 90.545 109.462 90.6038L107.884 90.9848C105.852 91.4758 104.098 92.7522 103.007 94.5338C101.916 96.3155 101.577 98.4569 102.064 100.488L103.891 108.087C104.308 109.875 105.302 111.478 106.719 112.648C106.949 112.833 107.189 113.004 107.439 113.161C108.327 113.717 109.317 114.089 110.351 114.257C111.385 114.424 112.443 114.382 113.46 114.135L115.033 113.754C115.449 113.657 115.84 113.475 116.182 113.219C116.691 112.849 117.078 112.335 117.294 111.745C117.51 111.154 117.545 110.512 117.395 109.901Z" fill="url(#paint38_linear_297_305)"/>
<path d="M108.847 106.75C109.557 106.579 109.745 104.828 109.266 102.839C108.787 100.85 107.823 99.3768 107.112 99.5477C106.401 99.7186 106.213 101.469 106.692 103.458C107.171 105.447 108.136 106.921 108.847 106.75Z" fill="#200D69"/>
<path d="M103.551 108.337C104.262 108.166 104.45 106.416 103.97 104.427C103.491 102.438 102.527 100.964 101.816 101.135C101.105 101.306 100.917 103.057 101.396 105.046C101.875 107.035 102.84 108.508 103.551 108.337Z" fill="#200D69"/>
<path d="M117.655 109.838L113.577 92.9002C113.418 92.2391 113.067 91.6394 112.569 91.1764C112.071 90.7133 111.447 90.4074 110.775 90.2969L116.341 113.431C116.891 113.029 117.309 112.473 117.543 111.833C117.776 111.194 117.815 110.499 117.655 109.838Z" fill="white"/>
<path d="M102.985 97.1334C102.873 96.6623 102.662 96.2205 102.366 95.837C101.793 97.3203 101.687 98.9433 102.064 100.488L103.891 108.086C104.308 109.875 105.302 111.478 106.719 112.648L102.985 97.1334Z" fill="#200D69"/>
</g>
<defs>
<linearGradient id="paint0_linear_297_305" x1="213.015" y1="102.536" x2="227.557" y2="102.536" gradientUnits="userSpaceOnUse">
<stop stop-color="#21D4FD"/>
<stop offset="1" stop-color="#B721FF"/>
</linearGradient>
<linearGradient id="paint1_linear_297_305" x1="237.778" y1="122.617" x2="252.32" y2="122.617" gradientUnits="userSpaceOnUse">
<stop stop-color="#21D4FD"/>
<stop offset="1" stop-color="#B721FF"/>
</linearGradient>
<linearGradient id="paint2_linear_297_305" x1="237.778" y1="142.697" x2="252.32" y2="142.697" gradientUnits="userSpaceOnUse">
<stop stop-color="#21D4FD"/>
<stop offset="1" stop-color="#B721FF"/>
</linearGradient>
<linearGradient id="paint3_linear_297_305" x1="237.778" y1="162.778" x2="252.32" y2="162.778" gradientUnits="userSpaceOnUse">
<stop stop-color="#21D4FD"/>
<stop offset="1" stop-color="#B721FF"/>
</linearGradient>
<linearGradient id="paint4_linear_297_305" x1="262.541" y1="102.536" x2="277.083" y2="102.536" gradientUnits="userSpaceOnUse">
<stop stop-color="#21D4FD"/>
<stop offset="1" stop-color="#B721FF"/>
</linearGradient>
<linearGradient id="paint5_linear_297_305" x1="262.541" y1="122.617" x2="277.083" y2="122.617" gradientUnits="userSpaceOnUse">
<stop stop-color="#21D4FD"/>
<stop offset="1" stop-color="#B721FF"/>
</linearGradient>
<linearGradient id="paint6_linear_297_305" x1="262.541" y1="162.778" x2="277.083" y2="162.778" gradientUnits="userSpaceOnUse">
<stop stop-color="#21D4FD"/>
<stop offset="1" stop-color="#B721FF"/>
</linearGradient>
<linearGradient id="paint7_linear_297_305" x1="262.541" y1="182.859" x2="277.083" y2="182.859" gradientUnits="userSpaceOnUse">
<stop stop-color="#21D4FD"/>
<stop offset="1" stop-color="#B721FF"/>
</linearGradient>
<linearGradient id="paint8_linear_297_305" x1="287.304" y1="102.536" x2="301.846" y2="102.536" gradientUnits="userSpaceOnUse">
<stop stop-color="#21D4FD"/>
<stop offset="1" stop-color="#B721FF"/>
</linearGradient>
<linearGradient id="paint9_linear_297_305" x1="287.304" y1="122.617" x2="301.846" y2="122.617" gradientUnits="userSpaceOnUse">
<stop stop-color="#21D4FD"/>
<stop offset="1" stop-color="#B721FF"/>
</linearGradient>
<linearGradient id="paint10_linear_297_305" x1="287.304" y1="142.697" x2="301.846" y2="142.697" gradientUnits="userSpaceOnUse">
<stop stop-color="#21D4FD"/>
<stop offset="1" stop-color="#B721FF"/>
</linearGradient>
<linearGradient id="paint11_linear_297_305" x1="287.304" y1="182.859" x2="301.846" y2="182.859" gradientUnits="userSpaceOnUse">
<stop stop-color="#21D4FD"/>
<stop offset="1" stop-color="#B721FF"/>
</linearGradient>
<linearGradient id="paint12_linear_297_305" x1="312.066" y1="102.536" x2="326.609" y2="102.536" gradientUnits="userSpaceOnUse">
<stop stop-color="#21D4FD"/>
<stop offset="1" stop-color="#B721FF"/>
</linearGradient>
<linearGradient id="paint13_linear_297_305" x1="312.066" y1="122.617" x2="326.609" y2="122.617" gradientUnits="userSpaceOnUse">
<stop stop-color="#21D4FD"/>
<stop offset="1" stop-color="#B721FF"/>
</linearGradient>
<linearGradient id="paint14_linear_297_305" x1="312.066" y1="142.697" x2="326.609" y2="142.697" gradientUnits="userSpaceOnUse">
<stop stop-color="#21D4FD"/>
<stop offset="1" stop-color="#B721FF"/>
</linearGradient>
<linearGradient id="paint15_linear_297_305" x1="312.066" y1="162.778" x2="326.609" y2="162.778" gradientUnits="userSpaceOnUse">
<stop stop-color="#21D4FD"/>
<stop offset="1" stop-color="#B721FF"/>
</linearGradient>
<linearGradient id="paint16_linear_297_305" x1="336.829" y1="102.536" x2="351.371" y2="102.536" gradientUnits="userSpaceOnUse">
<stop stop-color="#21D4FD"/>
<stop offset="1" stop-color="#B721FF"/>
</linearGradient>
<linearGradient id="paint17_linear_297_305" x1="336.829" y1="122.617" x2="351.371" y2="122.617" gradientUnits="userSpaceOnUse">
<stop stop-color="#21D4FD"/>
<stop offset="1" stop-color="#B721FF"/>
</linearGradient>
<linearGradient id="paint18_linear_297_305" x1="336.829" y1="142.697" x2="351.371" y2="142.697" gradientUnits="userSpaceOnUse">
<stop stop-color="#21D4FD"/>
<stop offset="1" stop-color="#B721FF"/>
</linearGradient>
<linearGradient id="paint19_linear_297_305" x1="336.829" y1="182.859" x2="351.371" y2="182.859" gradientUnits="userSpaceOnUse">
<stop stop-color="#21D4FD"/>
<stop offset="1" stop-color="#B721FF"/>
</linearGradient>
<linearGradient id="paint20_linear_297_305" x1="361.592" y1="102.536" x2="376.134" y2="102.536" gradientUnits="userSpaceOnUse">
<stop stop-color="#21D4FD"/>
<stop offset="1" stop-color="#B721FF"/>
</linearGradient>
<linearGradient id="paint21_linear_297_305" x1="361.592" y1="122.617" x2="376.134" y2="122.617" gradientUnits="userSpaceOnUse">
<stop stop-color="#21D4FD"/>
<stop offset="1" stop-color="#B721FF"/>
</linearGradient>
<linearGradient id="paint22_linear_297_305" x1="361.592" y1="162.778" x2="376.134" y2="162.778" gradientUnits="userSpaceOnUse">
<stop stop-color="#21D4FD"/>
<stop offset="1" stop-color="#B721FF"/>
</linearGradient>
<linearGradient id="paint23_linear_297_305" x1="361.592" y1="182.859" x2="376.134" y2="182.859" gradientUnits="userSpaceOnUse">
<stop stop-color="#21D4FD"/>
<stop offset="1" stop-color="#B721FF"/>
</linearGradient>
<linearGradient id="paint24_linear_297_305" x1="386.355" y1="102.536" x2="400.897" y2="102.536" gradientUnits="userSpaceOnUse">
<stop stop-color="#21D4FD"/>
<stop offset="1" stop-color="#B721FF"/>
</linearGradient>
<linearGradient id="paint25_linear_297_305" x1="386.355" y1="122.617" x2="400.897" y2="122.617" gradientUnits="userSpaceOnUse">
<stop stop-color="#21D4FD"/>
<stop offset="1" stop-color="#B721FF"/>
</linearGradient>
<linearGradient id="paint26_linear_297_305" x1="386.355" y1="162.778" x2="400.897" y2="162.778" gradientUnits="userSpaceOnUse">
<stop stop-color="#21D4FD"/>
<stop offset="1" stop-color="#B721FF"/>
</linearGradient>
<linearGradient id="paint27_linear_297_305" x1="386.355" y1="182.859" x2="400.897" y2="182.859" gradientUnits="userSpaceOnUse">
<stop stop-color="#21D4FD"/>
<stop offset="1" stop-color="#B721FF"/>
</linearGradient>
<linearGradient id="paint28_linear_297_305" x1="411.118" y1="122.617" x2="425.66" y2="122.617" gradientUnits="userSpaceOnUse">
<stop stop-color="#21D4FD"/>
<stop offset="1" stop-color="#B721FF"/>
</linearGradient>
<linearGradient id="paint29_linear_297_305" x1="411.118" y1="142.697" x2="425.66" y2="142.697" gradientUnits="userSpaceOnUse">
<stop stop-color="#21D4FD"/>
<stop offset="1" stop-color="#B721FF"/>
</linearGradient>
<linearGradient id="paint30_linear_297_305" x1="411.118" y1="162.778" x2="425.66" y2="162.778" gradientUnits="userSpaceOnUse">
<stop stop-color="#21D4FD"/>
<stop offset="1" stop-color="#B721FF"/>
</linearGradient>
<linearGradient id="paint31_linear_297_305" x1="435.881" y1="142.697" x2="450.423" y2="142.697" gradientUnits="userSpaceOnUse">
<stop stop-color="#21D4FD"/>
<stop offset="1" stop-color="#B721FF"/>
</linearGradient>
<linearGradient id="paint32_linear_297_305" x1="31.5376" y1="226.136" x2="118.895" y2="226.136" gradientUnits="userSpaceOnUse">
<stop stop-color="#212AFD"/>
<stop offset="1" stop-color="#9D21FF"/>
</linearGradient>
<linearGradient id="paint33_linear_297_305" x1="196.704" y1="219.962" x2="282.55" y2="219.962" gradientUnits="userSpaceOnUse">
<stop stop-color="#212AFD"/>
<stop offset="1" stop-color="#9D21FF"/>
</linearGradient>
<linearGradient id="paint34_linear_297_305" x1="23.7769" y1="327.345" x2="390.216" y2="327.345" gradientUnits="userSpaceOnUse">
<stop stop-color="#21D4FD"/>
<stop offset="1" stop-color="#B721FF"/>
</linearGradient>
<linearGradient id="paint35_linear_297_305" x1="134.828" y1="184.512" x2="167.986" y2="184.512" gradientUnits="userSpaceOnUse">
<stop stop-color="#21D4FD"/>
<stop offset="1" stop-color="#B721FF"/>
</linearGradient>
<linearGradient id="paint36_linear_297_305" x1="105.209" y1="76.8018" x2="193.648" y2="76.8018" gradientUnits="userSpaceOnUse">
<stop stop-color="#21D4FD"/>
<stop offset="1" stop-color="#B721FF"/>
</linearGradient>
<linearGradient id="paint37_linear_297_305" x1="182.675" y1="90.5241" x2="198.158" y2="90.5241" gradientUnits="userSpaceOnUse">
<stop stop-color="#21D4FD"/>
<stop offset="1" stop-color="#B721FF"/>
</linearGradient>
<linearGradient id="paint38_linear_297_305" x1="101.847" y1="102.436" x2="117.487" y2="102.436" gradientUnits="userSpaceOnUse">
<stop stop-color="#21D4FD"/>
<stop offset="1" stop-color="#B721FF"/>
</linearGradient>
<clipPath id="clip0_297_305">
<rect width="450.423" height="392" fill="white"/>
</clipPath>
</defs>
</svg>
