<svg width="21" height="24" viewBox="0 0 21 24" fill="none" xmlns="http://www.w3.org/2000/svg">
<path d="M10.4999 23.8124C10.1858 23.8124 9.86709 23.728 9.59053 23.5686L6.69834 21.8577C6.26709 21.6139 6.47803 21.5295 6.61865 21.4827C7.19521 21.2811 7.3124 21.2389 7.92646 20.8874C7.99209 20.8499 8.07646 20.8639 8.14209 20.9061L10.364 22.2233C10.4437 22.2702 10.5562 22.2702 10.6312 22.2233L19.289 17.2264C19.3687 17.1795 19.4202 17.0858 19.4202 16.992V6.99829C19.4202 6.89985 19.3687 6.81079 19.2843 6.75923L10.6312 1.76704C10.5515 1.72017 10.4437 1.72017 10.364 1.76704L1.71553 6.76392C1.63115 6.81079 1.57959 6.90454 1.57959 7.00298V16.992C1.57959 17.0858 1.63115 17.1795 1.71553 17.2217L4.0874 18.5905C5.37646 19.2327 6.16396 18.478 6.16396 17.7139V7.85142C6.16396 7.71079 6.27646 7.60298 6.41709 7.60298H7.51396C7.6499 7.60298 7.76709 7.71079 7.76709 7.85142V17.7186C7.76709 19.4342 6.82959 20.4186 5.20303 20.4186C4.70146 20.4186 4.30771 20.4186 3.21084 19.8749L0.94209 18.567C0.37959 18.2436 0.0327148 17.6389 0.0327148 16.9874V6.99829C0.0327148 6.35142 0.37959 5.74204 0.94209 5.4186L9.59053 0.421729C10.139 0.112354 10.8655 0.112354 11.4093 0.421729L20.0671 5.42329C20.6296 5.74673 20.9765 6.35142 20.9765 7.00298V16.992C20.9765 17.6389 20.6296 18.2436 20.0671 18.5717L11.4093 23.5686C11.1327 23.728 10.8187 23.8124 10.4999 23.8124ZM17.489 13.9639C17.489 12.0936 16.2233 11.5967 13.5655 11.2452C10.8749 10.8889 10.603 10.7061 10.603 10.078C10.603 9.55767 10.8327 8.86392 12.8249 8.86392C14.6015 8.86392 15.2577 9.24829 15.5296 10.4483C15.553 10.5608 15.6562 10.6452 15.7733 10.6452H16.8983C16.9687 10.6452 17.0343 10.617 17.0812 10.5655C17.128 10.5139 17.1515 10.4436 17.1468 10.3733C16.9733 8.3061 15.5999 7.34517 12.8249 7.34517C10.3546 7.34517 8.88271 8.38579 8.88271 10.1342C8.88271 12.028 10.3499 12.553 12.7171 12.7874C15.553 13.0639 15.7733 13.4811 15.7733 14.0389C15.7733 15.0045 14.9952 15.417 13.1718 15.417C10.8796 15.417 10.378 14.8405 10.2093 13.7014C10.1905 13.5795 10.0874 13.4905 9.96084 13.4905H8.84053C8.6999 13.4905 8.59209 13.603 8.59209 13.7389C8.59209 15.1967 9.38428 16.9358 13.1765 16.9358C15.914 16.9311 17.489 15.8483 17.489 13.9639Z" fill="url(#paint0_linear_324_298)"/>
<defs>
<linearGradient id="paint0_linear_324_298" x1="0.0327148" y1="12.001" x2="20.9765" y2="12.001" gradientUnits="userSpaceOnUse">
<stop stop-color="#21D4FD"/>
<stop offset="1" stop-color="#B721FF"/>
</linearGradient>
</defs>
</svg>
