<svg width="493" height="372" viewBox="0 0 493 372" fill="none" xmlns="http://www.w3.org/2000/svg">
<g clip-path="url(#clip0_324_753)">
<path d="M422.375 201.519C422.375 258.737 388.824 309.355 337.392 340.169C304.416 359.929 264.084 371.548 220.537 371.548C162.523 371.548 118.27 349.626 84.9813 316.044C54.2984 285.1 32.934 244.246 18.6986 201.519C-44.8519 10.7536 61.3098 -41.2898 220.537 31.4904C321.917 77.8352 422.375 107.618 422.375 201.519Z" fill="url(#paint0_linear_324_753)" fill-opacity="0.84"/>
<path d="M337.392 101.652V340.621C304.416 360.381 264.084 372 220.537 372C162.523 372 118.27 350.078 84.9814 316.497V101.652H337.392Z" fill="#F2F2F2"/>
<path d="M109.259 218.091C122.475 213.888 136.187 211.444 150.041 210.822C156.983 210.527 163.938 210.799 170.836 211.635C177.667 212.539 184.416 213.983 191.018 215.955C197.541 217.844 203.974 220.025 210.475 221.986C217.08 224.002 223.794 225.64 230.585 226.892C237.34 228.114 244.164 228.927 251.017 229.327C257.804 229.721 264.657 229.798 271.425 229.075C277.746 228.467 283.938 226.898 289.785 224.422C295.24 222.042 300.28 218.81 304.718 214.846C305.825 213.857 306.891 212.825 307.914 211.75C308.518 211.119 307.56 210.158 306.955 210.79C298.304 219.832 286.933 225.439 274.599 227.311C267.881 228.331 261.034 228.39 254.256 228.127C247.326 227.86 240.42 227.162 233.577 226.038C226.816 224.917 220.129 223.395 213.549 221.48C207.086 219.608 200.711 217.449 194.27 215.503C187.773 213.463 181.141 211.883 174.422 210.775C167.684 209.749 160.873 209.276 154.058 209.362C140.439 209.58 126.908 211.583 113.811 215.321C112.166 215.783 110.528 216.27 108.899 216.783C108.068 217.043 108.423 218.354 109.259 218.091H109.259Z" fill="url(#paint1_linear_324_753)" fill-opacity="0.5"/>
<path d="M109.259 252.464C122.475 248.261 136.187 245.817 150.041 245.195C156.983 244.9 163.938 245.172 170.836 246.008C177.667 246.912 184.416 248.356 191.018 250.328C197.541 252.217 203.974 254.398 210.475 256.359C217.08 258.375 223.794 260.013 230.585 261.265C237.34 262.487 244.164 263.3 251.017 263.7C257.804 264.094 264.657 264.171 271.425 263.448C277.746 262.84 283.938 261.271 289.785 258.795C295.24 256.415 300.28 253.183 304.718 249.219C305.825 248.23 306.891 247.198 307.914 246.123C308.518 245.492 307.56 244.531 306.955 245.163C298.304 254.205 286.933 259.812 274.599 261.684C267.881 262.704 261.034 262.763 254.256 262.5C247.326 262.233 240.42 261.535 233.577 260.411C226.816 259.29 220.129 257.768 213.549 255.853C207.086 253.981 200.711 251.822 194.27 249.876C187.773 247.836 181.141 246.257 174.422 245.148C167.684 244.122 160.873 243.649 154.058 243.735C140.439 243.953 126.908 245.956 113.811 249.694C112.166 250.156 110.528 250.643 108.899 251.156C108.068 251.416 108.423 252.727 109.259 252.464H109.259Z" fill="url(#paint2_linear_324_753)" fill-opacity="0.5"/>
<path d="M109.259 186.884C122.475 182.681 136.187 180.237 150.041 179.615C156.983 179.319 163.938 179.592 170.836 180.428C177.667 181.332 184.416 182.776 191.018 184.748C197.541 186.637 203.974 188.818 210.475 190.779C217.08 192.795 223.794 194.433 230.585 195.685C237.34 196.907 244.164 197.72 251.017 198.12C257.804 198.514 264.657 198.591 271.425 197.868C277.746 197.26 283.938 195.691 289.785 193.215C295.24 190.835 300.28 187.603 304.718 183.639C305.825 182.65 306.891 181.618 307.914 180.543C308.518 179.912 307.56 178.951 306.955 179.583C298.304 188.625 286.933 194.232 274.599 196.104C267.881 197.124 261.034 197.183 254.256 196.92C247.326 196.653 240.42 195.955 233.577 194.831C226.816 193.71 220.129 192.188 213.549 190.273C207.086 188.401 200.711 186.242 194.27 184.296C187.773 182.256 181.141 180.676 174.422 179.568C167.684 178.542 160.873 178.069 154.058 178.155C140.439 178.373 126.908 180.376 113.811 184.114C112.166 184.576 110.528 185.063 108.899 185.576C108.068 185.836 108.423 187.146 109.259 186.884H109.259Z" fill="url(#paint3_linear_324_753)" fill-opacity="0.5"/>
<path d="M107.642 127.881C110.926 126.426 114.687 126.68 118.094 127.523C121.768 128.432 125.228 130.014 128.845 131.107C135.319 133.036 142.196 133.166 148.738 131.484C152.422 130.545 155.937 129.039 159.157 127.02C159.895 126.556 159.214 125.381 158.472 125.848C152.732 129.432 146.096 131.323 139.329 131.305C135.935 131.299 132.559 130.803 129.308 129.829C125.717 128.753 122.285 127.19 118.648 126.263C114.794 125.281 110.662 125.068 106.957 126.709C106.16 127.062 106.85 128.232 107.642 127.881Z" fill="url(#paint4_linear_324_753)" fill-opacity="0.5"/>
<path d="M208.473 335.931C219.965 335.931 229.281 326.616 229.281 315.126C229.281 303.636 219.965 294.321 208.473 294.321C196.981 294.321 187.665 303.636 187.665 315.126C187.665 326.616 196.981 335.931 208.473 335.931Z" fill="#200D69"/>
<path d="M96.2902 59.138C102.536 59.138 107.599 54.0757 107.599 47.8311C107.599 41.5864 102.536 36.5242 96.2902 36.5242C90.0445 36.5242 84.9814 41.5864 84.9814 47.8311C84.9814 54.0757 90.0445 59.138 96.2902 59.138Z" fill="#F2F2F2"/>
<path d="M195.354 87.6313C199.602 87.6313 203.044 84.1889 203.044 79.9426C203.044 75.6963 199.602 72.2539 195.354 72.2539C191.107 72.2539 187.665 75.6963 187.665 79.9426C187.665 84.1889 191.107 87.6313 195.354 87.6313Z" fill="#F2F2F2"/>
<path d="M70.5058 161.353C74.7529 161.353 78.1958 157.91 78.1958 153.664C78.1958 149.417 74.7529 145.975 70.5058 145.975C66.2588 145.975 62.8159 149.417 62.8159 153.664C62.8159 157.91 66.2588 161.353 70.5058 161.353Z" fill="#F2F2F2"/>
<path d="M39.5453 96.5447H38.6973V248.168H39.5453V96.5447Z" fill="#200D69"/>
<path d="M39.2844 235.174C48.4172 235.174 55.8208 218.281 55.8208 197.443C55.8208 176.605 48.4172 159.712 39.2844 159.712C30.1516 159.712 22.748 176.605 22.748 197.443C22.748 218.281 30.1516 235.174 39.2844 235.174Z" fill="#200D69"/>
<path d="M39.2844 149.114C48.4172 149.114 55.8208 132.221 55.8208 111.383C55.8208 90.5445 48.4172 73.6519 39.2844 73.6519C30.1516 73.6519 22.748 90.5445 22.748 111.383C22.748 132.221 30.1516 149.114 39.2844 149.114Z" fill="#200D69"/>
<path d="M39.6908 80.5566L38.8784 80.3132C38.9298 80.1418 43.9152 63.0601 35.7292 52.0637C31.1056 45.8532 23.1718 42.7041 12.1479 42.7041V41.8562C23.4563 41.8562 31.6197 45.1213 36.4118 51.5607C44.8512 62.9018 39.7434 80.3815 39.6908 80.5566Z" fill="#200D69"/>
<path d="M12.1481 52.8787C18.0025 52.8787 22.7484 48.1336 22.7484 42.2802C22.7484 36.4268 18.0025 31.6816 12.1481 31.6816C6.29375 31.6816 1.54785 36.4268 1.54785 42.2802C1.54785 48.1336 6.29375 52.8787 12.1481 52.8787Z" fill="#200D69"/>
<path d="M348.644 282.526L340.713 355.478H395.435L397.815 349.927L400.987 355.478H452.537C452.537 355.478 448.572 280.148 441.434 277.769C434.296 275.39 348.644 282.526 348.644 282.526Z" fill="#29283E"/>
<path d="M395.435 122.35C410.765 122.35 423.193 109.924 423.193 94.5966C423.193 79.2689 410.765 66.8433 395.435 66.8433C380.105 66.8433 367.677 79.2689 367.677 94.5966C367.677 109.924 380.105 122.35 395.435 122.35Z" fill="#F4CBA9"/>
<path d="M379.574 112.042C379.574 112.042 381.953 137.416 379.574 139.002C377.194 140.588 417.642 139.795 417.642 139.795C417.642 139.795 412.09 116.799 417.642 105.698L379.574 112.042Z" fill="#F4CBA9"/>
<path d="M393.849 133.451C393.849 133.451 414.256 136.629 415.949 130.282L426.365 144.553L427.158 287.284C427.158 287.284 342.299 297.593 339.126 280.941C335.954 264.289 371.643 132.658 371.643 132.658L380.627 132.077C380.627 132.077 392.263 133.451 393.849 133.451Z" fill="#A098C9"/>
<path d="M380.493 125.565L366.884 130.28L328.023 139.795L329.61 234.95C329.61 234.95 296.3 330.104 311.369 337.241C326.437 344.377 347.85 327.725 354.195 315.831C360.54 303.936 382.746 139.002 382.746 135.83C382.746 132.659 380.493 125.565 380.493 125.565Z" fill="#200D69"/>
<path d="M415.439 125.565L420.814 130.28L458.882 147.725L439.848 243.672C439.848 243.672 465.227 330.897 455.71 335.655C446.193 340.412 431.917 353.893 428.745 345.963C425.572 338.033 406.892 134.33 415.439 125.565Z" fill="#200D69"/>
<path d="M437.469 252.394C437.469 252.394 401.78 237.328 400.987 250.808C400.194 264.288 441.434 273.804 441.434 269.839C441.434 265.874 437.469 252.394 437.469 252.394Z" fill="#F4CBA9"/>
<path d="M350.23 246.844C350.23 246.844 391.47 277.769 375.608 285.698C359.747 293.628 339.126 257.945 339.126 257.945L350.23 246.844Z" fill="#F4CBA9"/>
<path d="M407.758 53.9423C407.889 53.6664 408.099 53.4357 408.361 53.2799C408.624 53.1242 408.927 53.0504 409.232 53.0682C396.524 52.3081 383.138 53.789 372.507 60.7909C369.529 62.7519 366.749 65.1498 363.359 66.2549L366.11 68.4123L362.823 69.4142L367.661 72.5407C367.172 73.096 366.546 73.5122 365.844 73.7472C365.143 73.9821 364.392 74.0274 363.667 73.8784C365.77 74.4926 367.318 76.3634 368.104 78.4075C368.89 80.4517 369.032 82.678 369.165 84.8641C369.977 81.7098 373.42 79.853 376.673 79.6644C379.925 79.4757 383.097 80.5486 386.262 81.3199C393.156 82.9949 400.316 83.2703 407.318 82.1298C404.94 86.9007 406.946 92.5914 408.964 97.5251L412.994 107.376C415.232 107.601 416.813 105.377 418.499 103.888C420.035 102.532 413.919 114.461 414.866 114.024C416.096 113.456 429.079 99.1243 429.687 97.9135C432.461 92.3893 434.125 86.2277 433.875 80.0515C433.624 73.8753 431.364 67.6961 427.106 63.2144C424.216 60.1719 420.216 59.6391 417.27 57.1104C416.11 56.1151 416.105 55.3376 414.512 54.7573C413.982 54.5646 407.846 53.748 407.758 53.9423Z" fill="url(#paint5_linear_324_753)"/>
<path d="M333.575 142.174L328.023 139.795L283.61 212.747C283.61 212.747 275.68 231.778 289.955 240.5C304.231 249.223 337.54 275.39 337.54 275.39L356.574 246.051C356.574 246.051 317.713 227.813 320.092 220.676C322.471 213.54 335.161 194.509 335.161 194.509L333.575 142.174Z" fill="#200D69"/>
<path d="M448.571 146.139L458.881 147.725C458.881 147.725 501.708 231.778 491.398 247.637C481.088 263.496 439.054 285.699 439.054 285.699C439.054 285.699 438.261 259.531 431.124 250.016L455.709 240.5L442.227 188.165L448.571 146.139Z" fill="#200D69"/>
</g>
<defs>
<linearGradient id="paint0_linear_324_753" x1="0" y1="185.774" x2="422.375" y2="185.774" gradientUnits="userSpaceOnUse">
<stop stop-color="#21D4FD"/>
<stop offset="1" stop-color="#B721FF"/>
</linearGradient>
<linearGradient id="paint1_linear_324_753" x1="108.426" y1="219.487" x2="308.106" y2="219.487" gradientUnits="userSpaceOnUse">
<stop stop-color="#21D4FD"/>
<stop offset="1" stop-color="#B721FF"/>
</linearGradient>
<linearGradient id="paint2_linear_324_753" x1="108.426" y1="253.86" x2="308.106" y2="253.86" gradientUnits="userSpaceOnUse">
<stop stop-color="#21D4FD"/>
<stop offset="1" stop-color="#B721FF"/>
</linearGradient>
<linearGradient id="paint3_linear_324_753" x1="108.426" y1="188.28" x2="308.106" y2="188.28" gradientUnits="userSpaceOnUse">
<stop stop-color="#21D4FD"/>
<stop offset="1" stop-color="#B721FF"/>
</linearGradient>
<linearGradient id="paint4_linear_324_753" x1="106.604" y1="129.079" x2="159.475" y2="129.079" gradientUnits="userSpaceOnUse">
<stop stop-color="#21D4FD"/>
<stop offset="1" stop-color="#B721FF"/>
</linearGradient>
<linearGradient id="paint5_linear_324_753" x1="398.361" y1="52.8884" x2="398.361" y2="114.036" gradientUnits="userSpaceOnUse">
<stop stop-color="#271981"/>
<stop offset="1" stop-color="#060940"/>
</linearGradient>
<clipPath id="clip0_324_753">
<rect width="493" height="372" fill="white"/>
</clipPath>
</defs>
</svg>
