<svg width="540" height="392" viewBox="0 0 540 392" fill="none" xmlns="http://www.w3.org/2000/svg">
<g clip-path="url(#clip0_297_384)">
<path d="M314.148 69.105C324.256 69.105 332.45 60.9162 332.45 50.8149C332.45 40.7135 324.256 32.5247 314.148 32.5247C304.041 32.5247 295.847 40.7135 295.847 50.8149C295.847 60.9162 304.041 69.105 314.148 69.105Z" fill="#F2F2F2"/>
<path d="M456.12 340.552C483.323 319.845 496.316 285.049 488.182 251.856C487.98 251.031 487.766 250.208 487.542 249.387C482.149 229.684 468.808 210.958 449.363 204.662C433.036 199.376 415.215 203.441 398.182 201.339C364.746 197.212 338.823 170.175 320.584 141.867C302.344 113.559 288.326 81.8722 264.089 58.4855C224.139 19.9365 158.97 11.6369 109.437 36.7294C59.9048 61.822 28.353 117.492 29.6986 172.974C31.0443 228.456 64.002 281.501 111.865 309.644C129.448 319.983 149.784 327.307 170.023 324.744C187.583 322.521 203.54 313.091 221.018 310.291C248.498 305.889 275.802 318.306 299.57 332.775C323.338 347.245 346.296 364.395 373.305 371.103C399.531 377.617 432.022 358.895 456.12 340.552Z" fill="#F2F2F2"/>
<path d="M417.035 37.8945C416.439 37.4972 415.836 37.1204 415.239 36.7368C398.001 25.719 379.525 16.7683 360.192 10.0696L355.71 71.8708H327.291V1.04803C325.502 0.678125 323.7 0.328772 321.897 -3.05176e-05V71.8708H288.126C269.534 71.8708 251.704 64.49 238.558 51.352C225.412 38.2141 218.027 20.3952 218.027 1.81531V1.81525C216.217 2.20571 214.421 2.62356 212.625 3.06881V71.8708H185.119L180.849 12.9397C160.981 20.5545 142.12 30.5682 124.684 42.7581C124.383 42.9636 124.081 43.1759 123.786 43.3814C122.272 44.4432 120.777 45.5255 119.29 46.6215V282.394H200.356L198.924 262.563L191.041 153.681H349.781L341.898 262.563L340.465 282.394H420.634V40.2783C419.441 39.47 418.242 38.6754 417.035 37.8945ZM212.625 135.7H189.739L185.51 77.2687H212.625V135.7ZM321.897 135.7H283.458V134.542C283.458 133.985 283.348 133.434 283.135 132.92C282.922 132.406 282.609 131.939 282.215 131.546C281.821 131.153 281.353 130.841 280.838 130.629C280.324 130.417 279.772 130.308 279.215 130.309H262.504C261.948 130.308 261.397 130.418 260.883 130.63C260.369 130.843 259.902 131.155 259.509 131.548C259.115 131.941 258.803 132.408 258.59 132.922C258.378 133.435 258.268 133.986 258.268 134.542V135.7H218.027V77.2687H321.897V135.7ZM327.291 135.7V77.2687H355.319L351.09 135.7H327.291Z" fill="url(#paint0_linear_297_384)" fill-opacity="0.66"/>
<path d="M0 297.492C5.95453 304.543 12.395 311.169 19.2744 317.323L520.038 318.008C526.917 311.854 533.358 305.228 539.312 298.177L0 297.492Z" fill="url(#paint1_linear_297_384)"/>
<path d="M339.584 233.992V292.7C339.585 293.448 339.882 294.165 340.412 294.694C340.941 295.223 341.659 295.521 342.407 295.521H429.46C430.209 295.521 430.927 295.223 431.456 294.694C431.985 294.165 432.283 293.448 432.284 292.7V233.992C432.282 233.245 431.984 232.528 431.455 232C430.925 231.472 430.208 231.175 429.46 231.174H342.407C341.659 231.175 340.942 231.472 340.413 232C339.884 232.528 339.586 233.245 339.584 233.992Z" fill="url(#paint2_linear_297_384)"/>
<path d="M341.626 234.723V291.976C341.627 292.375 341.786 292.759 342.069 293.041C342.352 293.324 342.735 293.483 343.135 293.484H428.735C429.135 293.483 429.519 293.324 429.802 293.041C430.085 292.759 430.244 292.375 430.244 291.976V234.723C430.244 234.322 430.086 233.938 429.803 233.655C429.52 233.372 429.136 233.212 428.735 233.211H343.135C342.734 233.212 342.351 233.372 342.068 233.655C341.785 233.938 341.626 234.322 341.626 234.723Z" fill="#6C63FF" fill-opacity="0.9"/>
<path d="M337.764 304.149C337.923 304.349 338.126 304.51 338.357 304.621C338.587 304.731 338.84 304.788 339.096 304.786H432.309C432.564 304.786 432.816 304.729 433.046 304.619C433.276 304.51 433.478 304.35 433.639 304.152C433.8 303.954 433.914 303.723 433.974 303.475C434.034 303.228 434.038 302.97 433.986 302.721L432.539 295.852C432.479 295.572 432.35 295.311 432.163 295.094C431.976 294.876 431.739 294.709 431.471 294.607C431.277 294.531 431.07 294.492 430.862 294.492H340.537C340.329 294.492 340.122 294.531 339.928 294.607C339.66 294.709 339.422 294.876 339.236 295.094C339.049 295.311 338.92 295.572 338.86 295.852L337.413 302.721C337.362 302.97 337.367 303.227 337.427 303.475C337.488 303.722 337.603 303.952 337.764 304.149Z" fill="#2F2E41"/>
<path d="M427.664 297.45H429.866C430.05 297.45 430.2 297.301 430.2 297.116V296.063C430.2 295.879 430.05 295.729 429.866 295.729H427.664C427.479 295.729 427.329 295.879 427.329 296.063V297.116C427.329 297.301 427.479 297.45 427.664 297.45Z" fill="url(#paint3_linear_297_384)"/>
<path d="M421.922 297.45H424.123C424.308 297.45 424.458 297.301 424.458 297.116V296.063C424.458 295.879 424.308 295.729 424.123 295.729H421.922C421.737 295.729 421.587 295.879 421.587 296.063V297.116C421.587 297.301 421.737 297.45 421.922 297.45Z" fill="url(#paint4_linear_297_384)"/>
<path d="M416.18 297.45H418.381C418.566 297.45 418.716 297.301 418.716 297.116V296.063C418.716 295.879 418.566 295.729 418.381 295.729H416.18C415.995 295.729 415.845 295.879 415.845 296.063V297.116C415.845 297.301 415.995 297.45 416.18 297.45Z" fill="url(#paint5_linear_297_384)"/>
<path d="M410.438 297.45H412.64C412.825 297.45 412.975 297.301 412.975 297.116V296.063C412.975 295.879 412.825 295.729 412.64 295.729H410.438C410.253 295.729 410.104 295.879 410.104 296.063V297.116C410.104 297.301 410.253 297.45 410.438 297.45Z" fill="url(#paint6_linear_297_384)"/>
<path d="M404.696 297.45H406.898C407.083 297.45 407.232 297.301 407.232 297.116V296.063C407.232 295.879 407.083 295.729 406.898 295.729H404.696C404.511 295.729 404.361 295.879 404.361 296.063V297.116C404.361 297.301 404.511 297.45 404.696 297.45Z" fill="url(#paint7_linear_297_384)"/>
<path d="M398.954 297.45H401.156C401.34 297.45 401.49 297.301 401.49 297.116V296.063C401.49 295.879 401.34 295.729 401.156 295.729H398.954C398.769 295.729 398.619 295.879 398.619 296.063V297.116C398.619 297.301 398.769 297.45 398.954 297.45Z" fill="url(#paint8_linear_297_384)"/>
<path d="M393.213 297.45H395.414C395.599 297.45 395.749 297.301 395.749 297.116V296.063C395.749 295.879 395.599 295.729 395.414 295.729H393.213C393.028 295.729 392.878 295.879 392.878 296.063V297.116C392.878 297.301 393.028 297.45 393.213 297.45Z" fill="url(#paint9_linear_297_384)"/>
<path d="M387.471 297.45H389.672C389.857 297.45 390.007 297.301 390.007 297.116V296.063C390.007 295.879 389.857 295.729 389.672 295.729H387.471C387.286 295.729 387.136 295.879 387.136 296.063V297.116C387.136 297.301 387.286 297.45 387.471 297.45Z" fill="url(#paint10_linear_297_384)"/>
<path d="M381.728 297.45H383.93C384.115 297.45 384.265 297.301 384.265 297.116V296.063C384.265 295.879 384.115 295.729 383.93 295.729H381.728C381.544 295.729 381.394 295.879 381.394 296.063V297.116C381.394 297.301 381.544 297.45 381.728 297.45Z" fill="url(#paint11_linear_297_384)"/>
<path d="M375.987 297.45H378.189C378.374 297.45 378.523 297.301 378.523 297.116V296.063C378.523 295.879 378.374 295.729 378.189 295.729H375.987C375.802 295.729 375.653 295.879 375.653 296.063V297.116C375.653 297.301 375.802 297.45 375.987 297.45Z" fill="url(#paint12_linear_297_384)"/>
<path d="M370.245 297.45H372.447C372.631 297.45 372.781 297.301 372.781 297.116V296.063C372.781 295.879 372.631 295.729 372.447 295.729H370.245C370.06 295.729 369.91 295.879 369.91 296.063V297.116C369.91 297.301 370.06 297.45 370.245 297.45Z" fill="url(#paint13_linear_297_384)"/>
<path d="M364.503 297.45H366.704C366.889 297.45 367.039 297.301 367.039 297.116V296.063C367.039 295.879 366.889 295.729 366.704 295.729H364.503C364.318 295.729 364.168 295.879 364.168 296.063V297.116C364.168 297.301 364.318 297.45 364.503 297.45Z" fill="url(#paint14_linear_297_384)"/>
<path d="M358.761 297.45H360.962C361.147 297.45 361.297 297.301 361.297 297.116V296.063C361.297 295.879 361.147 295.729 360.962 295.729H358.761C358.576 295.729 358.426 295.879 358.426 296.063V297.116C358.426 297.301 358.576 297.45 358.761 297.45Z" fill="url(#paint15_linear_297_384)"/>
<path d="M353.019 297.45H355.221C355.406 297.45 355.556 297.301 355.556 297.116V296.063C355.556 295.879 355.406 295.729 355.221 295.729H353.019C352.835 295.729 352.685 295.879 352.685 296.063V297.116C352.685 297.301 352.835 297.45 353.019 297.45Z" fill="url(#paint16_linear_297_384)"/>
<path d="M347.277 297.45H349.479C349.664 297.45 349.813 297.301 349.813 297.116V296.063C349.813 295.879 349.664 295.729 349.479 295.729H347.277C347.092 295.729 346.943 295.879 346.943 296.063V297.116C346.943 297.301 347.092 297.45 347.277 297.45Z" fill="url(#paint17_linear_297_384)"/>
<path d="M341.535 297.45H343.737C343.921 297.45 344.071 297.301 344.071 297.116V296.063C344.071 295.879 343.921 295.729 343.737 295.729H341.535C341.35 295.729 341.2 295.879 341.2 296.063V297.116C341.2 297.301 341.35 297.45 341.535 297.45Z" fill="url(#paint18_linear_297_384)"/>
<path d="M427.731 300.32H429.933C430.118 300.32 430.268 300.17 430.268 299.985V298.933C430.268 298.748 430.118 298.598 429.933 298.598H427.731C427.546 298.598 427.397 298.748 427.397 298.933V299.985C427.397 300.17 427.546 300.32 427.731 300.32Z" fill="url(#paint19_linear_297_384)"/>
<path d="M421.989 300.32H424.191C424.376 300.32 424.525 300.17 424.525 299.985V298.933C424.525 298.748 424.376 298.598 424.191 298.598H421.989C421.804 298.598 421.655 298.748 421.655 298.933V299.985C421.655 300.17 421.804 300.32 421.989 300.32Z" fill="url(#paint20_linear_297_384)"/>
<path d="M416.247 300.32H418.449C418.633 300.32 418.783 300.17 418.783 299.985V298.933C418.783 298.748 418.633 298.598 418.449 298.598H416.247C416.062 298.598 415.912 298.748 415.912 298.933V299.985C415.912 300.17 416.062 300.32 416.247 300.32Z" fill="url(#paint21_linear_297_384)"/>
<path d="M410.506 300.32H412.707C412.892 300.32 413.042 300.17 413.042 299.985V298.933C413.042 298.748 412.892 298.598 412.707 298.598H410.506C410.321 298.598 410.171 298.748 410.171 298.933V299.985C410.171 300.17 410.321 300.32 410.506 300.32Z" fill="url(#paint22_linear_297_384)"/>
<path d="M404.764 300.32H406.965C407.15 300.32 407.3 300.17 407.3 299.985V298.933C407.3 298.748 407.15 298.598 406.965 298.598H404.764C404.579 298.598 404.429 298.748 404.429 298.933V299.985C404.429 300.17 404.579 300.32 404.764 300.32Z" fill="url(#paint23_linear_297_384)"/>
<path d="M399.021 300.32H401.223C401.408 300.32 401.558 300.17 401.558 299.985V298.933C401.558 298.748 401.408 298.598 401.223 298.598H399.021C398.836 298.598 398.687 298.748 398.687 298.933V299.985C398.687 300.17 398.836 300.32 399.021 300.32Z" fill="url(#paint24_linear_297_384)"/>
<path d="M393.28 300.32H395.482C395.667 300.32 395.816 300.17 395.816 299.985V298.933C395.816 298.748 395.667 298.598 395.482 298.598H393.28C393.095 298.598 392.945 298.748 392.945 298.933V299.985C392.945 300.17 393.095 300.32 393.28 300.32Z" fill="url(#paint25_linear_297_384)"/>
<path d="M387.538 300.32H389.74C389.924 300.32 390.074 300.17 390.074 299.985V298.933C390.074 298.748 389.924 298.598 389.74 298.598H387.538C387.353 298.598 387.203 298.748 387.203 298.933V299.985C387.203 300.17 387.353 300.32 387.538 300.32Z" fill="url(#paint26_linear_297_384)"/>
<path d="M381.797 300.32H383.998C384.183 300.32 384.333 300.17 384.333 299.985V298.933C384.333 298.748 384.183 298.598 383.998 298.598H381.797C381.612 298.598 381.462 298.748 381.462 298.933V299.985C381.462 300.17 381.612 300.32 381.797 300.32Z" fill="url(#paint27_linear_297_384)"/>
<path d="M376.055 300.32H378.256C378.441 300.32 378.591 300.17 378.591 299.985V298.933C378.591 298.748 378.441 298.598 378.256 298.598H376.055C375.87 298.598 375.72 298.748 375.72 298.933V299.985C375.72 300.17 375.87 300.32 376.055 300.32Z" fill="url(#paint28_linear_297_384)"/>
<path d="M370.313 300.32H372.515C372.7 300.32 372.85 300.17 372.85 299.985V298.933C372.85 298.748 372.7 298.598 372.515 298.598H370.313C370.129 298.598 369.979 298.748 369.979 298.933V299.985C369.979 300.17 370.129 300.32 370.313 300.32Z" fill="url(#paint29_linear_297_384)"/>
<path d="M364.571 300.32H366.773C366.958 300.32 367.107 300.17 367.107 299.985V298.933C367.107 298.748 366.958 298.598 366.773 298.598H364.571C364.386 298.598 364.237 298.748 364.237 298.933V299.985C364.237 300.17 364.386 300.32 364.571 300.32Z" fill="url(#paint30_linear_297_384)"/>
<path d="M358.829 300.32H361.031C361.215 300.32 361.365 300.17 361.365 299.985V298.933C361.365 298.748 361.215 298.598 361.031 298.598H358.829C358.644 298.598 358.494 298.748 358.494 298.933V299.985C358.494 300.17 358.644 300.32 358.829 300.32Z" fill="url(#paint31_linear_297_384)"/>
<path d="M353.087 300.32H355.288C355.473 300.32 355.623 300.17 355.623 299.985V298.933C355.623 298.748 355.473 298.598 355.288 298.598H353.087C352.902 298.598 352.752 298.748 352.752 298.933V299.985C352.752 300.17 352.902 300.32 353.087 300.32Z" fill="url(#paint32_linear_297_384)"/>
<path d="M347.345 300.32H349.547C349.732 300.32 349.882 300.17 349.882 299.985V298.933C349.882 298.748 349.732 298.598 349.547 298.598H347.345C347.161 298.598 347.011 298.748 347.011 298.933V299.985C347.011 300.17 347.161 300.32 347.345 300.32Z" fill="url(#paint33_linear_297_384)"/>
<path d="M341.603 300.32H343.805C343.99 300.32 344.14 300.17 344.14 299.985V298.933C344.14 298.748 343.99 298.598 343.805 298.598H341.603C341.419 298.598 341.269 298.748 341.269 298.933V299.985C341.269 300.17 341.419 300.32 341.603 300.32Z" fill="url(#paint34_linear_297_384)"/>
<path d="M380.074 303.763H402.372C402.557 303.763 402.707 303.613 402.707 303.428V302.375C402.707 302.191 402.557 302.041 402.372 302.041H380.074C379.889 302.041 379.74 302.191 379.74 302.375V303.428C379.74 303.613 379.889 303.763 380.074 303.763Z" fill="url(#paint35_linear_297_384)"/>
<path d="M356.45 245.737H354.501C353.91 245.737 353.431 246.216 353.431 246.806C353.431 247.397 353.91 247.876 354.501 247.876H356.45C357.041 247.876 357.52 247.397 357.52 246.806C357.52 246.216 357.041 245.737 356.45 245.737Z" fill="white"/>
<path d="M378.742 245.737H376.793C376.202 245.737 375.723 246.216 375.723 246.806C375.723 247.397 376.202 247.876 376.793 247.876H378.742C379.333 247.876 379.812 247.397 379.812 246.806C379.812 246.216 379.333 245.737 378.742 245.737Z" fill="white"/>
<path d="M385.058 245.737H383.109C382.518 245.737 382.039 246.216 382.039 246.806C382.039 247.397 382.518 247.876 383.109 247.876H385.058C385.649 247.876 386.128 247.397 386.128 246.806C386.128 246.216 385.649 245.737 385.058 245.737Z" fill="white"/>
<path d="M372.678 245.559H360.564C359.973 245.559 359.494 246.038 359.494 246.628C359.494 247.219 359.973 247.697 360.564 247.697H372.678C373.269 247.697 373.749 247.219 373.749 246.628C373.749 246.038 373.269 245.559 372.678 245.559Z" fill="white"/>
<path d="M402.401 245.559H390.287C389.696 245.559 389.217 246.038 389.217 246.628C389.217 247.219 389.696 247.697 390.287 247.697H402.401C402.992 247.697 403.471 247.219 403.471 246.628C403.471 246.038 402.992 245.559 402.401 245.559Z" fill="white"/>
<path d="M362.394 250.564H360.445C359.854 250.564 359.375 251.043 359.375 251.633C359.375 252.224 359.854 252.703 360.445 252.703H362.394C362.985 252.703 363.464 252.224 363.464 251.633C363.464 251.043 362.985 250.564 362.394 250.564Z" fill="white"/>
<path d="M384.686 250.564H382.737C382.146 250.564 381.667 251.043 381.667 251.633C381.667 252.224 382.146 252.703 382.737 252.703H384.686C385.277 252.703 385.756 252.224 385.756 251.633C385.756 251.043 385.277 250.564 384.686 250.564Z" fill="white"/>
<path d="M391.002 250.564H389.053C388.462 250.564 387.983 251.043 387.983 251.633C387.983 252.224 388.462 252.703 389.053 252.703H391.002C391.593 252.703 392.073 252.224 392.073 251.633C392.073 251.043 391.593 250.564 391.002 250.564Z" fill="white"/>
<path d="M378.623 250.386H366.509C365.918 250.386 365.438 250.865 365.438 251.455C365.438 252.046 365.918 252.524 366.509 252.524H378.623C379.214 252.524 379.693 252.046 379.693 251.455C379.693 250.865 379.214 250.386 378.623 250.386Z" fill="white"/>
<path d="M408.345 250.386H396.231C395.64 250.386 395.161 250.865 395.161 251.455C395.161 252.046 395.64 252.524 396.231 252.524H408.345C408.936 252.524 409.415 252.046 409.415 251.455C409.415 250.865 408.936 250.386 408.345 250.386Z" fill="white"/>
<path d="M368.338 255.391H366.389C365.798 255.391 365.319 255.87 365.319 256.46C365.319 257.051 365.798 257.53 366.389 257.53H368.338C368.929 257.53 369.409 257.051 369.409 256.46C369.409 255.87 368.929 255.391 368.338 255.391Z" fill="white"/>
<path d="M390.631 255.391H388.682C388.091 255.391 387.612 255.87 387.612 256.46C387.612 257.051 388.091 257.53 388.682 257.53H390.631C391.222 257.53 391.701 257.051 391.701 256.46C391.701 255.87 391.222 255.391 390.631 255.391Z" fill="white"/>
<path d="M396.947 255.391H394.998C394.407 255.391 393.928 255.87 393.928 256.46C393.928 257.051 394.407 257.53 394.998 257.53H396.947C397.538 257.53 398.017 257.051 398.017 256.46C398.017 255.87 397.538 255.391 396.947 255.391Z" fill="white"/>
<path d="M384.567 255.213H372.453C371.862 255.213 371.383 255.692 371.383 256.282C371.383 256.873 371.862 257.351 372.453 257.351H384.567C385.158 257.351 385.637 256.873 385.637 256.282C385.637 255.692 385.158 255.213 384.567 255.213Z" fill="white"/>
<path d="M414.29 255.213H402.175C401.585 255.213 401.105 255.692 401.105 256.282C401.105 256.873 401.585 257.351 402.175 257.351H414.29C414.881 257.351 415.36 256.873 415.36 256.282C415.36 255.692 414.881 255.213 414.29 255.213Z" fill="white"/>
<path d="M374.284 260.218H372.335C371.744 260.218 371.265 260.697 371.265 261.287C371.265 261.878 371.744 262.357 372.335 262.357H374.284C374.875 262.357 375.354 261.878 375.354 261.287C375.354 260.697 374.875 260.218 374.284 260.218Z" fill="white"/>
<path d="M396.576 260.218H394.627C394.036 260.218 393.557 260.697 393.557 261.287C393.557 261.878 394.036 262.357 394.627 262.357H396.576C397.167 262.357 397.646 261.878 397.646 261.287C397.646 260.697 397.167 260.218 396.576 260.218Z" fill="white"/>
<path d="M402.891 260.218H400.942C400.351 260.218 399.872 260.697 399.872 261.287C399.872 261.878 400.351 262.357 400.942 262.357H402.891C403.482 262.357 403.961 261.878 403.961 261.287C403.961 260.697 403.482 260.218 402.891 260.218Z" fill="white"/>
<path d="M390.512 260.04H378.398C377.807 260.04 377.328 260.519 377.328 261.109C377.328 261.7 377.807 262.178 378.398 262.178H390.512C391.103 262.178 391.582 261.7 391.582 261.109C391.582 260.519 391.103 260.04 390.512 260.04Z" fill="white"/>
<path d="M378.742 279.412H376.793C376.202 279.412 375.723 279.891 375.723 280.482C375.723 281.072 376.202 281.551 376.793 281.551H378.742C379.333 281.551 379.812 281.072 379.812 280.482C379.812 279.891 379.333 279.412 378.742 279.412Z" fill="white"/>
<path d="M385.058 279.412H383.109C382.518 279.412 382.039 279.891 382.039 280.482C382.039 281.072 382.518 281.551 383.109 281.551H385.058C385.649 281.551 386.128 281.072 386.128 280.482C386.128 279.891 385.649 279.412 385.058 279.412Z" fill="white"/>
<path d="M402.401 279.591H390.287C389.696 279.591 389.217 280.069 389.217 280.66C389.217 281.25 389.696 281.729 390.287 281.729H402.401C402.992 281.729 403.471 281.25 403.471 280.66C403.471 280.069 402.992 279.591 402.401 279.591Z" fill="white"/>
<path d="M356.45 279.412H354.501C353.91 279.412 353.431 279.891 353.431 280.482C353.431 281.072 353.91 281.551 354.501 281.551H356.45C357.041 281.551 357.52 281.072 357.52 280.482C357.52 279.891 357.041 279.412 356.45 279.412Z" fill="white"/>
<path d="M372.678 279.591H360.564C359.973 279.591 359.494 280.069 359.494 280.66C359.494 281.25 359.973 281.729 360.564 281.729H372.678C373.269 281.729 373.749 281.25 373.749 280.66C373.749 280.069 373.269 279.591 372.678 279.591Z" fill="white"/>
<path d="M362.394 274.585H360.445C359.854 274.585 359.375 275.064 359.375 275.655C359.375 276.245 359.854 276.724 360.445 276.724H362.394C362.985 276.724 363.464 276.245 363.464 275.655C363.464 275.064 362.985 274.585 362.394 274.585Z" fill="white"/>
<path d="M384.686 274.585H382.737C382.146 274.585 381.667 275.064 381.667 275.655C381.667 276.245 382.146 276.724 382.737 276.724H384.686C385.277 276.724 385.756 276.245 385.756 275.655C385.756 275.064 385.277 274.585 384.686 274.585Z" fill="white"/>
<path d="M391.002 274.585H389.053C388.462 274.585 387.983 275.064 387.983 275.655C387.983 276.245 388.462 276.724 389.053 276.724H391.002C391.593 276.724 392.073 276.245 392.073 275.655C392.073 275.064 391.593 274.585 391.002 274.585Z" fill="white"/>
<path d="M378.623 274.764H366.509C365.918 274.764 365.438 275.242 365.438 275.833C365.438 276.423 365.918 276.902 366.509 276.902H378.623C379.214 276.902 379.693 276.423 379.693 275.833C379.693 275.242 379.214 274.764 378.623 274.764Z" fill="white"/>
<path d="M368.338 269.758H366.389C365.798 269.758 365.319 270.237 365.319 270.828C365.319 271.418 365.798 271.897 366.389 271.897H368.338C368.929 271.897 369.409 271.418 369.409 270.828C369.409 270.237 368.929 269.758 368.338 269.758Z" fill="white"/>
<path d="M390.631 269.758H388.682C388.091 269.758 387.612 270.237 387.612 270.828C387.612 271.418 388.091 271.897 388.682 271.897H390.631C391.222 271.897 391.701 271.418 391.701 270.828C391.701 270.237 391.222 269.758 390.631 269.758Z" fill="white"/>
<path d="M396.947 269.758H394.998C394.407 269.758 393.928 270.237 393.928 270.828C393.928 271.418 394.407 271.897 394.998 271.897H396.947C397.538 271.897 398.017 271.418 398.017 270.828C398.017 270.237 397.538 269.758 396.947 269.758Z" fill="white"/>
<path d="M384.567 269.937H372.453C371.862 269.937 371.383 270.415 371.383 271.006C371.383 271.596 371.862 272.075 372.453 272.075H384.567C385.158 272.075 385.637 271.596 385.637 271.006C385.637 270.415 385.158 269.937 384.567 269.937Z" fill="white"/>
<path d="M374.284 264.931H372.335C371.744 264.931 371.265 265.41 371.265 266.001C371.265 266.591 371.744 267.07 372.335 267.07H374.284C374.875 267.07 375.354 266.591 375.354 266.001C375.354 265.41 374.875 264.931 374.284 264.931Z" fill="white"/>
<path d="M396.576 264.931H394.627C394.036 264.931 393.557 265.41 393.557 266.001C393.557 266.591 394.036 267.07 394.627 267.07H396.576C397.167 267.07 397.646 266.591 397.646 266.001C397.646 265.41 397.167 264.931 396.576 264.931Z" fill="white"/>
<path d="M402.891 264.931H400.942C400.351 264.931 399.872 265.41 399.872 266.001C399.872 266.591 400.351 267.07 400.942 267.07H402.891C403.482 267.07 403.961 266.591 403.961 266.001C403.961 265.41 403.482 264.931 402.891 264.931Z" fill="white"/>
<path d="M390.512 265.11H378.398C377.807 265.11 377.328 265.588 377.328 266.179C377.328 266.769 377.807 267.248 378.398 267.248H390.512C391.103 267.248 391.582 266.769 391.582 266.179C391.582 265.588 391.103 265.11 390.512 265.11Z" fill="white"/>
<path d="M346.087 335.983L336.937 321.528L365.658 298.647L377.512 285.522C379.052 283.816 381.014 282.545 383.199 281.834C385.385 281.124 387.719 280.999 389.969 281.472C392.218 281.946 394.303 283.001 396.017 284.532C397.73 286.064 399.012 288.017 399.733 290.199C400.801 293.431 400.571 296.952 399.092 300.018C397.612 303.084 394.998 305.456 391.802 306.633L373.056 313.534L346.087 335.983Z" fill="#FFB6B6"/>
<path d="M131.391 231.176V301.431H180.639V231.176C180.64 230.671 180.478 230.179 180.179 229.772C179.879 229.365 179.456 229.065 178.973 228.916C178.746 228.841 178.507 228.804 178.267 228.806H133.769C133.457 228.806 133.148 228.867 132.86 228.985C132.571 229.104 132.309 229.279 132.088 229.499C131.867 229.719 131.692 229.98 131.572 230.268C131.453 230.556 131.391 230.865 131.391 231.176ZM150.61 255.316C150.623 253.931 151.183 252.607 152.167 251.632C153.152 250.657 154.481 250.111 155.867 250.111C157.253 250.111 158.583 250.657 159.568 251.632C160.552 252.607 161.112 253.931 161.125 255.316V263.468C161.118 264.856 160.561 266.186 159.575 267.165C158.59 268.145 157.257 268.695 155.867 268.695C154.478 268.695 153.145 268.145 152.159 267.165C151.174 266.186 150.617 264.856 150.61 263.468V255.316Z" fill="#200D69"/>
<path d="M131.24 299.184V305.959C131.241 306.309 131.381 306.646 131.629 306.895C131.876 307.143 132.212 307.285 132.563 307.287H179.467C179.819 307.286 180.155 307.145 180.403 306.896C180.651 306.647 180.79 306.31 180.79 305.959V299.184H131.24Z" fill="url(#paint36_linear_297_384)"/>
<path d="M53.916 125.329V253.603C53.9173 255.238 54.5677 256.805 55.7243 257.961C56.8809 259.117 58.4492 259.767 60.0849 259.769H250.292C251.928 259.767 253.497 259.117 254.653 257.961C255.81 256.805 256.46 255.238 256.461 253.603V125.329C256.457 123.696 255.806 122.131 254.65 120.977C253.494 119.822 251.927 119.173 250.292 119.171H60.0849C58.4506 119.173 56.8838 119.822 55.7276 120.977C54.5713 122.131 53.9199 123.696 53.916 125.329Z" fill="url(#paint37_linear_297_384)"/>
<path d="M58.3789 126.925V252.021C58.3804 252.894 58.7282 253.732 59.3462 254.349C59.9642 254.967 60.8019 255.314 61.6758 255.316H248.71C249.584 255.314 250.421 254.967 251.039 254.349C251.657 253.732 252.005 252.895 252.007 252.021V126.925C252.007 126.051 251.66 125.212 251.041 124.593C250.423 123.974 249.585 123.625 248.71 123.624H61.6758C60.8008 123.625 59.9623 123.974 59.3442 124.593C58.7262 125.212 58.379 126.051 58.3789 126.925Z" fill="white"/>
<path d="M93.0883 306.828C93.2787 307.067 93.5206 307.259 93.7961 307.391C94.0715 307.523 94.3732 307.59 94.6785 307.589H205.952C206.256 307.588 206.556 307.52 206.831 307.389C207.106 307.258 207.348 307.068 207.539 306.832C207.731 306.595 207.868 306.319 207.939 306.024C208.011 305.728 208.016 305.42 207.953 305.123L206.226 296.923C206.154 296.589 206 296.278 205.777 296.018C205.555 295.758 205.271 295.559 204.951 295.437C204.719 295.346 204.473 295.3 204.224 295.3H96.3989C96.1503 295.3 95.9038 295.346 95.6724 295.437C95.3527 295.559 95.0685 295.758 94.8459 296.018C94.6232 296.278 94.4691 296.589 94.3975 296.923L92.6702 305.123C92.6087 305.42 92.6144 305.728 92.6867 306.023C92.759 306.318 92.8962 306.593 93.0883 306.828Z" fill="#200D69"/>
<path d="M242.64 140.856H67.6328C67.4509 140.852 67.2778 140.777 67.1506 140.647C67.0234 140.517 66.9521 140.342 66.9521 140.161C66.9521 139.979 67.0234 139.804 67.1506 139.674C67.2778 139.544 67.4509 139.469 67.6328 139.465H242.64C242.822 139.469 242.995 139.544 243.122 139.674C243.249 139.804 243.32 139.979 243.32 140.161C243.32 140.342 243.249 140.517 243.122 140.647C242.995 140.777 242.822 140.852 242.64 140.856Z" fill="url(#paint38_linear_297_384)"/>
<path d="M79.5454 135.914C81.798 135.914 83.624 134.048 83.624 131.747C83.624 129.446 81.798 127.58 79.5454 127.58C77.2929 127.58 75.4668 129.446 75.4668 131.747C75.4668 134.048 77.2929 135.914 79.5454 135.914Z" fill="url(#paint39_linear_297_384)"/>
<path d="M93.6353 135.914C95.8878 135.914 97.7139 134.048 97.7139 131.747C97.7139 129.446 95.8878 127.58 93.6353 127.58C91.3827 127.58 89.5566 129.446 89.5566 131.747C89.5566 134.048 91.3827 135.914 93.6353 135.914Z" fill="url(#paint40_linear_297_384)"/>
<path d="M107.725 135.914C109.978 135.914 111.804 134.048 111.804 131.747C111.804 129.446 109.978 127.58 107.725 127.58C105.473 127.58 103.646 129.446 103.646 131.747C103.646 134.048 105.473 135.914 107.725 135.914Z" fill="url(#paint41_linear_297_384)"/>
<path d="M234.155 128.61H224.148C223.95 128.615 223.762 128.697 223.624 128.838C223.486 128.98 223.408 129.17 223.408 129.367C223.408 129.565 223.486 129.755 223.624 129.897C223.762 130.038 223.95 130.12 224.148 130.124H234.155C234.355 130.122 234.544 130.041 234.684 129.899C234.824 129.757 234.902 129.566 234.902 129.367C234.902 129.168 234.824 128.978 234.684 128.836C234.544 128.694 234.355 128.613 234.155 128.61Z" fill="url(#paint42_linear_297_384)"/>
<path d="M234.154 131.453H224.147C223.949 131.458 223.761 131.539 223.622 131.681C223.484 131.822 223.406 132.012 223.406 132.21C223.406 132.408 223.484 132.598 223.622 132.74C223.761 132.881 223.949 132.963 224.147 132.967H234.154C234.354 132.965 234.544 132.884 234.684 132.742C234.824 132.601 234.903 132.409 234.903 132.21C234.903 132.011 234.824 131.82 234.684 131.678C234.544 131.536 234.354 131.456 234.154 131.453Z" fill="url(#paint43_linear_297_384)"/>
<path d="M234.155 134.296H224.148C223.95 134.301 223.762 134.382 223.624 134.524C223.486 134.665 223.408 134.855 223.408 135.053C223.408 135.251 223.486 135.441 223.624 135.582C223.762 135.723 223.95 135.805 224.148 135.81H234.155C234.355 135.807 234.544 135.726 234.684 135.584C234.824 135.443 234.902 135.252 234.902 135.053C234.902 134.854 234.824 134.663 234.684 134.521C234.544 134.38 234.355 134.299 234.155 134.296Z" fill="url(#paint44_linear_297_384)"/>
<path d="M475.413 302.157C475.715 303.036 476.287 303.796 477.049 304.329C477.81 304.862 478.721 305.14 479.651 305.124L497.809 304.657C498.745 304.639 499.651 304.318 500.389 303.743C501.128 303.168 501.661 302.369 501.908 301.467L504.478 274.007C505.39 274.419 506.382 274.623 507.383 274.603C508.252 274.581 509.109 274.389 509.904 274.036C510.698 273.683 511.416 273.178 512.015 272.548C512.615 271.918 513.084 271.177 513.396 270.366C513.709 269.555 513.859 268.69 513.837 267.821C513.815 266.952 513.622 266.096 513.269 265.302C512.916 264.508 512.41 263.791 511.78 263.192C511.15 262.593 510.408 262.124 509.597 261.811C508.785 261.499 507.92 261.349 507.05 261.371C506.651 261.37 506.252 261.411 505.86 261.495C505.435 261.035 504.918 260.669 504.343 260.421C503.767 260.173 503.146 260.048 502.52 260.054L474.588 260.775C474.356 260.784 474.126 260.812 473.899 260.861C473.286 260.975 472.705 261.219 472.195 261.576C471.685 261.933 471.257 262.396 470.941 262.932C470.624 263.469 470.426 264.067 470.36 264.686C470.295 265.305 470.362 265.931 470.559 266.522L475.413 302.157ZM505.005 272.142L506.833 265.599C507.041 264.843 507.046 264.045 506.847 263.287C506.936 263.287 507.014 263.245 507.103 263.244C508.357 263.219 509.57 263.691 510.476 264.557C511.382 265.423 511.907 266.614 511.936 267.866C511.966 269.119 511.497 270.333 510.632 271.24C509.768 272.148 508.578 272.677 507.325 272.709C506.514 272.735 505.712 272.539 505.005 272.142Z" fill="#2F2E41"/>
<path d="M473.899 260.861C474.494 264.261 481.185 266.652 489.23 266.236C496.627 265.895 502.676 263.299 503.784 260.223C503.374 260.102 502.948 260.045 502.52 260.054L474.588 260.775C474.357 260.784 474.126 260.812 473.899 260.861Z" fill="url(#paint45_linear_297_384)"/>
<path d="M490.704 287.068C490.741 287.058 490.776 287.043 490.808 287.022L494.751 284.443C494.799 284.411 494.838 284.369 494.865 284.319C494.892 284.269 494.906 284.213 494.906 284.156C494.906 284.099 494.892 284.043 494.865 283.993C494.838 283.943 494.799 283.901 494.751 283.87L490.653 281.187C490.615 281.162 490.573 281.145 490.529 281.136C490.484 281.128 490.439 281.128 490.395 281.137C490.35 281.146 490.308 281.164 490.271 281.189C490.234 281.214 490.202 281.247 490.177 281.285C490.152 281.322 490.135 281.365 490.127 281.409C490.119 281.453 490.119 281.499 490.128 281.543C490.138 281.587 490.156 281.629 490.181 281.666C490.207 281.703 490.239 281.735 490.277 281.759L493.938 284.156L490.433 286.449C490.365 286.493 490.315 286.56 490.292 286.638C490.269 286.716 490.274 286.799 490.306 286.873C490.339 286.947 490.397 287.008 490.47 287.043C490.543 287.079 490.626 287.087 490.704 287.068H490.704Z" fill="#6C63FF"/>
<path d="M484.476 287.355C484.542 287.338 484.602 287.302 484.647 287.251C484.693 287.2 484.722 287.137 484.731 287.069C484.74 287.002 484.729 286.933 484.699 286.872C484.669 286.81 484.621 286.759 484.562 286.725L480.927 284.643L484.44 282.035C484.477 282.008 484.507 281.974 484.53 281.936C484.553 281.897 484.568 281.855 484.575 281.81C484.582 281.766 484.579 281.72 484.568 281.677C484.557 281.633 484.538 281.592 484.511 281.556C484.484 281.52 484.451 281.49 484.412 281.466C484.373 281.443 484.331 281.428 484.286 281.422C484.242 281.415 484.196 281.417 484.153 281.428C484.109 281.439 484.068 281.459 484.032 281.485L480.098 284.405C480.053 284.439 480.016 284.484 479.992 284.535C479.968 284.587 479.957 284.644 479.961 284.7C479.964 284.757 479.981 284.812 480.011 284.86C480.041 284.909 480.083 284.949 480.132 284.977L484.221 287.32C484.298 287.364 484.389 287.376 484.476 287.355Z" fill="#6C63FF"/>
<path d="M490.313 289.328C490.346 289.32 490.377 289.306 490.407 289.288C490.445 289.265 490.479 289.234 490.505 289.198C490.532 289.162 490.551 289.121 490.562 289.077C490.572 289.033 490.574 288.988 490.567 288.943C490.56 288.899 490.545 288.856 490.521 288.818L484.931 279.633C484.884 279.555 484.808 279.5 484.719 279.479C484.631 279.457 484.538 279.472 484.46 279.519C484.383 279.566 484.327 279.642 484.306 279.731C484.284 279.819 484.299 279.912 484.346 279.99L489.936 289.174C489.974 289.237 490.031 289.285 490.099 289.313C490.167 289.341 490.242 289.346 490.313 289.328Z" fill="#6C63FF"/>
<path d="M176.046 178.668H145.756C144.52 178.668 143.519 179.669 143.519 180.904V183.862C143.519 185.096 144.52 186.098 145.756 186.098H176.046C177.281 186.098 178.283 185.096 178.283 183.862V180.904C178.283 179.669 177.281 178.668 176.046 178.668Z" fill="#6C63FF"/>
<path d="M193.702 193.527H128.101C126.865 193.527 125.863 194.528 125.863 195.763V198.72C125.863 199.955 126.865 200.956 128.101 200.956H193.702C194.938 200.956 195.939 199.955 195.939 198.72V195.763C195.939 194.528 194.938 193.527 193.702 193.527Z" fill="#E6E6E6"/>
<path d="M193.702 208.386H128.101C126.865 208.386 125.863 209.387 125.863 210.622V213.579C125.863 214.814 126.865 215.815 128.101 215.815H193.702C194.938 215.815 195.939 214.814 195.939 213.579V210.622C195.939 209.387 194.938 208.386 193.702 208.386Z" fill="#E6E6E6"/>
<path d="M199.264 258.142L199.412 258.611L199.42 258.626L203.893 272.215L209.038 287.875L218.718 317.304L218.812 321.875V321.891L219.531 358.665L217.537 363.651L219.781 371.824C219.781 371.824 218.749 359.469 213.213 366.564C210.078 370.597 206.41 374.723 203.4 378.591C207.787 380.365 212.244 381.969 216.771 383.404C217.748 383.717 218.733 384.014 219.719 384.311C219.93 384.373 220.141 384.436 220.352 384.498C235.359 388.934 250.874 391.426 266.516 391.914C267.33 391.938 268.127 391.953 268.901 391.969C269.175 391.977 269.441 391.984 269.707 391.984C270.582 391.992 271.45 392 272.326 392C274.093 392 275.853 391.974 277.604 391.922C290.568 391.557 303.456 389.815 316.051 386.725C315.965 381.529 315.73 375.457 315.394 368.971C315.238 365.791 311.727 362.345 311.516 359.016C311.367 356.515 314.518 354.163 314.354 351.623C313.291 335.987 311.962 341.989 310.976 330.916C310.875 329.83 310.781 328.791 310.695 327.799C310.062 320.688 309.624 316.241 309.624 316.241L313.83 289.743L320.438 248.139L319.929 247.303L319.359 247.022L284.508 229.784L282.616 224.939C282.065 223.543 281.108 222.344 279.87 221.496C278.631 220.648 277.166 220.189 275.665 220.18L252.708 220.086C251.516 220.081 250.341 220.359 249.279 220.899C248.217 221.438 247.299 222.223 246.601 223.188L240.385 231.792L199.264 258.142Z" fill="url(#paint46_linear_297_384)"/>
<path d="M224.01 307.756L218.811 318.875L215.261 326.471L209.154 358.424L206.097 361.667L203.477 350.186L176.062 356.27C175.162 351.276 175.821 356.439 175.266 350.961C175.422 350.805 175.586 350.648 175.75 350.492C176.188 350.086 176.556 349.703 176.548 349.336C176.235 330.441 177.174 298.285 185.008 278.803C186.235 275.623 187.853 272.607 189.825 269.825C189.981 269.614 190.13 269.403 190.278 269.192C193.891 264.136 196.174 259.158 199.411 255.618V255.611C199.431 255.594 199.45 255.576 199.466 255.556C199.478 255.55 199.488 255.542 199.497 255.532L221.735 243.748L222.689 270.536L223.369 289.79L224.01 307.756Z" fill="url(#paint47_linear_297_384)"/>
<path d="M304.195 313.914L310.69 327.802L312.957 332.639L319.062 364.589L322.11 367.824L324.735 356.346L325.969 356.094L348.217 351.489L354.702 372.071C356.163 369.637 356.739 366.773 356.332 363.964C355.924 361.155 354.559 358.573 352.466 356.654C352.023 356.254 351.654 355.864 351.665 355.495C352.034 333.271 350.674 292.691 338.39 275.989C334.489 270.689 332.148 265.41 328.742 261.721C328.731 261.711 328.731 261.7 328.721 261.7L320.433 248.138L319.927 247.306L319.358 247.021L304.195 313.914Z" fill="url(#paint48_linear_297_384)"/>
<path d="M264.849 213.557C281.717 213.557 295.391 199.891 295.391 183.034C295.391 166.177 281.717 152.511 264.849 152.511C247.982 152.511 234.308 166.177 234.308 183.034C234.308 199.891 247.982 213.557 264.849 213.557Z" fill="#FFB6B6"/>
<path d="M306.129 161.714C305.893 161.461 305.607 161.259 305.29 161.119C304.974 160.979 304.632 160.904 304.285 160.899L304.745 159.625C304.895 159.223 304.935 158.789 304.862 158.367C304.789 157.945 304.605 157.55 304.328 157.223C304.052 156.895 303.694 156.647 303.29 156.503C302.886 156.359 302.452 156.326 302.03 156.405L300.358 156.727L300.516 155.611C300.576 155.195 300.527 154.77 300.374 154.379C300.22 153.988 299.967 153.643 299.64 153.379C299.313 153.115 298.923 152.941 298.508 152.873C298.093 152.806 297.668 152.847 297.273 152.994C296.915 153.135 296.529 153.194 296.145 153.167C295.761 153.139 295.388 153.027 295.053 152.836C294.716 152.652 294.424 152.396 294.197 152.088C293.97 151.779 293.813 151.424 293.737 151.048L293.154 148.24L293.092 148.089C290.255 143.363 284.799 139.924 278.122 138.664C272.18 137.533 266.086 138.109 260.212 138.65C257.882 138.869 255.25 139.116 253.056 140.458C251.192 141.609 249.615 143.911 249.937 146.233C244.146 144.459 237.936 148 234.858 152.466C231.211 157.782 230.615 164.44 230.519 169.646C230.259 181.963 232.802 192.039 238.059 199.602C238.443 200.15 238.539 201.294 239.3 201.677L239.142 201.424C239.992 201.848 240.855 202.533 240.533 203.266C239.608 205.376 245.756 210.041 250.088 211.582C257.991 214.398 268.499 214.158 275.888 213.144L276.148 211.397C278.815 211.034 280.693 210.343 281.221 209.26C282.153 208.466 282.948 207.753 283.64 207.096L283.647 207.089C283.661 207.075 283.688 207.055 283.702 207.041C287.04 203.842 287.814 202.02 288.164 199.246C288.5 196.526 287.904 193.765 287.294 191.279C300.139 193.265 282.235 177.606 294.203 174.578C294.34 174.536 294.48 174.502 294.621 174.476C294.97 174.393 295.32 174.311 295.656 174.215C297.275 173.776 298.825 173.115 300.262 172.249C303.607 170.215 304.71 167.516 306.438 164.475C306.687 164.042 306.791 163.54 306.736 163.044C306.68 162.547 306.468 162.081 306.129 161.714Z" fill="#010329"/>
<path d="M372.871 316.087C372.864 317.286 372.85 318.964 372.795 321.04C372.788 321.327 372.782 321.622 372.775 321.923C372.686 325.739 372.596 328.938 372.453 332.493C372.446 332.739 372.439 332.979 372.425 333.226C372.233 338.185 371.932 343.96 371.411 353.105C370.444 369.997 368.758 355.427 367.065 361.352C366.983 361.647 366.894 361.996 366.811 362.407C366.555 363.898 366.122 365.354 365.523 366.743C364.625 367.277 363.7 367.791 362.788 368.305C360.19 369.75 357.551 371.141 354.892 372.463C353.397 373.203 351.896 373.929 350.388 374.628C350.149 374.737 349.916 374.847 349.682 374.95C341.96 378.519 334.002 381.554 325.864 384.033C324.273 384.512 322.69 384.978 321.086 385.41C319.414 385.875 317.741 386.314 316.048 386.725C303.454 389.815 290.566 391.558 277.602 391.924C275.855 391.979 274.093 391.999 272.325 391.999C271.447 391.999 270.584 391.993 269.706 391.986C269.439 391.986 269.172 391.979 268.904 391.972C268.13 391.951 267.328 391.938 266.519 391.917C250.877 391.43 235.362 388.936 220.355 384.499L219.718 384.314C218.731 384.012 217.75 383.718 216.77 383.403C212.246 381.971 207.789 380.368 203.397 378.594C200.046 377.244 196.733 375.797 193.459 374.251C193.429 374.243 193.401 374.229 193.376 374.21C192.691 373.895 191.999 373.566 191.313 373.23C191.224 373.182 191.128 373.134 191.032 373.086C188.475 371.84 185.946 370.534 183.444 369.168C181.34 364.339 178.379 363.414 176.542 359.167C176.007 357.905 175.621 356.586 175.391 355.235C175.391 355.221 175.384 355.208 175.384 355.187C175.576 357.735 174.568 350.666 175.377 355.16C175.37 355.078 175.363 354.988 175.356 354.886C175.336 354.639 175.308 354.338 175.267 353.961C172.916 331.02 173.067 304.784 172.046 283.166C171.977 281.768 171.906 280.43 171.833 279.151C171.813 278.727 171.785 278.309 171.758 277.898C171.806 277.775 171.861 277.644 171.922 277.521C171.935 277.486 171.951 277.451 171.97 277.418C171.991 277.376 172.013 277.335 172.039 277.295C172.053 277.275 172.073 277.247 172.087 277.227C172.097 277.203 172.108 277.18 172.121 277.158C172.183 277.062 172.251 276.959 172.327 276.864C172.361 276.822 172.388 276.788 172.423 276.754C172.446 276.719 172.474 276.687 172.505 276.658C172.526 276.625 172.551 276.595 172.58 276.569C172.608 276.542 172.635 276.507 172.669 276.473C172.684 276.452 172.703 276.433 172.724 276.418C172.778 276.356 172.838 276.299 172.902 276.247C173.147 276.022 173.408 275.816 173.684 275.631C173.78 275.569 173.883 275.507 173.979 275.439C174.669 275.026 175.397 274.677 176.151 274.398C176.412 274.302 176.672 274.213 176.953 274.117C177.056 274.089 177.152 274.055 177.255 274.021C177.406 273.973 177.557 273.925 177.714 273.891C178.496 273.658 179.339 273.459 180.25 273.274C180.36 273.254 180.477 273.233 180.593 273.206C180.758 273.171 180.929 273.144 181.1 273.117C181.333 273.075 181.573 273.034 181.813 272.993C183.849 272.671 186.159 272.432 188.709 272.274C188.948 272.26 189.188 272.247 189.428 272.233C189.709 272.219 189.99 272.206 190.278 272.192C190.518 272.178 190.765 272.171 191.012 272.164C191.252 272.151 191.498 272.144 191.752 272.137C192.444 272.116 193.157 272.096 193.884 272.082C195.954 272.041 198.133 272.055 200.423 272.103C201.485 272.13 202.568 272.158 203.678 272.205C203.754 272.205 203.822 272.212 203.891 272.212C204.857 272.247 205.831 272.288 206.831 272.342C207.531 272.377 208.237 272.411 208.943 272.452C209.607 272.493 210.279 272.534 210.958 272.582C211.485 272.61 212.013 272.651 212.548 272.685C213 272.719 213.453 272.754 213.905 272.781L214.522 272.822C214.858 272.849 215.194 272.87 215.536 272.904C216.29 272.966 217.044 273.028 217.812 273.089C218.573 273.158 219.347 273.226 220.122 273.295C220.896 273.363 221.678 273.439 222.459 273.514C222.541 273.521 222.617 273.528 222.692 273.534C223.405 273.61 224.118 273.678 224.838 273.754C225.002 273.767 225.174 273.781 225.338 273.802C226.024 273.87 226.724 273.951 227.416 274.025C227.629 274.048 227.84 274.07 228.053 274.093C228.596 274.152 229.131 274.203 229.677 274.267C230.396 274.35 231.13 274.425 231.843 274.521C232.398 274.582 232.953 274.644 233.508 274.713C234.379 274.815 235.263 274.925 236.147 275.041C236.483 275.083 236.819 275.124 237.155 275.172C239.677 275.487 242.227 275.836 244.818 276.199C248.746 276.754 252.735 277.357 256.751 278.008C260.775 278.658 264.821 279.346 268.89 280.069C269.919 280.254 270.947 280.439 271.982 280.631C272.448 280.72 272.914 280.809 273.38 280.898C274.175 281.042 274.97 281.193 275.765 281.343C276.56 281.494 277.356 281.645 278.151 281.802C279.097 281.987 280.049 282.172 280.995 282.357C287.226 283.59 293.422 284.905 299.468 286.282C300.461 286.508 301.455 286.741 302.442 286.967C304.416 287.426 306.372 287.892 308.31 288.365C308.844 288.488 309.372 288.618 309.9 288.748C311.216 289.077 312.532 289.406 313.827 289.742L314.054 289.803C315.006 290.036 315.939 290.276 316.871 290.523C319.071 291.098 321.235 291.68 323.362 292.269C324.774 292.66 326.17 293.055 327.55 293.454C329.613 294.05 331.635 294.653 333.602 295.263C334.089 295.413 334.575 295.564 335.055 295.708C336.495 296.153 337.913 296.605 339.291 297.057C340.388 297.414 341.457 297.777 342.513 298.14C343.568 298.503 344.603 298.866 345.618 299.229C346.269 299.462 346.913 299.708 347.558 299.941C348.483 300.284 349.395 300.626 350.286 300.969C350.56 301.072 350.827 301.181 351.094 301.284C351.266 301.359 351.43 301.421 351.595 301.489C351.917 301.62 352.246 301.743 352.561 301.873C352.883 301.996 353.199 302.127 353.514 302.264C353.822 302.387 354.138 302.517 354.439 302.647C354.748 302.77 355.049 302.901 355.351 303.038C355.605 303.14 355.851 303.25 356.091 303.36C356.578 303.572 357.064 303.784 357.537 304.003C357.771 304.113 358.004 304.216 358.237 304.325L358.771 304.572C358.847 304.613 358.922 304.647 358.997 304.682C359.169 304.764 359.347 304.853 359.518 304.935C359.916 305.12 360.307 305.319 360.69 305.504C361.204 305.764 361.705 306.024 362.185 306.278C362.671 306.538 363.144 306.798 363.597 307.052C363.672 307.093 363.741 307.134 363.816 307.175C363.919 307.23 364.022 307.291 364.124 307.346C364.474 307.545 364.81 307.75 365.146 307.949C365.804 308.353 366.427 308.751 367.01 309.148C367.14 309.237 367.264 309.326 367.394 309.408C367.826 309.716 368.237 310.018 368.621 310.326C368.621 310.333 368.621 310.333 368.628 310.333C368.758 310.429 368.881 310.532 369.005 310.627C369.108 310.723 369.217 310.806 369.32 310.901C369.676 311.21 370.005 311.504 370.307 311.806C370.408 311.899 370.504 311.997 370.595 312.1C370.635 312.133 370.672 312.17 370.705 312.21C370.842 312.347 370.965 312.484 371.082 312.621C371.1 312.64 371.116 312.66 371.13 312.682C371.294 312.874 371.445 313.066 371.589 313.258C371.657 313.354 371.733 313.45 371.794 313.546C371.877 313.662 371.959 313.785 372.027 313.902C372.089 313.998 372.144 314.1 372.199 314.196C372.344 314.443 372.468 314.702 372.569 314.97C372.646 315.152 372.708 315.34 372.754 315.532C372.806 315.714 372.845 315.899 372.871 316.087Z" fill="#200D69"/>
<path opacity="0.2" d="M372.87 316.087C372.863 317.286 372.849 318.964 372.794 321.04C372.787 321.327 372.774 321.622 372.767 321.923C372.698 324.834 372.595 328.431 372.452 332.493C372.445 332.739 372.438 332.979 372.424 333.226C372.232 338.185 371.931 343.96 371.41 353.105C370.443 369.997 368.757 355.427 367.064 361.352C362.362 358.461 357.207 355.434 351.697 352.324C350.703 351.762 349.7 351.198 348.688 350.632C337.666 344.487 325.355 338.048 312.504 331.671C311.996 331.417 311.482 331.164 310.975 330.917C281.536 316.375 249.403 302.229 223.37 292.79C218.346 290.968 213.548 289.324 209.038 287.878C199.537 284.844 191.326 282.72 185.006 281.802C178.426 280.843 173.882 281.186 172.045 283.166C171.976 281.768 171.905 280.43 171.832 279.151C171.805 278.727 171.777 278.309 171.75 277.898C171.792 277.785 171.847 277.677 171.9 277.569C171.908 277.553 171.914 277.537 171.921 277.521C171.934 277.486 171.951 277.451 171.969 277.418C171.99 277.376 172.012 277.335 172.038 277.295C172.06 277.247 172.088 277.201 172.12 277.158C172.182 277.062 172.25 276.959 172.326 276.863C172.381 276.792 172.441 276.723 172.504 276.658C172.525 276.625 172.55 276.595 172.579 276.569C172.607 276.542 172.634 276.507 172.668 276.473C172.683 276.451 172.702 276.433 172.723 276.418C172.778 276.356 172.837 276.299 172.902 276.247C173.146 276.022 173.407 275.816 173.683 275.63C173.779 275.569 173.882 275.507 173.978 275.439C174.668 275.026 175.396 274.677 176.15 274.397C176.411 274.302 176.671 274.213 176.952 274.117C177.055 274.089 177.151 274.055 177.254 274.021C177.405 273.973 177.556 273.925 177.713 273.891C178.495 273.658 179.338 273.459 180.249 273.274C180.524 273.219 180.811 273.164 181.099 273.117C181.332 273.075 181.572 273.034 181.812 272.993C183.848 272.671 186.158 272.432 188.708 272.274C188.948 272.26 189.187 272.247 189.427 272.233C189.708 272.219 189.989 272.205 190.277 272.192C190.517 272.178 190.764 272.171 191.011 272.164C191.251 272.151 191.497 272.144 191.751 272.137C192.443 272.116 193.156 272.096 193.883 272.082C195.953 272.048 198.132 272.062 200.422 272.11C201.484 272.13 202.567 272.164 203.677 272.212C203.746 272.212 203.821 272.219 203.89 272.219C204.856 272.247 205.837 272.295 206.83 272.342C207.53 272.377 208.236 272.411 208.942 272.452C209.606 272.493 210.278 272.534 210.957 272.582C211.485 272.61 212.012 272.651 212.547 272.685C212.999 272.719 213.452 272.753 213.904 272.781C214.446 272.822 214.987 272.863 215.535 272.904C216.289 272.966 217.043 273.027 217.811 273.089C218.572 273.158 219.346 273.226 220.121 273.295C220.895 273.363 221.677 273.438 222.458 273.514C222.541 273.521 222.616 273.528 222.691 273.534C223.404 273.61 224.117 273.678 224.837 273.754C228.826 274.158 232.932 274.63 237.154 275.172C239.676 275.494 242.231 275.838 244.817 276.206C248.745 276.761 252.734 277.364 256.75 278.007C260.774 278.658 264.82 279.345 268.889 280.069C269.918 280.254 270.946 280.439 271.981 280.631C273.242 280.864 274.503 281.101 275.764 281.343C276.559 281.494 277.355 281.645 278.15 281.802C279.096 281.987 280.048 282.172 280.994 282.357C287.225 283.59 293.421 284.905 299.467 286.282C300.461 286.508 301.454 286.741 302.441 286.967C304.415 287.426 306.371 287.892 308.309 288.365C308.843 288.495 309.371 288.625 309.899 288.755C311.222 289.084 312.531 289.413 313.826 289.742V289.748C313.902 289.762 313.977 289.783 314.053 289.803C314.999 290.043 315.938 290.283 316.87 290.529C319.07 291.105 321.234 291.685 323.361 292.269C324.773 292.667 326.171 293.057 327.549 293.454C329.612 294.057 331.634 294.66 333.601 295.263C334.088 295.413 334.574 295.564 335.054 295.708C336.494 296.16 337.906 296.61 339.29 297.057C340.387 297.414 341.456 297.777 342.512 298.14C343.567 298.503 344.602 298.866 345.617 299.229C346.275 299.462 346.919 299.702 347.557 299.934C348.489 300.277 349.394 300.62 350.285 300.969C350.559 301.072 350.826 301.181 351.093 301.284C351.594 301.476 352.08 301.674 352.56 301.873C352.882 301.996 353.198 302.127 353.513 302.264C353.821 302.387 354.137 302.517 354.438 302.647C354.747 302.77 355.048 302.901 355.35 303.038C355.604 303.14 355.85 303.25 356.09 303.36C356.577 303.572 357.064 303.784 357.536 304.003C357.77 304.113 358.003 304.216 358.236 304.325L358.77 304.572C358.846 304.613 358.921 304.647 358.996 304.682C359.579 304.956 360.141 305.23 360.689 305.504C361.204 305.764 361.704 306.024 362.184 306.278C362.753 306.579 363.294 306.874 363.815 307.175C363.918 307.23 364.021 307.291 364.123 307.346C364.473 307.545 364.809 307.75 365.145 307.949C365.803 308.353 366.427 308.75 367.009 309.148C367.585 309.545 368.12 309.936 368.62 310.326C368.62 310.333 368.62 310.333 368.627 310.333C368.867 310.525 369.1 310.716 369.319 310.901C369.675 311.21 370.004 311.504 370.306 311.806C370.407 311.899 370.503 311.997 370.594 312.1C370.634 312.133 370.671 312.17 370.704 312.21C370.848 312.367 370.992 312.525 371.129 312.682C371.293 312.874 371.444 313.066 371.588 313.258C371.656 313.354 371.732 313.45 371.793 313.546C371.876 313.662 371.958 313.785 372.027 313.902C372.088 313.998 372.143 314.1 372.198 314.196C372.343 314.443 372.467 314.702 372.568 314.97C372.643 315.153 372.705 315.341 372.753 315.532C372.805 315.714 372.844 315.899 372.87 316.087Z" fill="black"/>
</g>
<defs>
<linearGradient id="paint0_linear_297_384" x1="119.29" y1="141.197" x2="420.634" y2="141.197" gradientUnits="userSpaceOnUse">
<stop stop-color="#21D4FD"/>
<stop offset="1" stop-color="#B721FF"/>
</linearGradient>
<linearGradient id="paint1_linear_297_384" x1="0" y1="307.75" x2="539.312" y2="307.75" gradientUnits="userSpaceOnUse">
<stop stop-color="#21D4FD"/>
<stop offset="1" stop-color="#B721FF"/>
</linearGradient>
<linearGradient id="paint2_linear_297_384" x1="339.584" y1="263.348" x2="432.284" y2="263.348" gradientUnits="userSpaceOnUse">
<stop stop-color="#21D4FD"/>
<stop offset="1" stop-color="#B721FF"/>
</linearGradient>
<linearGradient id="paint3_linear_297_384" x1="430.2" y1="296.59" x2="427.329" y2="296.59" gradientUnits="userSpaceOnUse">
<stop stop-color="#21D4FD"/>
<stop offset="1" stop-color="#B721FF"/>
</linearGradient>
<linearGradient id="paint4_linear_297_384" x1="424.458" y1="296.59" x2="421.587" y2="296.59" gradientUnits="userSpaceOnUse">
<stop stop-color="#21D4FD"/>
<stop offset="1" stop-color="#B721FF"/>
</linearGradient>
<linearGradient id="paint5_linear_297_384" x1="418.716" y1="296.59" x2="415.845" y2="296.59" gradientUnits="userSpaceOnUse">
<stop stop-color="#21D4FD"/>
<stop offset="1" stop-color="#B721FF"/>
</linearGradient>
<linearGradient id="paint6_linear_297_384" x1="412.975" y1="296.59" x2="410.104" y2="296.59" gradientUnits="userSpaceOnUse">
<stop stop-color="#21D4FD"/>
<stop offset="1" stop-color="#B721FF"/>
</linearGradient>
<linearGradient id="paint7_linear_297_384" x1="407.232" y1="296.59" x2="404.361" y2="296.59" gradientUnits="userSpaceOnUse">
<stop stop-color="#21D4FD"/>
<stop offset="1" stop-color="#B721FF"/>
</linearGradient>
<linearGradient id="paint8_linear_297_384" x1="401.49" y1="296.59" x2="398.619" y2="296.59" gradientUnits="userSpaceOnUse">
<stop stop-color="#21D4FD"/>
<stop offset="1" stop-color="#B721FF"/>
</linearGradient>
<linearGradient id="paint9_linear_297_384" x1="395.749" y1="296.59" x2="392.878" y2="296.59" gradientUnits="userSpaceOnUse">
<stop stop-color="#21D4FD"/>
<stop offset="1" stop-color="#B721FF"/>
</linearGradient>
<linearGradient id="paint10_linear_297_384" x1="390.007" y1="296.59" x2="387.136" y2="296.59" gradientUnits="userSpaceOnUse">
<stop stop-color="#21D4FD"/>
<stop offset="1" stop-color="#B721FF"/>
</linearGradient>
<linearGradient id="paint11_linear_297_384" x1="384.265" y1="296.59" x2="381.394" y2="296.59" gradientUnits="userSpaceOnUse">
<stop stop-color="#21D4FD"/>
<stop offset="1" stop-color="#B721FF"/>
</linearGradient>
<linearGradient id="paint12_linear_297_384" x1="378.523" y1="296.59" x2="375.653" y2="296.59" gradientUnits="userSpaceOnUse">
<stop stop-color="#21D4FD"/>
<stop offset="1" stop-color="#B721FF"/>
</linearGradient>
<linearGradient id="paint13_linear_297_384" x1="372.781" y1="296.59" x2="369.91" y2="296.59" gradientUnits="userSpaceOnUse">
<stop stop-color="#21D4FD"/>
<stop offset="1" stop-color="#B721FF"/>
</linearGradient>
<linearGradient id="paint14_linear_297_384" x1="367.039" y1="296.59" x2="364.168" y2="296.59" gradientUnits="userSpaceOnUse">
<stop stop-color="#21D4FD"/>
<stop offset="1" stop-color="#B721FF"/>
</linearGradient>
<linearGradient id="paint15_linear_297_384" x1="361.297" y1="296.59" x2="358.426" y2="296.59" gradientUnits="userSpaceOnUse">
<stop stop-color="#21D4FD"/>
<stop offset="1" stop-color="#B721FF"/>
</linearGradient>
<linearGradient id="paint16_linear_297_384" x1="355.556" y1="296.59" x2="352.685" y2="296.59" gradientUnits="userSpaceOnUse">
<stop stop-color="#21D4FD"/>
<stop offset="1" stop-color="#B721FF"/>
</linearGradient>
<linearGradient id="paint17_linear_297_384" x1="349.813" y1="296.59" x2="346.943" y2="296.59" gradientUnits="userSpaceOnUse">
<stop stop-color="#21D4FD"/>
<stop offset="1" stop-color="#B721FF"/>
</linearGradient>
<linearGradient id="paint18_linear_297_384" x1="344.071" y1="296.59" x2="341.2" y2="296.59" gradientUnits="userSpaceOnUse">
<stop stop-color="#21D4FD"/>
<stop offset="1" stop-color="#B721FF"/>
</linearGradient>
<linearGradient id="paint19_linear_297_384" x1="430.268" y1="299.459" x2="427.397" y2="299.459" gradientUnits="userSpaceOnUse">
<stop stop-color="#21D4FD"/>
<stop offset="1" stop-color="#B721FF"/>
</linearGradient>
<linearGradient id="paint20_linear_297_384" x1="424.525" y1="299.459" x2="421.655" y2="299.459" gradientUnits="userSpaceOnUse">
<stop stop-color="#21D4FD"/>
<stop offset="1" stop-color="#B721FF"/>
</linearGradient>
<linearGradient id="paint21_linear_297_384" x1="418.783" y1="299.459" x2="415.912" y2="299.459" gradientUnits="userSpaceOnUse">
<stop stop-color="#21D4FD"/>
<stop offset="1" stop-color="#B721FF"/>
</linearGradient>
<linearGradient id="paint22_linear_297_384" x1="413.042" y1="299.459" x2="410.171" y2="299.459" gradientUnits="userSpaceOnUse">
<stop stop-color="#21D4FD"/>
<stop offset="1" stop-color="#B721FF"/>
</linearGradient>
<linearGradient id="paint23_linear_297_384" x1="407.3" y1="299.459" x2="404.429" y2="299.459" gradientUnits="userSpaceOnUse">
<stop stop-color="#21D4FD"/>
<stop offset="1" stop-color="#B721FF"/>
</linearGradient>
<linearGradient id="paint24_linear_297_384" x1="401.558" y1="299.459" x2="398.687" y2="299.459" gradientUnits="userSpaceOnUse">
<stop stop-color="#21D4FD"/>
<stop offset="1" stop-color="#B721FF"/>
</linearGradient>
<linearGradient id="paint25_linear_297_384" x1="395.816" y1="299.459" x2="392.945" y2="299.459" gradientUnits="userSpaceOnUse">
<stop stop-color="#21D4FD"/>
<stop offset="1" stop-color="#B721FF"/>
</linearGradient>
<linearGradient id="paint26_linear_297_384" x1="390.074" y1="299.459" x2="387.203" y2="299.459" gradientUnits="userSpaceOnUse">
<stop stop-color="#21D4FD"/>
<stop offset="1" stop-color="#B721FF"/>
</linearGradient>
<linearGradient id="paint27_linear_297_384" x1="384.333" y1="299.459" x2="381.462" y2="299.459" gradientUnits="userSpaceOnUse">
<stop stop-color="#21D4FD"/>
<stop offset="1" stop-color="#B721FF"/>
</linearGradient>
<linearGradient id="paint28_linear_297_384" x1="378.591" y1="299.459" x2="375.72" y2="299.459" gradientUnits="userSpaceOnUse">
<stop stop-color="#21D4FD"/>
<stop offset="1" stop-color="#B721FF"/>
</linearGradient>
<linearGradient id="paint29_linear_297_384" x1="372.85" y1="299.459" x2="369.979" y2="299.459" gradientUnits="userSpaceOnUse">
<stop stop-color="#21D4FD"/>
<stop offset="1" stop-color="#B721FF"/>
</linearGradient>
<linearGradient id="paint30_linear_297_384" x1="367.107" y1="299.459" x2="364.237" y2="299.459" gradientUnits="userSpaceOnUse">
<stop stop-color="#21D4FD"/>
<stop offset="1" stop-color="#B721FF"/>
</linearGradient>
<linearGradient id="paint31_linear_297_384" x1="361.365" y1="299.459" x2="358.494" y2="299.459" gradientUnits="userSpaceOnUse">
<stop stop-color="#21D4FD"/>
<stop offset="1" stop-color="#B721FF"/>
</linearGradient>
<linearGradient id="paint32_linear_297_384" x1="355.623" y1="299.459" x2="352.752" y2="299.459" gradientUnits="userSpaceOnUse">
<stop stop-color="#21D4FD"/>
<stop offset="1" stop-color="#B721FF"/>
</linearGradient>
<linearGradient id="paint33_linear_297_384" x1="349.882" y1="299.459" x2="347.011" y2="299.459" gradientUnits="userSpaceOnUse">
<stop stop-color="#21D4FD"/>
<stop offset="1" stop-color="#B721FF"/>
</linearGradient>
<linearGradient id="paint34_linear_297_384" x1="344.14" y1="299.459" x2="341.269" y2="299.459" gradientUnits="userSpaceOnUse">
<stop stop-color="#21D4FD"/>
<stop offset="1" stop-color="#B721FF"/>
</linearGradient>
<linearGradient id="paint35_linear_297_384" x1="402.707" y1="302.902" x2="379.74" y2="302.902" gradientUnits="userSpaceOnUse">
<stop stop-color="#21D4FD"/>
<stop offset="1" stop-color="#B721FF"/>
</linearGradient>
<linearGradient id="paint36_linear_297_384" x1="131.24" y1="303.236" x2="180.79" y2="303.236" gradientUnits="userSpaceOnUse">
<stop stop-color="#21D4FD"/>
<stop offset="1" stop-color="#B721FF"/>
</linearGradient>
<linearGradient id="paint37_linear_297_384" x1="53.916" y1="189.47" x2="256.461" y2="189.47" gradientUnits="userSpaceOnUse">
<stop stop-color="#21D4FD"/>
<stop offset="1" stop-color="#B721FF"/>
</linearGradient>
<linearGradient id="paint38_linear_297_384" x1="66.9521" y1="140.161" x2="243.32" y2="140.16" gradientUnits="userSpaceOnUse">
<stop stop-color="#21D4FD"/>
<stop offset="1" stop-color="#B721FF"/>
</linearGradient>
<linearGradient id="paint39_linear_297_384" x1="75.4668" y1="131.747" x2="83.624" y2="131.747" gradientUnits="userSpaceOnUse">
<stop stop-color="#21D4FD"/>
<stop offset="1" stop-color="#B721FF"/>
</linearGradient>
<linearGradient id="paint40_linear_297_384" x1="89.5566" y1="131.747" x2="97.7139" y2="131.747" gradientUnits="userSpaceOnUse">
<stop stop-color="#21D4FD"/>
<stop offset="1" stop-color="#B721FF"/>
</linearGradient>
<linearGradient id="paint41_linear_297_384" x1="103.646" y1="131.747" x2="111.804" y2="131.747" gradientUnits="userSpaceOnUse">
<stop stop-color="#21D4FD"/>
<stop offset="1" stop-color="#B721FF"/>
</linearGradient>
<linearGradient id="paint42_linear_297_384" x1="223.408" y1="129.367" x2="234.902" y2="129.367" gradientUnits="userSpaceOnUse">
<stop stop-color="#21D4FD"/>
<stop offset="1" stop-color="#B721FF"/>
</linearGradient>
<linearGradient id="paint43_linear_297_384" x1="223.406" y1="132.21" x2="234.903" y2="132.21" gradientUnits="userSpaceOnUse">
<stop stop-color="#21D4FD"/>
<stop offset="1" stop-color="#B721FF"/>
</linearGradient>
<linearGradient id="paint44_linear_297_384" x1="223.408" y1="135.053" x2="234.902" y2="135.053" gradientUnits="userSpaceOnUse">
<stop stop-color="#21D4FD"/>
<stop offset="1" stop-color="#B721FF"/>
</linearGradient>
<linearGradient id="paint45_linear_297_384" x1="473.899" y1="263.168" x2="503.784" y2="263.168" gradientUnits="userSpaceOnUse">
<stop stop-color="#21D4FD"/>
<stop offset="1" stop-color="#B721FF"/>
</linearGradient>
<linearGradient id="paint46_linear_297_384" x1="199.264" y1="306.043" x2="320.438" y2="306.043" gradientUnits="userSpaceOnUse">
<stop stop-color="#212AFD"/>
<stop offset="1" stop-color="#21CAFF"/>
</linearGradient>
<linearGradient id="paint47_linear_297_384" x1="175.266" y1="302.707" x2="224.01" y2="302.707" gradientUnits="userSpaceOnUse">
<stop stop-color="#2137FD"/>
<stop offset="1" stop-color="#216CFF"/>
</linearGradient>
<linearGradient id="paint48_linear_297_384" x1="304.195" y1="309.546" x2="356.459" y2="309.546" gradientUnits="userSpaceOnUse">
<stop stop-color="#2179FD"/>
<stop offset="1" stop-color="#2137FF"/>
</linearGradient>
<clipPath id="clip0_297_384">
<rect width="539.312" height="392" fill="white"/>
</clipPath>
</defs>
</svg>
