<svg width="50" height="50" viewBox="0 0 50 50" fill="none" xmlns="http://www.w3.org/2000/svg">
<path d="M24.2812 20.5075L24.7803 20.4772L24.78 20.4725L24.2812 20.5075ZM24.3316 21.338L24.2714 21.8343L24.867 21.9065L24.8306 21.3077L24.3316 21.338ZM27.5548 15.6265L27.3891 15.1547L27.384 15.1565L27.5548 15.6265ZM30.4926 15.5587L30.6376 15.08L30.6261 15.0768L30.4926 15.5587ZM31.9195 16.3044L32.2007 15.8909L32.1987 15.8896L31.9195 16.3044ZM32.7421 16.8637L32.461 17.2772L32.6619 17.4138L32.8936 17.3402L32.7421 16.8637ZM33.6486 16.5756L33.5037 16.097L33.4972 16.099L33.6486 16.5756ZM35.1259 15.9993L34.8902 15.5583L34.8813 15.5632L35.1259 15.9993ZM34.5216 17.6263L34.1608 17.2801L34.1544 17.2869L34.5216 17.6263ZM35.4449 17.9483L35.2854 17.4744L35.2771 17.4774L35.4449 17.9483ZM36.15 17.9822L36.5798 18.2377L36.5869 18.2257L36.5933 18.2134L36.15 17.9822ZM34.9748 19.2872L34.6251 18.9299L34.6228 18.9322L34.9748 19.2872ZM32.8428 26.1851L32.3811 25.9931L32.3803 25.9952L32.8428 26.1851ZM27.2526 32.7609L27.5066 33.1916L27.5069 33.1914L27.2526 32.7609ZM16.24 34.0151L16.0907 34.4923L16.0928 34.4929L16.24 34.0151ZM14.3766 32.3881L14.3658 31.8882L14.3654 31.8882L14.3766 32.3881ZM18.8756 31.1339L19.1267 31.5664L19.1323 31.563L18.8756 31.1339ZM19.7822 30.5916L20.0389 31.0207L20.9639 30.4673L19.9439 30.1185L19.7822 30.5916ZM18.7413 30.2357L18.5786 30.7085L18.5795 30.7088L18.7413 30.2357ZM15.6021 27.4562L15.1209 27.5924L15.1238 27.602L15.6021 27.4562ZM16.475 27.0833V27.5834L16.4837 27.5833L16.475 27.0833ZM17.4487 27.0664L17.4574 27.5663L17.6628 26.6146L17.4487 27.0664ZM16.6261 26.6766L16.4007 27.1231L16.412 27.1284L16.6261 26.6766ZM14.3262 24.5072L14.7707 24.2783L14.7693 24.2756L14.3262 24.5072ZM13.7219 22.2362L14.0771 22.5881L14.1119 22.553L14.1391 22.5117L13.7219 22.2362ZM14.5109 22.4226L14.6827 21.9529L14.6703 21.9487L14.5109 22.4226ZM15.1488 22.0328L15.5126 21.6897L15.5064 21.6833L15.1488 22.0328ZM14.108 17.0162L13.6361 16.8507L13.6336 16.8581L14.108 17.0162ZM14.3934 16.2027L14.7459 15.8481L14.1839 15.2894L13.9216 16.0372L14.3934 16.2027ZM15.5013 17.3043L15.1488 17.6589L15.1514 17.6615L15.5013 17.3043ZM23.4922 21.2363L23.4289 21.7323L23.4321 21.7326L23.4922 21.2363ZM1.5 25C1.5 12.0213 12.0213 1.5 25 1.5V0.5C11.469 0.5 0.5 11.469 0.5 25H1.5ZM25 48.5C12.0213 48.5 1.5 37.9787 1.5 25H0.5C0.5 38.531 11.469 49.5 25 49.5V48.5ZM48.5 25C48.5 37.9787 37.9787 48.5 25 48.5V49.5C38.531 49.5 49.5 38.531 49.5 25H48.5ZM25 1.5C37.9787 1.5 48.5 12.0213 48.5 25H49.5C49.5 11.469 38.531 0.5 25 0.5V1.5ZM23.7821 20.5378L23.8325 21.3682L24.8306 21.3077L24.7803 20.4772L23.7821 20.5378ZM27.384 15.1565C25.088 15.991 23.6148 18.1547 23.7824 20.5425L24.78 20.4725C24.6454 18.5555 25.8246 16.7873 27.7256 16.0964L27.384 15.1565ZM30.6261 15.0768C30.1375 14.9414 29.5444 14.8885 28.9802 14.902C28.4178 14.9155 27.8411 14.996 27.3891 15.1547L27.7204 16.0982C28.0407 15.9858 28.5048 15.9137 29.0042 15.9018C29.5018 15.8898 29.9915 15.9386 30.359 16.0405L30.6261 15.0768ZM32.1987 15.8896C31.7298 15.574 31.0435 15.2031 30.6375 15.0801L30.3476 16.0372C30.6132 16.1176 31.2027 16.4247 31.6403 16.7192L32.1987 15.8896ZM33.0232 16.4502L32.2006 15.8909L31.6384 16.7179L32.461 17.2772L33.0232 16.4502ZM33.4972 16.099L32.5907 16.3872L32.8936 17.3402L33.8001 17.0521L33.4972 16.099ZM34.8813 15.5632C34.6275 15.7056 33.9977 15.9474 33.5037 16.097L33.7936 17.0541C34.3068 16.8987 35.0201 16.632 35.3705 16.4354L34.8813 15.5632ZM36.1631 15.8129C36.1631 15.6972 36.1235 15.5727 36.0325 15.4712C35.9502 15.3793 35.8554 15.3393 35.7965 15.3215C35.6892 15.289 35.5956 15.2986 35.5631 15.3023C35.4799 15.3117 35.3982 15.3366 35.339 15.357C35.2088 15.4017 35.0496 15.4732 34.8902 15.5584L35.3616 16.4403C35.4876 16.3729 35.597 16.3257 35.6641 16.3027C35.7035 16.2891 35.7026 16.2929 35.6756 16.2959C35.6712 16.2964 35.5994 16.3066 35.507 16.2786C35.4556 16.2631 35.3665 16.2263 35.2879 16.1387C35.2007 16.0414 35.1631 15.9222 35.1631 15.8129H36.1631ZM34.8824 17.9725C35.1719 17.6708 35.4774 17.2607 35.7105 16.8909C35.8277 16.705 35.9327 16.5196 36.0104 16.3543C36.0492 16.2718 36.0845 16.1873 36.111 16.1055C36.1352 16.0311 36.1631 15.9261 36.1631 15.8129H35.1631C35.1631 15.7717 35.1717 15.7605 35.1598 15.7971C35.1503 15.8263 35.133 15.8701 35.1055 15.9288C35.0505 16.0457 34.9677 16.194 34.8645 16.3577C34.6569 16.687 34.3917 17.0395 34.1608 17.2801L34.8824 17.9725ZM35.2771 17.4774C34.9235 17.6033 34.6611 17.688 34.4758 17.7353C34.3828 17.7591 34.322 17.77 34.2862 17.7739C34.2367 17.7792 34.2754 17.7666 34.3475 17.7916C34.3915 17.8068 34.4631 17.8416 34.5261 17.9164C34.5924 17.9953 34.6205 18.0847 34.6262 18.1594C34.6352 18.2782 34.5878 18.3437 34.6061 18.3104C34.6313 18.2645 34.7117 18.1573 34.8887 17.9658L34.1544 17.2869C33.9789 17.4767 33.8201 17.664 33.7294 17.8294C33.6897 17.9018 33.6151 18.0521 33.6291 18.2354C33.6372 18.3424 33.6758 18.459 33.7608 18.5601C33.8424 18.6571 33.9408 18.709 34.02 18.7364C34.1624 18.7858 34.3047 18.7777 34.3934 18.7681C34.4957 18.7571 34.6077 18.7337 34.7231 18.7042C34.9549 18.6451 35.2529 18.5476 35.6127 18.4193L35.2771 17.4774ZM36.5933 18.2134C36.6138 18.174 36.6374 18.1286 36.6571 18.0857C36.6745 18.048 36.7038 17.9814 36.7201 17.9044C36.7334 17.8417 36.7665 17.6446 36.6292 17.4579C36.4871 17.2645 36.2808 17.2406 36.2049 17.237C36.1179 17.233 36.0377 17.2473 35.9852 17.2583C35.9263 17.2708 35.8625 17.2882 35.7974 17.3075C35.6676 17.3461 35.4966 17.4034 35.2854 17.4745L35.6044 18.4222C35.8213 18.3492 35.9734 18.2985 36.0824 18.2661C36.1366 18.25 36.171 18.2411 36.1917 18.2368C36.219 18.231 36.1999 18.2379 36.158 18.2359C36.1272 18.2345 35.9501 18.2223 35.8236 18.0502C35.702 17.8848 35.7373 17.7187 35.7419 17.6968C35.7496 17.6606 35.7594 17.6445 35.7488 17.6673C35.7407 17.685 35.7281 17.7099 35.7066 17.7511L36.5933 18.2134ZM35.3246 19.6445C35.61 19.3651 35.8863 19.0731 36.1053 18.828C36.31 18.5988 36.5002 18.3717 36.5798 18.2377L35.7202 17.7268C35.7206 17.7261 35.7133 17.7379 35.6923 17.7661C35.6729 17.7921 35.6469 17.8254 35.6141 17.8656C35.5486 17.946 35.462 18.0471 35.3595 18.1618C35.1545 18.3913 34.8936 18.667 34.6251 18.93L35.3246 19.6445ZM34.4844 21.1007C34.4844 20.7075 34.5034 20.6059 34.5664 20.4899C34.6536 20.3295 34.8376 20.1274 35.3269 19.6423L34.6228 18.9322C34.172 19.3792 33.8608 19.694 33.6878 20.0124C33.4906 20.3752 33.4844 20.7143 33.4844 21.1007H34.4844ZM33.3045 26.3771C33.6049 25.6546 33.8978 24.6541 34.1154 23.6893C34.3317 22.7304 34.4844 21.759 34.4844 21.1007H33.4844C33.4844 21.6457 33.3517 22.5301 33.1399 23.4693C32.9294 24.4027 32.6515 25.3428 32.3811 25.9931L33.3045 26.3771ZM27.5069 33.1914C29.8721 31.7941 32.2087 29.0462 33.3054 26.375L32.3803 25.9952C31.3617 28.4762 29.1657 31.05 26.9983 32.3305L27.5069 33.1914ZM16.0928 34.4929C19.8 35.6351 24.1932 35.1459 27.5066 33.1916L26.9986 32.3303C23.9327 34.1385 19.8315 34.5984 16.3872 33.5373L16.0928 34.4929ZM12.5 32.5237C12.5 32.6504 12.5457 32.7448 12.5729 32.7917C12.6024 32.8428 12.6352 32.8813 12.6581 32.9058C12.7039 32.9547 12.7545 32.9948 12.7941 33.0239C12.8766 33.0846 12.9817 33.1486 13.0933 33.2114C13.3203 33.3393 13.627 33.4918 13.9635 33.6471C14.6352 33.9571 15.4666 34.2971 16.0907 34.4923L16.3893 33.5379C15.8214 33.3603 15.0328 33.0392 14.3825 32.7391C14.058 32.5893 13.7782 32.4495 13.584 32.3401C13.4849 32.2843 13.4207 32.2434 13.3866 32.2183C13.3679 32.2046 13.3733 32.2065 13.3885 32.2227C13.3961 32.2309 13.4173 32.2543 13.439 32.2919C13.4583 32.3253 13.5 32.4075 13.5 32.5237H12.5ZM14.3654 31.8882C13.9773 31.8969 13.6197 31.9187 13.3544 31.9457C13.2237 31.959 13.1048 31.9746 13.0124 31.9928C12.9696 32.0012 12.912 32.014 12.8564 32.0344C12.8318 32.0434 12.7782 32.0641 12.7216 32.1035C12.6924 32.1239 12.5 32.2577 12.5 32.5237H13.5C13.5 32.7832 13.3125 32.9106 13.2927 32.9244C13.2456 32.9572 13.2061 32.9713 13.1999 32.9735C13.1813 32.9803 13.178 32.9794 13.2053 32.974C13.253 32.9646 13.3366 32.9527 13.4556 32.9406C13.6897 32.9168 14.0204 32.8962 14.3878 32.888L14.3654 31.8882ZM18.6246 30.7015C17.3557 31.4381 15.8606 31.8561 14.3658 31.8882L14.3873 32.888C16.0486 32.8523 17.7095 32.389 19.1266 31.5663L18.6246 30.7015ZM19.5255 30.1625L18.6189 30.7048L19.1323 31.563L20.0389 31.0207L19.5255 30.1625ZM18.5795 30.7088L19.6204 31.0647L19.9439 30.1185L18.9031 29.7626L18.5795 30.7088ZM15.1238 27.602C15.3276 28.2708 15.8126 28.9125 16.4124 29.4429C17.0178 29.9783 17.7755 30.4321 18.5786 30.7085L18.904 29.7629C18.2299 29.5309 17.5858 29.1457 17.0748 28.6938C16.5583 28.237 16.2123 27.7432 16.0803 27.3104L15.1238 27.602ZM16.475 26.5833C16.2428 26.5833 16.0507 26.5843 15.9012 26.5923C15.7687 26.5993 15.5979 26.6137 15.4507 26.677C15.3658 26.7135 15.2642 26.7762 15.184 26.8847C15.1018 26.9959 15.072 27.1147 15.065 27.2123C15.0539 27.3683 15.1021 27.5256 15.121 27.5924L16.0832 27.32C16.0708 27.2765 16.0651 27.2538 16.0624 27.2402C16.0594 27.2247 16.0652 27.2448 16.0625 27.2833C16.0592 27.3292 16.0433 27.4045 15.9883 27.479C15.9352 27.5507 15.874 27.5835 15.8457 27.5956C15.8208 27.6064 15.8119 27.6053 15.8368 27.6014C15.8594 27.5979 15.8963 27.594 15.9545 27.5908C16.0726 27.5845 16.2372 27.5833 16.475 27.5833V26.5833ZM17.44 26.5665L16.4663 26.5834L16.4837 27.5833L17.4574 27.5663L17.44 26.5665ZM16.412 27.1284L17.2346 27.5182L17.6628 26.6146L16.8402 26.2248L16.412 27.1284ZM13.8817 24.7362C14.3747 25.6932 15.3503 26.5927 16.4008 27.1229L16.8514 26.2302C15.9546 25.7775 15.1507 25.016 14.7707 24.2783L13.8817 24.7362ZM13.3666 21.8843C13.2519 22.0002 13.2233 22.1356 13.2146 22.1809C13.2027 22.2435 13.2007 22.3025 13.201 22.3464C13.2017 22.4363 13.213 22.536 13.2277 22.6312C13.2576 22.8259 13.3115 23.0675 13.3769 23.3151C13.5054 23.8014 13.6971 24.3831 13.8831 24.7389L14.7693 24.2756C14.6363 24.0212 14.4671 23.5267 14.3438 23.0597C14.2833 22.8307 14.2386 22.6263 14.2161 22.4794C14.2045 22.4038 14.2011 22.3588 14.201 22.3392C14.2009 22.3285 14.202 22.3415 14.1969 22.3682C14.1951 22.3776 14.1772 22.487 14.0771 22.5881L13.3666 21.8843ZM14.6703 21.9487C14.4663 21.8801 14.2624 21.8156 14.1002 21.7747C14.0221 21.755 13.9342 21.7357 13.8535 21.7274C13.8156 21.7235 13.7529 21.7191 13.6827 21.7284C13.6436 21.7337 13.4364 21.7611 13.3046 21.9607L14.1391 22.5117C14.0738 22.6106 13.9893 22.6611 13.9352 22.6852C13.8819 22.7089 13.8372 22.7167 13.815 22.7197C13.7908 22.7229 13.7729 22.723 13.765 22.7229C13.7605 22.7228 13.7571 22.7226 13.7551 22.7225C13.753 22.7223 13.7519 22.7222 13.7518 22.7222C13.7518 22.7222 13.7544 22.7225 13.76 22.7234C13.7655 22.7243 13.7728 22.7256 13.7822 22.7274C13.8013 22.7312 13.8256 22.7368 13.8555 22.7443C13.9787 22.7754 14.1526 22.8296 14.3514 22.8965L14.6703 21.9487ZM14.7851 22.3759C14.9508 22.5516 15.0348 22.6583 15.0672 22.712C15.087 22.7447 15.0586 22.7111 15.0503 22.6341C15.0454 22.5881 15.0462 22.5118 15.0831 22.4261C15.1221 22.3355 15.1862 22.2699 15.2517 22.2292C15.3111 22.1921 15.3628 22.1807 15.3858 22.1768C15.41 22.1727 15.4232 22.1738 15.4195 22.1736C15.4105 22.1732 15.3765 22.1698 15.3074 22.1537C15.1712 22.1219 14.9675 22.0573 14.6826 21.9531L14.3391 22.8922C14.6334 22.9998 14.883 23.0814 15.0799 23.1275C15.1774 23.1502 15.28 23.1687 15.3781 23.1727C15.4584 23.1761 15.6241 23.1753 15.7804 23.0779C15.8705 23.0218 15.9521 22.9364 16.0016 22.8216C16.0489 22.7116 16.0531 22.6066 16.0446 22.5273C16.0292 22.3837 15.9658 22.2655 15.9234 22.1953C15.8314 22.0429 15.6825 21.87 15.5125 21.6897L14.7851 22.3759ZM13.6336 16.8581C12.9759 18.8318 13.3888 20.9476 14.7912 22.3823L15.5064 21.6833C14.3906 20.5419 14.0314 18.8275 14.5823 17.1743L13.6336 16.8581ZM13.9216 16.0372L13.6362 16.8507L14.5798 17.1817L14.8652 16.3682L13.9216 16.0372ZM15.8539 16.9498L14.7459 15.8481L14.0408 16.5573L15.1488 17.6589L15.8539 16.9498ZM23.5555 20.7403C20.613 20.3649 18.0432 19.0945 15.8512 16.9472L15.1514 17.6615C17.4921 19.9545 20.2607 21.328 23.4289 21.7322L23.5555 20.7403ZM24.3917 20.8416L23.5523 20.7399L23.4321 21.7326L24.2714 21.8343L24.3917 20.8416Z" fill="url(#paint0_linear_502_738)"/>
<defs>
<linearGradient id="paint0_linear_502_738" x1="1" y1="25" x2="49" y2="25" gradientUnits="userSpaceOnUse">
<stop stop-color="#21D4FD"/>
<stop offset="1" stop-color="#B721FF"/>
</linearGradient>
</defs>
</svg>
