<svg width="12" height="18" viewBox="0 0 12 18" fill="none" xmlns="http://www.w3.org/2000/svg">
<path d="M0.359863 15.78L0.609863 18L2.22986 16.46L4.99986 8.86C4.31986 8.69 3.71986 8.35 3.22986 7.88L0.359863 15.78ZM8.76986 7.88C8.27986 8.35 7.66986 8.69 6.99986 8.86L9.76986 16.46L11.3899 18L11.6499 15.78L8.76986 7.88ZM8.99986 5C8.99986 3.7 8.15986 2.6 6.99986 2.18V0H4.99986V2.18C3.83986 2.6 2.99986 3.7 2.99986 5C2.99986 6.66 4.33986 8 5.99986 8C7.65986 8 8.99986 6.66 8.99986 5ZM5.99986 6C5.44986 6 4.99986 5.55 4.99986 5C4.99986 4.45 5.44986 4 5.99986 4C6.54986 4 6.99986 4.45 6.99986 5C6.99986 5.55 6.54986 6 5.99986 6Z" fill="url(#paint0_linear_324_315)"/>
<defs>
<linearGradient id="paint0_linear_324_315" x1="0.359863" y1="9" x2="11.6499" y2="9" gradientUnits="userSpaceOnUse">
<stop stop-color="#21D4FD"/>
<stop offset="1" stop-color="#B721FF"/>
</linearGradient>
</defs>
</svg>
