<svg width="50" height="43" viewBox="0 0 50 43" fill="none" xmlns="http://www.w3.org/2000/svg">
<rect x="1" y="1" width="48" height="41" rx="10" stroke="url(#paint0_linear_498_590)" stroke-width="2"/>
<path d="M8.24 28V13.64C8.28 13.6133 8.33333 13.6 8.4 13.6L8.54 13.64V27.7H15.34C15.3667 27.7533 15.38 27.8067 15.38 27.86C15.38 27.9 15.3733 27.9333 15.36 27.96L15.34 28H8.24ZM24.6409 22.82H17.6809C17.7343 24.5933 18.0476 25.8867 18.6209 26.7C19.1943 27.5 20.1009 27.9 21.3409 27.9C21.8609 27.9 22.3543 27.8267 22.8209 27.68C23.2876 27.5333 23.6276 27.3867 23.8409 27.24L24.1409 27.02C24.2609 27.0467 24.3209 27.12 24.3209 27.24C24.2409 27.3067 24.1276 27.3933 23.9809 27.5C23.8343 27.6067 23.4943 27.7533 22.9609 27.94C22.4409 28.1133 21.8809 28.2 21.2809 28.2C18.6809 28.2 17.3809 26.36 17.3809 22.68C17.3809 20.8667 17.7409 19.5133 18.4609 18.62C19.1809 17.7267 20.1543 17.28 21.3809 17.28C22.5009 17.28 23.3609 17.62 23.9609 18.3C24.5609 18.98 24.8609 19.8333 24.8609 20.86C24.8609 21.22 24.8409 21.5667 24.8009 21.9C24.7743 22.22 24.7409 22.4533 24.7009 22.6L24.6409 22.82ZM24.5609 20.8C24.5609 19.8933 24.2943 19.1333 23.7609 18.52C23.2276 17.8933 22.4343 17.58 21.3809 17.58C20.2343 17.58 19.3343 17.9933 18.6809 18.82C18.0409 19.6333 17.7076 20.8667 17.6809 22.52H24.4209L24.5409 21.46C24.5543 21.2467 24.5609 21.0267 24.5609 20.8ZM28.5372 26.92C27.8705 26.0533 27.5372 24.66 27.5372 22.74C27.5372 20.82 27.8705 19.4333 28.5372 18.58C29.2172 17.7133 30.2039 17.28 31.4972 17.28C32.7905 17.28 33.7705 17.7133 34.4372 18.58C35.1172 19.4333 35.4572 20.82 35.4572 22.74C35.4572 24.66 35.1172 26.0533 34.4372 26.92C33.7705 27.7733 32.7905 28.2 31.4972 28.2C30.2039 28.2 29.2172 27.7733 28.5372 26.92ZM34.2372 26.74C34.8639 25.94 35.1772 24.6067 35.1772 22.74C35.1772 20.8733 34.8639 19.5467 34.2372 18.76C33.6105 17.96 32.6972 17.56 31.4972 17.56C30.2972 17.56 29.3839 17.96 28.7572 18.76C28.1305 19.5467 27.8172 20.8733 27.8172 22.74C27.8172 24.6067 28.1305 25.94 28.7572 26.74C29.3839 27.5267 30.2972 27.92 31.4972 27.92C32.6972 27.92 33.6105 27.5267 34.2372 26.74Z" fill="#292929"/>
<path d="M8.24 28H7.58479V28.6552H8.24V28ZM8.24 13.64L7.87656 13.0948L7.58479 13.2893V13.64H8.24ZM8.4 13.6L8.58 12.97L8.49176 12.9448H8.4V13.6ZM8.54 13.64H9.19521V13.1458L8.72 13.01L8.54 13.64ZM8.54 27.7H7.88479V28.3552H8.54V27.7ZM15.34 27.7L15.926 27.407L15.7449 27.0448H15.34V27.7ZM15.36 27.96L15.946 28.253L15.946 28.253L15.36 27.96ZM15.34 28V28.6552H15.7449L15.926 28.293L15.34 28ZM8.89521 28V13.64H7.58479V28H8.89521ZM8.60344 14.1852C8.50161 14.2531 8.41434 14.2552 8.4 14.2552V12.9448C8.25233 12.9448 8.05839 12.9736 7.87656 13.0948L8.60344 14.1852ZM8.22 14.23L8.36 14.27L8.72 13.01L8.58 12.97L8.22 14.23ZM7.88479 13.64V27.7H9.19521V13.64H7.88479ZM8.54 28.3552H15.34V27.0448H8.54V28.3552ZM14.754 27.993C14.7406 27.9662 14.7248 27.9199 14.7248 27.86H16.0352C16.0352 27.6935 15.9928 27.5404 15.926 27.407L14.754 27.993ZM14.7248 27.86C14.7248 27.8314 14.729 27.7569 14.774 27.667L15.946 28.253C16.0177 28.1097 16.0352 27.9686 16.0352 27.86H14.7248ZM14.774 27.667L14.754 27.707L15.926 28.293L15.946 28.253L14.774 27.667ZM15.34 27.3448H8.24V28.6552H15.34V27.3448ZM24.6409 22.82V23.4752H25.1414L25.2731 22.9924L24.6409 22.82ZM17.6809 22.82V22.1648H17.0057L17.026 22.8397L17.6809 22.82ZM18.6209 26.7L18.0854 27.0775L18.0884 27.0817L18.6209 26.7ZM22.8209 27.68L22.6245 27.0549L22.8209 27.68ZM23.8409 27.24L24.2121 27.7799L24.2204 27.7743L24.2284 27.7684L23.8409 27.24ZM24.1409 27.02L24.2831 26.3804L23.9931 26.3159L23.7535 26.4916L24.1409 27.02ZM24.3209 27.24L24.7404 27.7433L24.9761 27.5469V27.24H24.3209ZM22.9609 27.94L23.1682 28.5617L23.1774 28.5584L22.9609 27.94ZM18.4609 18.62L17.9508 18.2088L18.4609 18.62ZM23.9609 18.3L23.4696 18.7335H23.4696L23.9609 18.3ZM24.8009 21.9L24.1504 21.8219L24.149 21.8337L24.148 21.8456L24.8009 21.9ZM24.7009 22.6L24.0688 22.4276V22.4276L24.7009 22.6ZM23.7609 18.52L23.2619 18.9447L23.2665 18.9499L23.7609 18.52ZM18.6809 18.82L18.1669 18.4137L18.166 18.4148L18.6809 18.82ZM17.6809 22.52L17.0258 22.5094L17.0151 23.1752H17.6809V22.52ZM24.4209 22.52V23.1752H25.0062L25.072 22.5937L24.4209 22.52ZM24.5409 21.46L25.192 21.5337L25.1938 21.5173L25.1949 21.5009L24.5409 21.46ZM24.6409 22.1648H17.6809V23.4752H24.6409V22.1648ZM17.026 22.8397C17.0806 24.6538 17.4 26.1052 18.0854 27.0775L19.1565 26.3225C18.6952 25.6682 18.388 24.5329 18.3358 22.8003L17.026 22.8397ZM18.0884 27.0817C18.8165 28.0977 19.9509 28.5552 21.3409 28.5552V27.2448C20.2509 27.2448 19.572 26.9023 19.1535 26.3183L18.0884 27.0817ZM21.3409 28.5552C21.9234 28.5552 22.4833 28.4729 23.0174 28.3051L22.6245 27.0549C22.2253 27.1804 21.7985 27.2448 21.3409 27.2448V28.5552ZM23.0174 28.3051C23.5014 28.153 23.9167 27.983 24.2121 27.7799L23.4697 26.7001C23.3385 26.7903 23.0739 26.9137 22.6245 27.0549L23.0174 28.3051ZM24.2284 27.7684L24.5284 27.5484L23.7535 26.4916L23.4535 26.7116L24.2284 27.7684ZM23.9988 27.6596C23.9584 27.6506 23.8564 27.6169 23.7688 27.5099C23.6799 27.4012 23.6657 27.2901 23.6657 27.24H24.9761C24.9761 27.0699 24.932 26.8622 24.783 26.6801C24.6355 26.4998 24.4435 26.416 24.2831 26.3804L23.9988 27.6596ZM23.9015 26.7367C23.8377 26.7898 23.7377 26.8667 23.5956 26.9701L24.3663 28.0299C24.5175 27.92 24.6441 27.8235 24.7404 27.7433L23.9015 26.7367ZM23.5956 26.9701C23.5964 26.9695 23.592 26.9727 23.5805 26.9796C23.5692 26.9864 23.5534 26.9953 23.5322 27.0063C23.4893 27.0286 23.4315 27.056 23.3564 27.0884C23.2059 27.1533 23.0033 27.231 22.7445 27.3216L23.1774 28.5584C23.4519 28.4623 23.686 28.3733 23.8755 28.2916C24.0539 28.2146 24.2314 28.128 24.3663 28.0299L23.5956 26.9701ZM22.7537 27.3184C22.3066 27.4675 21.8172 27.5448 21.2809 27.5448V28.8552C21.9447 28.8552 22.5753 28.7592 23.1681 28.5616L22.7537 27.3184ZM21.2809 27.5448C20.156 27.5448 19.398 27.1595 18.8911 26.4419C18.3546 25.6827 18.0361 24.4628 18.0361 22.68H16.7257C16.7257 24.5772 17.0572 26.1173 17.8208 27.1981C18.6139 28.3205 19.8059 28.8552 21.2809 28.8552V27.5448ZM18.0361 22.68C18.0361 20.9347 18.3858 19.7574 18.9711 19.0312L17.9508 18.2088C17.0961 19.2693 16.7257 20.7986 16.7257 22.68H18.0361ZM18.9711 19.0312C19.5572 18.304 20.3367 17.9352 21.3809 17.9352V16.6248C19.9718 16.6248 18.8047 17.1493 17.9508 18.2088L18.9711 19.0312ZM21.3809 17.9352C22.3608 17.9352 23.0225 18.2267 23.4696 18.7335L24.4522 17.8665C23.6994 17.0133 22.6411 16.6248 21.3809 16.6248V17.9352ZM23.4696 18.7335C23.95 19.2779 24.2057 19.9704 24.2057 20.86H25.5161C25.5161 19.6962 25.1719 18.6821 24.4522 17.8665L23.4696 18.7335ZM24.2057 20.86C24.2057 21.1958 24.1871 21.5163 24.1504 21.8219L25.4515 21.9781C25.4948 21.617 25.5161 21.2442 25.5161 20.86H24.2057ZM24.148 21.8456C24.1218 22.1595 24.0921 22.3423 24.0688 22.4276L25.3331 22.7724C25.3898 22.5643 25.4267 22.2805 25.4539 21.9544L24.148 21.8456ZM24.0688 22.4276L24.0088 22.6476L25.2731 22.9924L25.3331 22.7724L24.0688 22.4276ZM25.2161 20.8C25.2161 19.7549 24.9045 18.8366 24.2554 18.0901L23.2665 18.9499C23.684 19.4301 23.9057 20.0318 23.9057 20.8H25.2161ZM24.2599 18.0953C23.5689 17.2834 22.5685 16.9248 21.3809 16.9248V18.2352C22.3001 18.2352 22.8863 18.5032 23.262 18.9447L24.2599 18.0953ZM21.3809 16.9248C20.0541 16.9248 18.9565 17.4146 18.1669 18.4137L19.195 19.2263C19.712 18.5721 20.4144 18.2352 21.3809 18.2352V16.9248ZM18.166 18.4148C17.3983 19.3904 17.0535 20.7923 17.0258 22.5094L18.3361 22.5306C18.3617 20.9411 18.6835 19.8762 19.1958 19.2252L18.166 18.4148ZM17.6809 23.1752H24.4209V21.8648H17.6809V23.1752ZM25.072 22.5937L25.192 21.5337L23.8899 21.3863L23.7699 22.4463L25.072 22.5937ZM25.1949 21.5009C25.2091 21.2731 25.2161 21.0395 25.2161 20.8H23.9057C23.9057 21.0138 23.8994 21.2202 23.887 21.4191L25.1949 21.5009ZM28.5372 26.92L28.0178 27.3195L28.0248 27.3283L28.5372 26.92ZM28.5372 18.58L28.0217 18.1755L28.0209 18.1766L28.5372 18.58ZM34.4372 18.58L33.9178 18.9795L33.9248 18.9883L34.4372 18.58ZM34.4372 26.92L33.9217 26.5155L33.9209 26.5166L34.4372 26.92ZM34.2372 26.74L34.7497 27.1483L34.753 27.144L34.2372 26.74ZM34.2372 18.76L33.7214 19.1641L33.7247 19.1682L34.2372 18.76ZM28.7572 18.76L29.2697 19.1683L29.273 19.164L28.7572 18.76ZM28.7572 26.74L28.2414 27.1441L28.2447 27.1482L28.7572 26.74ZM29.0565 26.5205C28.5231 25.827 28.1924 24.6129 28.1924 22.74H26.882C26.882 24.7071 27.218 26.2796 28.0179 27.3195L29.0565 26.5205ZM28.1924 22.74C28.1924 20.8656 28.5236 19.6616 29.0535 18.9834L28.0209 18.1766C27.2174 19.205 26.882 20.7744 26.882 22.74H28.1924ZM29.0527 18.9845C29.5861 18.3046 30.3657 17.9352 31.4972 17.9352V16.6248C30.042 16.6248 28.8483 17.122 28.0217 18.1755L29.0527 18.9845ZM31.4972 17.9352C32.6289 17.9352 33.3987 18.3045 33.9179 18.9795L34.9565 18.1805C34.1424 17.1221 32.9521 16.6248 31.4972 16.6248V17.9352ZM33.9248 18.9883C34.4646 19.6658 34.802 20.8675 34.802 22.74H36.1124C36.1124 20.7725 35.7697 19.2009 34.9496 18.1717L33.9248 18.9883ZM34.802 22.74C34.802 24.6111 34.4652 25.8229 33.9217 26.5155L34.9527 27.3245C35.7692 26.2838 36.1124 24.7089 36.1124 22.74H34.802ZM33.9209 26.5166C33.4031 27.1794 32.6326 27.5448 31.4972 27.5448V28.8552C32.9484 28.8552 34.138 28.3672 34.9535 27.3234L33.9209 26.5166ZM31.4972 27.5448C30.3621 27.5448 29.5817 27.1794 29.0496 26.5117L28.0248 27.3283C28.8527 28.3673 30.0456 28.8552 31.4972 28.8552V27.5448ZM34.753 27.144C35.5192 26.1659 35.8324 24.6458 35.8324 22.74H34.522C34.522 24.5675 34.2085 25.7141 33.7214 26.336L34.753 27.144ZM35.8324 22.74C35.8324 20.8359 35.5199 19.3186 34.7497 18.3518L33.7247 19.1682C34.2079 19.7747 34.522 20.9108 34.522 22.74H35.8324ZM34.753 18.356C33.979 17.3678 32.8578 16.9048 31.4972 16.9048V18.2152C32.5366 18.2152 33.2421 18.5522 33.7214 19.164L34.753 18.356ZM31.4972 16.9048C30.1366 16.9048 29.0154 17.3678 28.2414 18.356L29.273 19.164C29.7523 18.5522 30.4578 18.2152 31.4972 18.2152V16.9048ZM28.2447 18.3518C27.4745 19.3186 27.162 20.8359 27.162 22.74H28.4724C28.4724 20.9108 28.7865 19.7747 29.2697 19.1682L28.2447 18.3518ZM27.162 22.74C27.162 24.6458 27.4752 26.1659 28.2414 27.144L29.273 26.336C28.7859 25.7141 28.4724 24.5675 28.4724 22.74H27.162ZM28.2447 27.1482C29.0202 28.1217 30.1406 28.5752 31.4972 28.5752V27.2648C30.4538 27.2648 29.7475 26.9316 29.2697 26.3318L28.2447 27.1482ZM31.4972 28.5752C32.8538 28.5752 33.9742 28.1217 34.7497 27.1482L33.7247 26.3318C33.2468 26.9316 32.5406 27.2648 31.4972 27.2648V28.5752Z" fill="white"/>
<defs>
<linearGradient id="paint0_linear_498_590" x1="-0.554441" y1="25.903" x2="47.2264" y2="17.4891" gradientUnits="userSpaceOnUse">
<stop stop-color="#74E0EB"/>
<stop offset="1" stop-color="#9FB3E6"/>
</linearGradient>
</defs>
</svg>
