<svg width="25" height="26" viewBox="0 0 25 26" fill="none" xmlns="http://www.w3.org/2000/svg">
<path d="M18.5855 10.2947C18.4908 9.5252 18.2543 8.92102 17.8343 8.38586C17.2889 7.69676 16.5919 7.28412 15.5601 7.03933C14.8877 6.87618 14.616 6.89491 14.3728 7.11707C14.1462 7.3252 14.102 7.74246 14.2751 8.01266C14.3969 8.20877 14.5373 8.27903 14.928 8.3557C15.4482 8.45141 15.8076 8.57563 16.1347 8.76261C16.8288 9.16339 17.152 9.79055 17.1866 10.8059C17.2028 11.2826 17.244 11.4292 17.4105 11.5983C17.7191 11.9074 18.2683 11.8472 18.5013 11.4774C18.5868 11.338 18.5998 11.2773 18.6089 10.9536C18.6148 10.7532 18.6062 10.4548 18.5855 10.2947V10.2947Z" stroke="url(#paint0_linear_502_370)"/>
<path d="M21.3041 11.1623C21.167 8.80486 20.245 6.90821 18.5948 5.57376C17.665 4.82394 16.5411 4.30834 15.3092 4.0576C14.858 3.96792 14.0271 3.89523 13.8846 3.93681C13.7501 3.97531 13.5598 4.12095 13.475 4.25265C13.3854 4.39548 13.3652 4.71436 13.4416 4.89881C13.5651 5.20717 13.7948 5.31611 14.438 5.37238C15.4296 5.45914 16.4524 5.80752 17.2252 6.32328C18.1074 6.91051 18.8088 7.71371 19.2625 8.65754C19.6545 9.46849 19.8956 10.6372 19.8889 11.6837C19.8867 12.0622 19.9451 12.2759 20.0973 12.4322C20.3271 12.6725 20.662 12.725 20.9576 12.5654C21.2852 12.3932 21.3618 12.0908 21.3041 11.1623V11.1623Z" stroke="url(#paint1_linear_502_370)"/>
<path d="M23.8901 20.5934C23.8448 20.4545 23.7392 20.2404 23.6637 20.1174C23.1882 19.364 20.6335 17.2661 19.3579 16.58C18.6296 16.1874 18.09 16.0566 17.69 16.1794C17.2598 16.3064 17.0333 16.5165 16.3126 17.4564C16.022 17.8332 15.7239 18.1862 15.6446 18.2416C15.4484 18.3844 15.0635 18.4995 14.7918 18.4995C14.1616 18.4954 13.0181 18.0672 12.1389 17.504C11.4558 17.0678 10.5804 16.2866 9.90863 15.5132C9.11612 14.6051 8.57655 13.804 8.15008 12.8998C7.59915 11.7379 7.45952 11.028 7.68969 10.5084C7.7463 10.3776 7.82179 10.2388 7.85571 10.1951C7.8897 10.1555 8.24444 9.85014 8.63686 9.51701C9.40673 8.87459 9.53125 8.72786 9.67464 8.28765C9.85577 7.72845 9.80675 7.15739 9.52749 6.58238C9.31237 6.14613 8.7501 5.19436 8.34255 4.57968C7.80291 3.7707 6.45948 2.04163 6.19151 1.80759C5.70848 1.39519 5.08966 1.32376 4.40655 1.60142C3.68584 1.89489 2.33482 3.03701 1.75744 3.83414C1.23667 4.55589 1.03673 5.06745 1.00651 5.74163C0.980108 6.29681 1.02538 6.52683 1.30463 7.23673C3.4896 12.8046 6.75002 17.2502 11.2294 20.7798C13.5691 22.6238 15.9956 24.0277 18.5126 24.9875C19.9806 25.5466 20.6183 25.5743 21.3693 25.1144C21.6863 24.916 22.4712 24.0713 22.9089 23.4567C23.6335 22.4335 23.9014 21.9616 23.9769 21.5848C24.0297 21.327 23.9882 20.8789 23.8901 20.5934V20.5934Z" stroke="url(#paint2_linear_502_370)"/>
<path d="M24.0716 11.7037C24.0224 10.3703 23.7978 9.27647 23.3297 8.057C22.8675 6.85744 22.3997 6.07467 21.5163 5.01594C20.6811 4.02326 20.0323 3.45646 19.0035 2.82553C17.568 1.94647 15.8211 1.36474 13.8633 1.12009C13.1957 1.03458 13.0446 1.04069 12.8398 1.17736C12.4429 1.43627 12.4482 2.08204 12.8464 2.33706C12.9782 2.41819 13.0951 2.44774 13.6292 2.51764C14.449 2.62801 14.9761 2.73203 15.6017 2.9027C18.0545 3.57322 19.9408 4.94379 21.2019 6.97834C22.2572 8.67415 22.6952 10.3701 22.633 12.5361C22.6114 13.2683 22.6271 13.3972 22.7391 13.5731C22.9534 13.9011 23.5187 13.9659 23.8087 13.6938C23.9892 13.528 24.0232 13.4035 24.0587 12.7768C24.0758 12.4498 24.0794 11.9672 24.0716 11.7037V11.7037Z" stroke="url(#paint3_linear_502_370)"/>
<defs>
<linearGradient id="paint0_linear_502_370" x1="16.1858" y1="11.6496" x2="16.5859" y2="7.0757" gradientUnits="userSpaceOnUse">
<stop stop-color="white"/>
<stop offset="1" stop-color="white"/>
</linearGradient>
<linearGradient id="paint1_linear_502_370" x1="16.9943" y1="12.3434" x2="17.7041" y2="4.22994" gradientUnits="userSpaceOnUse">
<stop stop-color="white"/>
<stop offset="1" stop-color="white"/>
</linearGradient>
<linearGradient id="paint2_linear_502_370" x1="12.5" y1="25.4353" x2="12.5" y2="1.43527" gradientUnits="userSpaceOnUse">
<stop stop-color="white"/>
<stop offset="1" stop-color="white"/>
</linearGradient>
<linearGradient id="paint3_linear_502_370" x1="17.7683" y1="13.3796" x2="18.8039" y2="1.54207" gradientUnits="userSpaceOnUse">
<stop stop-color="white"/>
<stop offset="1" stop-color="white"/>
</linearGradient>
</defs>
</svg>
