<svg width="476" height="392" viewBox="0 0 476 392" fill="none" xmlns="http://www.w3.org/2000/svg">
<g clip-path="url(#clip0_297_489)">
<path d="M387.384 39.3978C390.426 26.9766 387.534 12.4906 377.708 4.32031C377.516 18.2267 372.418 31.6169 363.315 42.1217C359.79 46.1603 355.449 50.2846 355.278 55.6455C355.172 58.9812 356.798 62.1852 359.039 64.6557C361.28 67.1262 364.107 68.975 366.9 70.7956L367.311 71.5204C376.303 62.4381 384.343 51.819 387.384 39.3978Z" fill="#D2E2FF"/>
<path d="M377.51 4.50178C381.279 14.3921 381.839 25.22 379.112 35.4475C378.564 37.6596 377.671 39.7715 376.466 41.7052C375.232 43.551 373.526 45.0321 371.527 45.9946C369.681 46.9295 367.684 47.6718 366.097 49.0399C365.295 49.7522 364.652 50.6263 364.211 51.6048C363.77 52.5833 363.541 53.644 363.538 54.7175C363.461 57.3922 364.349 59.9349 365.303 62.3913C366.363 65.1186 367.507 67.9347 367.262 70.9207C367.232 71.2825 367.794 71.3075 367.824 70.9463C368.25 65.751 364.727 61.3628 364.168 56.3237C363.907 53.9724 364.352 51.5281 366.088 49.8138C367.607 48.3146 369.665 47.5474 371.542 46.617C373.507 45.7066 375.218 44.3286 376.528 42.6031C377.827 40.737 378.8 38.6631 379.404 36.4703C380.844 31.5552 381.502 26.444 381.356 21.3241C381.221 15.4798 380.089 9.70163 378.009 4.23959C377.88 3.90157 377.382 4.16597 377.51 4.50177V4.50178Z" fill="white"/>
<path d="M380.184 32.206C381.96 32.4313 383.758 32.0171 385.257 31.0375C386.756 30.0579 387.858 28.5766 388.367 26.8583C388.469 26.5102 387.933 26.3355 387.831 26.684C387.36 28.285 386.333 29.6647 384.936 30.574C383.538 31.4834 381.862 31.8625 380.209 31.6429C379.85 31.5956 379.827 32.159 380.184 32.206Z" fill="white"/>
<path d="M372.525 45.644C370.258 42.7683 369.156 39.1426 369.44 35.4897C369.468 35.1278 368.906 35.1028 368.877 35.4642C368.589 39.266 369.744 43.0369 372.11 46.0241C372.335 46.3087 372.75 45.927 372.525 45.644Z" fill="white"/>
<path d="M380.543 15.7925C379.838 15.8487 379.13 15.7286 378.482 15.4431C377.835 15.1575 377.269 14.7154 376.834 14.1565C376.612 13.8692 376.198 14.2512 376.418 14.5366C376.901 15.1519 377.528 15.6394 378.242 15.9565C378.957 16.2735 379.738 16.4106 380.518 16.3555C380.592 16.3565 380.663 16.3293 380.718 16.2794C380.772 16.2294 380.806 16.1606 380.812 16.0868C380.815 16.0122 380.788 15.9394 380.738 15.8843C380.688 15.8292 380.618 15.7962 380.543 15.7925Z" fill="white"/>
<path d="M335.216 12.3615C335.35 12.5448 335.483 12.7281 335.615 12.916C337.398 15.3902 338.977 18.0053 340.336 20.7355C340.445 20.9449 340.552 21.1588 340.654 21.3709C343.859 27.9835 345.811 35.1346 346.409 42.4606C346.645 45.376 346.658 48.3051 346.45 51.2226C346.162 55.2517 345.53 59.5974 346.557 63.3753C346.66 63.7706 346.787 64.1592 346.938 64.5388L366.396 71.9653C366.449 71.96 366.5 71.9592 366.553 71.9539L367.316 72.286C367.337 72.1363 367.356 71.9805 367.377 71.8308C367.39 71.744 367.398 71.6556 367.411 71.5688C367.418 71.5104 367.425 71.4519 367.435 71.3996C367.437 71.3802 367.439 71.3607 367.44 71.3457C367.45 71.2934 367.453 71.2438 367.461 71.196C367.569 70.3257 367.671 69.4532 367.766 68.5785C367.768 68.574 367.768 68.574 367.765 68.5679C368.559 61.9093 368.56 55.18 367.77 48.521C367.744 48.3226 367.719 48.1198 367.684 47.918C367.275 44.9478 366.625 42.016 365.739 39.1519C365.248 37.5851 364.679 36.0442 364.033 34.5351C362.357 30.639 360.08 27.0312 357.284 23.8438C351.71 17.4907 344.168 12.9934 335.852 12.4005C335.639 12.3855 335.431 12.372 335.216 12.3615Z" fill="#D2E2FF"/>
<path d="M335.166 12.6254C344.122 18.2505 351.079 26.5581 355.051 36.3683C355.944 38.465 356.501 40.6895 356.701 42.9599C356.826 45.1778 356.354 47.3886 355.337 49.3625C354.425 51.222 353.277 53.0184 352.832 55.0675C352.62 56.1198 352.633 57.2051 352.869 58.2523C353.105 59.2994 353.56 60.2847 354.203 61.1436C355.75 63.3253 357.987 64.8204 360.226 66.2063C362.712 67.7451 365.319 69.304 366.919 71.8359C367.113 72.1426 367.577 71.8235 367.383 71.5172C364.6 67.1122 359.147 65.7327 355.671 62.0463C354.049 60.3261 352.935 58.106 353.291 55.6905C353.602 53.5783 354.784 51.7248 355.723 49.85C356.744 47.939 357.282 45.8067 357.291 43.6394C357.206 41.3662 356.736 39.1239 355.9 37.0087C354.094 32.2166 351.546 27.7386 348.351 23.7388C344.73 19.1536 340.351 15.2225 335.406 12.1156C335.1 11.9235 334.862 12.4345 335.166 12.6255V12.6254Z" fill="white"/>
<path d="M353.958 33.1341C355.511 32.2433 356.698 30.8287 357.306 29.1429C357.914 27.4571 357.903 25.6098 357.276 23.9309C357.148 23.5917 356.616 23.7749 356.744 24.1146C357.331 25.6769 357.34 27.3976 356.771 28.9663C356.202 30.535 355.091 31.8483 353.64 32.6691C353.325 32.8479 353.645 33.3118 353.958 33.1341Z" fill="white"/>
<path d="M355.923 48.4806C352.383 47.5515 349.324 45.3208 347.354 42.2332C347.159 41.9271 346.695 42.2461 346.89 42.5518C348.945 45.7611 352.134 48.076 355.82 49.0346C356.171 49.1258 356.272 48.5712 355.923 48.4806Z" fill="white"/>
<path d="M344.376 19.8119C343.847 20.282 343.209 20.613 342.521 20.7753C341.832 20.9377 341.114 20.9262 340.431 20.7419C340.081 20.6464 339.98 21.2011 340.327 21.296C341.083 21.4961 341.876 21.5078 342.637 21.3301C343.399 21.1525 344.105 20.7909 344.694 20.2769C344.754 20.2331 344.795 20.1682 344.808 20.0954C344.822 20.0227 344.807 19.9475 344.767 19.8851C344.725 19.8237 344.66 19.7816 344.587 19.7679C344.513 19.7542 344.438 19.7701 344.376 19.8119V19.8119Z" fill="white"/>
<path d="M309.489 292.939C244.255 292.939 191.184 239.798 191.184 174.477C191.184 109.157 244.255 56.0153 309.489 56.0153C316.385 56.0144 323.269 56.6117 330.063 57.8004C330.148 57.8151 330.228 57.8463 330.301 57.8924C330.374 57.9384 330.437 57.9983 330.486 58.0687C330.536 58.1391 330.571 58.2186 330.589 58.3026C330.608 58.3866 330.61 58.4735 330.595 58.5583C330.581 58.6431 330.549 58.7241 330.503 58.7967C330.457 58.8693 330.397 58.9321 330.326 58.9815C330.256 59.0308 330.176 59.0658 330.093 59.0844C330.009 59.1029 329.922 59.1047 329.837 59.0896C323.118 57.9142 316.31 57.3235 309.489 57.3243C244.976 57.3243 192.491 109.879 192.491 174.477C192.491 239.076 244.976 291.631 309.489 291.631C374.002 291.631 426.487 239.076 426.487 174.477C426.516 145.279 415.628 117.129 395.966 95.5667C395.85 95.4382 395.79 95.2692 395.799 95.0964C395.807 94.9237 395.883 94.7613 396.011 94.6448C396.139 94.5282 396.307 94.467 396.48 94.4745C396.652 94.482 396.815 94.5575 396.932 94.6847C416.813 116.488 427.823 144.953 427.794 174.477C427.794 239.798 374.723 292.939 309.489 292.939Z" fill="#E4E4E4"/>
<path d="M361.653 96.6436C374.58 96.6436 385.06 86.1501 385.06 73.2058C385.06 60.2614 374.58 49.7679 361.653 49.7679C348.726 49.7679 338.246 60.2614 338.246 73.2058C338.246 86.1501 348.726 96.6436 361.653 96.6436Z" fill="url(#paint0_linear_297_489)"/>
<path d="M358.46 85.4041C358.056 85.4041 357.657 85.3098 357.295 85.1288C356.934 84.9477 356.62 84.6849 356.377 84.361L349.991 75.8353C349.786 75.5614 349.637 75.2497 349.552 74.918C349.467 74.5864 349.449 74.2412 349.497 73.9023C349.545 73.5634 349.66 73.2373 349.834 72.9427C350.008 72.6482 350.239 72.3908 350.512 72.1854C350.786 71.98 351.097 71.8305 351.428 71.7456C351.759 71.6606 352.104 71.6418 352.443 71.6902C352.781 71.7387 353.107 71.8534 353.401 72.0278C353.695 72.2023 353.952 72.433 354.157 72.7069L358.335 78.2842L369.065 62.168C369.449 61.5951 370.044 61.1979 370.72 61.0637C371.396 60.9294 372.098 61.0689 372.671 61.4517C373.245 61.8345 373.643 62.4293 373.779 63.1057C373.916 63.7822 373.778 64.4851 373.398 65.0605L360.626 84.243C360.395 84.59 360.085 84.8764 359.72 85.0782C359.356 85.2801 358.949 85.3916 358.532 85.4032C358.508 85.4037 358.484 85.4041 358.46 85.4041Z" fill="white"/>
<path d="M306.445 156.094L270.35 55.5442L271.266 55.2147L264.627 36.721L263.712 37.0508L252.629 6.17905C252.215 5.02602 251.579 3.96591 250.756 3.05925C249.932 2.1526 248.939 1.41715 247.832 0.894892C246.725 0.372638 245.527 0.073805 244.304 0.0154654C243.082 -0.0428742 241.86 0.140419 240.709 0.554876L175.456 24.0413C174.305 24.4557 173.246 25.0932 172.341 25.9173C171.435 26.7415 170.701 27.7361 170.179 28.8445C169.657 29.9528 169.359 31.1532 169.301 32.3771C169.242 33.601 169.425 34.8243 169.839 35.9774L177.566 57.503L176.12 58.0607L181.053 70.8867L182.211 70.4403L183.235 73.2933L182.003 73.7684L186.936 86.5945L187.879 86.2306L223.656 185.892C224.068 187.046 224.703 188.108 225.526 189.016C226.348 189.924 227.342 190.66 228.45 191.183C229.557 191.705 230.757 192.004 231.98 192.061C233.203 192.118 234.425 191.933 235.576 191.516L300.828 168.03C303.152 167.191 305.049 165.462 306.102 163.225C307.155 160.987 307.278 158.422 306.445 156.094Z" fill="#3F3D56"/>
<path d="M232.144 188.202C231.225 188.2 230.329 187.915 229.578 187.385C228.827 186.855 228.257 186.107 227.945 185.241L173.561 33.7445C173.16 32.6287 173.219 31.3993 173.724 30.3268C174.229 29.2542 175.138 28.4263 176.252 28.0251L190.136 23.028L190.115 23.5143C190.08 24.3587 190.252 25.1988 190.617 25.9608C190.982 26.7227 191.529 27.3831 192.208 27.8837C192.888 28.3843 193.681 28.7098 194.516 28.8315C195.351 28.9532 196.204 28.8673 196.998 28.5815L227.81 17.4914C228.554 17.1502 229.207 16.6384 229.716 15.9976C230.226 15.3567 230.578 14.6048 230.743 13.8025C230.907 13.0137 230.882 12.1972 230.671 11.4198C230.459 10.6423 230.067 9.92597 229.527 9.32912L229.202 8.96704L243.543 3.80498C244.657 3.40555 245.884 3.46498 246.955 3.97024C248.026 4.47549 248.853 5.38534 249.255 6.50025L301.142 151.041C302.201 154.002 302.044 157.263 300.705 160.108C299.366 162.953 296.955 165.15 294 166.217L233.657 187.937C233.172 188.112 232.66 188.202 232.144 188.202Z" fill="white"/>
<path d="M226.828 80.7487C236.574 80.7487 244.476 72.8371 244.476 63.0776C244.476 53.3181 236.574 45.4064 226.828 45.4064C217.081 45.4064 209.18 53.3181 209.18 63.0776C209.18 72.8371 217.081 80.7487 226.828 80.7487Z" fill="url(#paint1_linear_297_489)"/>
<path d="M270.559 88.7756L209.444 110.773C209.253 110.842 209.05 110.873 208.847 110.864C208.645 110.854 208.446 110.805 208.262 110.719C208.078 110.632 207.913 110.51 207.777 110.36C207.64 110.209 207.534 110.034 207.466 109.842C207.397 109.651 207.367 109.448 207.376 109.245C207.386 109.042 207.436 108.843 207.523 108.659C207.609 108.475 207.731 108.31 207.882 108.174C208.032 108.037 208.208 107.932 208.399 107.864L269.514 85.8664C269.899 85.729 270.323 85.75 270.692 85.9249C271.062 86.0998 271.347 86.4144 271.485 86.7995C271.624 87.1846 271.604 87.609 271.43 87.9794C271.256 88.3499 270.943 88.6362 270.559 88.7756Z" fill="#E6E6E6"/>
<path d="M252.41 102.723L232.307 109.958C232.116 110.027 231.914 110.058 231.711 110.049C231.508 110.039 231.309 109.99 231.125 109.904C230.942 109.817 230.777 109.695 230.64 109.545C230.504 109.395 230.398 109.219 230.329 109.028C230.261 108.836 230.23 108.633 230.24 108.43C230.25 108.227 230.3 108.028 230.386 107.844C230.473 107.661 230.595 107.496 230.745 107.359C230.896 107.223 231.072 107.117 231.263 107.049L251.365 99.8135C251.75 99.6748 252.175 99.6951 252.545 99.8698C252.916 100.045 253.202 100.359 253.34 100.745C253.479 101.131 253.458 101.556 253.284 101.927C253.109 102.298 252.795 102.584 252.41 102.723Z" fill="#E6E6E6"/>
<path d="M257.191 116.042L237.089 123.278C236.898 123.346 236.696 123.377 236.493 123.367C236.291 123.357 236.092 123.308 235.909 123.221C235.725 123.135 235.561 123.013 235.424 122.863C235.288 122.713 235.183 122.537 235.114 122.346C235.045 122.155 235.015 121.952 235.025 121.749C235.034 121.547 235.084 121.348 235.17 121.164C235.257 120.981 235.378 120.816 235.528 120.679C235.678 120.543 235.854 120.437 236.045 120.368L256.147 113.133C256.532 112.994 256.957 113.014 257.327 113.189C257.697 113.364 257.983 113.679 258.122 114.065C258.26 114.45 258.24 114.876 258.066 115.246C257.891 115.617 257.577 115.904 257.191 116.042V116.042Z" fill="#E6E6E6"/>
<path d="M259.64 122.864L239.538 130.1C239.347 130.169 239.144 130.2 238.941 130.191C238.739 130.181 238.54 130.132 238.356 130.046C238.172 129.959 238.007 129.837 237.87 129.687C237.734 129.537 237.628 129.361 237.559 129.169C237.491 128.978 237.46 128.775 237.47 128.572C237.48 128.369 237.53 128.17 237.616 127.986C237.703 127.802 237.825 127.637 237.976 127.501C238.126 127.364 238.302 127.259 238.493 127.191L258.596 119.955C258.787 119.886 258.989 119.855 259.192 119.864C259.395 119.874 259.594 119.923 259.778 120.009C259.962 120.096 260.126 120.218 260.263 120.368C260.4 120.518 260.505 120.694 260.574 120.886C260.643 121.077 260.673 121.28 260.663 121.483C260.653 121.686 260.604 121.885 260.517 122.069C260.43 122.253 260.308 122.418 260.158 122.554C260.007 122.69 259.831 122.796 259.64 122.864L259.64 122.864Z" fill="#E6E6E6"/>
<path d="M266.041 105.231L223.39 120.582C223.2 120.652 222.997 120.682 222.794 120.673C222.591 120.664 222.392 120.615 222.209 120.528C222.025 120.442 221.86 120.32 221.723 120.169C221.587 120.019 221.481 119.843 221.412 119.652C221.344 119.461 221.313 119.258 221.323 119.055C221.333 118.852 221.383 118.652 221.469 118.469C221.556 118.285 221.678 118.12 221.829 117.984C221.979 117.847 222.155 117.742 222.346 117.673L264.997 102.322C265.188 102.253 265.39 102.222 265.593 102.231C265.796 102.241 265.995 102.29 266.179 102.376C266.362 102.463 266.527 102.585 266.664 102.735C266.801 102.885 266.906 103.061 266.975 103.252C267.044 103.444 267.074 103.647 267.064 103.85C267.054 104.053 267.005 104.252 266.918 104.436C266.831 104.62 266.709 104.784 266.559 104.921C266.408 105.057 266.232 105.163 266.041 105.231Z" fill="#E6E6E6"/>
<path d="M257.45 139.425L250.151 142.052C249.496 142.287 248.775 142.253 248.145 141.955C247.516 141.658 247.03 141.123 246.795 140.467C246.56 139.811 246.594 139.089 246.89 138.458C247.187 137.828 247.721 137.341 248.375 137.105L255.675 134.478C256.33 134.243 257.051 134.277 257.68 134.575C258.31 134.872 258.796 135.407 259.031 136.063C259.266 136.719 259.232 137.441 258.936 138.072C258.639 138.702 258.105 139.189 257.45 139.425Z" fill="#6C63FF"/>
<path d="M199.931 23.5179C200.491 23.5179 200.946 23.0628 200.946 22.5015C200.946 21.9401 200.491 21.4851 199.931 21.4851C199.37 21.4851 198.916 21.9401 198.916 22.5015C198.916 23.0628 199.37 23.5179 199.931 23.5179Z" fill="white"/>
<path d="M83.1946 79.6666C94.5712 66.2572 113.03 57.8064 130.048 62.1877C114.721 73.6138 103.924 90.1004 99.5671 108.73C97.9129 115.921 96.8209 124.092 90.9902 128.605C87.3623 131.413 82.4841 132.181 77.9271 131.671C73.3699 131.161 69.0325 129.496 64.7534 127.846L63.6157 127.972C66.4776 110.612 71.8179 93.076 83.1946 79.6666Z" fill="#E0D1FF"/>
<path d="M130.006 62.5544C115.957 66.3217 103.45 74.4259 94.2622 85.7158C92.2412 88.1111 90.6099 90.8104 89.4284 93.7144C88.3687 96.5805 88.0948 99.6784 88.6352 102.686C89.0828 105.501 89.8662 108.328 89.6226 111.203C89.4762 112.672 89.0211 114.094 88.2873 115.376C87.5535 116.657 86.5576 117.768 85.3647 118.637C82.4488 120.879 78.9022 121.938 75.3981 122.853C71.5073 123.869 67.45 124.862 64.3231 127.543C63.9442 127.868 63.463 127.26 63.8413 126.936C69.2817 122.272 77.0082 122.667 83.0689 119.229C85.8969 117.624 88.2591 115.156 88.768 111.836C89.2129 108.933 88.4076 106.017 87.9298 103.171C87.3597 100.244 87.5139 97.2223 88.3789 94.3692C89.409 91.4143 90.9337 88.6566 92.8878 86.214C97.1995 80.6447 102.359 75.7888 108.177 71.8243C114.792 67.2627 122.138 63.8679 129.896 61.7867C130.376 61.6581 130.483 62.4266 130.006 62.5544H130.006Z" fill="white"/>
<path d="M97.0067 81.9061C95.3243 80.1054 94.3359 77.7646 94.218 75.3015C94.1001 72.8385 94.8604 70.4137 96.3631 68.4601C96.6685 68.0659 97.2947 68.5226 96.9889 68.9174C95.5862 70.7339 94.8782 72.9927 94.9926 75.2861C95.1071 77.5794 96.0365 79.7563 97.6131 81.4237C97.9552 81.7865 97.3469 82.2668 97.0067 81.9061H97.0067Z" fill="white"/>
<path d="M88.2204 101.289C93.25 101.502 98.1749 99.8085 102.013 96.5468C102.393 96.2234 102.874 96.8309 102.495 97.154C98.4944 100.541 93.3657 102.292 88.1323 102.059C87.6335 102.037 87.7243 101.267 88.2204 101.289Z" fill="white"/>
<path d="M114.99 68.2716C115.496 69.1042 116.201 69.7978 117.041 70.2903C117.88 70.7828 118.829 71.0587 119.802 71.0933C120.301 71.1095 120.21 71.8798 119.714 71.8637C118.639 71.8206 117.592 71.5146 116.663 70.9725C115.734 70.4304 114.951 69.6687 114.384 68.754C114.323 68.6723 114.296 68.5705 114.307 68.4693C114.319 68.3681 114.368 68.2751 114.446 68.2092C114.527 68.1458 114.629 68.1167 114.731 68.1284C114.833 68.1401 114.926 68.1915 114.99 68.2716Z" fill="white"/>
<path d="M155.354 116.103C155.042 116.102 154.73 116.101 154.415 116.105C150.223 116.11 146.039 116.456 141.903 117.139C141.583 117.187 141.258 117.24 140.94 117.297C130.993 119.05 121.459 122.637 112.82 127.875C109.384 129.963 106.112 132.309 103.032 134.894C98.7788 138.464 94.4505 142.674 89.4158 144.572C88.8928 144.776 88.3576 144.947 87.8134 145.085L63.8581 129.352C63.8216 129.289 63.7812 129.231 63.7444 129.168L62.7593 128.584C62.9088 128.439 63.067 128.293 63.2166 128.148C63.303 128.064 63.3947 127.984 63.4812 127.899C63.5404 127.844 63.6 127.79 63.6504 127.737C63.6701 127.718 63.69 127.7 63.7061 127.687C63.7565 127.634 63.8089 127.59 63.8557 127.543C64.7378 126.721 65.6272 125.904 66.5239 125.092C66.5275 125.086 66.5275 125.086 66.5364 125.084C73.3847 118.914 80.8076 113.262 88.8513 108.917C89.0933 108.786 89.3387 108.65 89.5917 108.527C93.2283 106.589 97.017 104.951 100.92 103.631C103.059 102.915 105.234 102.308 107.434 101.812C113.123 100.542 118.976 100.176 124.779 100.727C136.346 101.827 147.433 106.62 154.798 115.425C154.986 115.65 155.169 115.872 155.354 116.103Z" fill="#E0D1FF"/>
<path d="M155.101 116.372C141.618 110.91 126.759 109.841 112.635 113.317C109.581 114.011 106.656 115.183 103.966 116.789C101.397 118.438 99.3156 120.747 97.9385 123.474C96.6035 125.992 95.529 128.721 93.6061 130.87C92.6056 131.955 91.3872 132.816 90.031 133.396C88.6748 133.977 87.2113 134.264 85.7366 134.238C82.0603 134.27 78.5918 132.978 75.2437 131.596C71.5263 130.062 67.6894 128.409 63.5808 128.664C63.083 128.695 63.0641 127.92 63.5612 127.889C70.7094 127.445 76.6408 132.419 83.5476 133.327C86.7704 133.75 90.1402 133.204 92.5429 130.86C94.6439 128.81 95.7543 125.996 97.084 123.436C98.3885 120.755 100.329 118.436 102.735 116.679C105.334 114.941 108.209 113.658 111.238 112.886C118.03 111.038 125.069 110.272 132.098 110.614C140.122 110.96 148.029 112.677 155.475 115.693C155.935 115.88 155.558 116.558 155.101 116.372L155.101 116.372Z" fill="white"/>
<path d="M117.117 111.93C116.857 109.477 117.475 107.013 118.862 104.975C120.249 102.937 122.314 101.459 124.688 100.806C125.169 100.675 125.394 101.417 124.913 101.548C122.701 102.153 120.777 103.529 119.49 105.43C118.202 107.33 117.635 109.628 117.892 111.91C117.947 112.406 117.172 112.423 117.117 111.93V111.93Z" fill="white"/>
<path d="M98.4476 122.109C102.336 125.311 107.286 126.928 112.312 126.637C112.809 126.608 112.828 127.384 112.331 127.413C107.101 127.705 101.953 126.012 97.9141 122.671C97.5294 122.352 98.065 121.792 98.4477 122.109H98.4476Z" fill="white"/>
<path d="M139.674 111.885C139.577 112.855 139.723 113.833 140.097 114.733C140.472 115.632 141.064 116.425 141.82 117.039C142.208 117.352 141.672 117.912 141.286 117.601C140.454 116.918 139.802 116.043 139.386 115.05C138.97 114.057 138.803 112.977 138.9 111.904C138.901 111.803 138.94 111.705 139.01 111.631C139.08 111.557 139.176 111.513 139.277 111.507C139.38 111.505 139.479 111.543 139.553 111.614C139.628 111.685 139.671 111.782 139.674 111.885Z" fill="white"/>
<path d="M424.624 337.397C437.029 340.442 451.496 337.547 459.655 327.708C445.767 327.515 432.395 322.41 421.904 313.296C417.871 309.766 413.752 305.42 408.398 305.248C405.067 305.142 401.867 306.77 399.4 309.014C396.932 311.258 395.086 314.089 393.268 316.886L392.544 317.297C401.614 326.301 412.219 334.351 424.624 337.397Z" fill="#BA93D6"/>
<path d="M459.474 327.51C449.596 331.283 438.783 331.845 428.569 329.114C426.36 328.565 424.251 327.671 422.32 326.464C420.476 325.228 418.997 323.521 418.036 321.519C417.102 319.67 416.361 317.671 414.995 316.081C414.283 315.278 413.41 314.635 412.433 314.193C411.456 313.752 410.397 313.522 409.324 313.519C406.653 313.442 404.114 314.331 401.661 315.287C398.937 316.348 396.125 317.493 393.143 317.248C392.781 317.218 392.756 317.781 393.117 317.811C398.306 318.238 402.688 314.709 407.72 314.15C410.069 313.888 412.51 314.334 414.222 316.073C415.719 317.593 416.485 319.654 417.414 321.534C418.323 323.501 419.7 325.215 421.423 326.526C423.286 327.827 425.358 328.801 427.548 329.407C432.456 330.848 437.561 331.507 442.674 331.361C448.51 331.226 454.281 330.092 459.735 328.009C460.073 327.88 459.809 327.382 459.474 327.51H459.474Z" fill="white"/>
<path d="M431.806 330.187C431.581 331.965 431.995 333.765 432.973 335.266C433.951 336.767 435.431 337.871 437.147 338.381C437.494 338.483 437.669 337.947 437.321 337.845C435.722 337.373 434.344 336.345 433.436 334.945C432.528 333.545 432.149 331.867 432.368 330.212C432.415 329.853 431.853 329.829 431.806 330.187V330.187Z" fill="white"/>
<path d="M418.386 322.518C421.258 320.248 424.879 319.145 428.527 319.429C428.888 319.457 428.913 318.894 428.552 318.865C424.756 318.577 420.99 319.733 418.007 322.102C417.722 322.328 418.104 322.743 418.386 322.518H418.386Z" fill="white"/>
<path d="M448.198 330.547C448.142 329.841 448.262 329.132 448.547 328.484C448.832 327.835 449.274 327.268 449.832 326.833C450.119 326.611 449.737 326.196 449.452 326.417C448.838 326.9 448.351 327.527 448.034 328.243C447.718 328.959 447.581 329.741 447.636 330.522C447.635 330.596 447.662 330.667 447.712 330.722C447.762 330.777 447.831 330.81 447.904 330.816C447.979 330.819 448.051 330.792 448.106 330.742C448.161 330.692 448.194 330.622 448.198 330.547Z" fill="white"/>
<path d="M451.624 285.16C451.441 285.293 451.258 285.427 451.071 285.559C448.6 287.344 445.988 288.925 443.262 290.286C443.052 290.395 442.839 290.502 442.627 290.604C436.023 293.814 428.881 295.768 421.565 296.367C418.654 296.603 415.728 296.617 412.815 296.408C408.791 296.12 404.451 295.487 400.678 296.516C400.283 296.619 399.895 296.746 399.516 296.897L392.1 316.381C392.105 316.433 392.106 316.485 392.111 316.538L391.779 317.302C391.929 317.323 392.084 317.342 392.234 317.363C392.321 317.376 392.409 317.384 392.496 317.397C392.554 317.404 392.612 317.411 392.665 317.421C392.684 317.423 392.703 317.425 392.718 317.426C392.771 317.436 392.82 317.439 392.868 317.447C393.737 317.555 394.608 317.657 395.482 317.753C395.486 317.754 395.486 317.754 395.492 317.752C402.142 318.546 408.863 318.548 415.513 317.757C415.711 317.73 415.913 317.706 416.115 317.671C419.081 317.261 422.009 316.609 424.87 315.722C426.434 315.231 427.973 314.662 429.48 314.015C433.371 312.337 436.974 310.056 440.157 307.257C446.502 301.675 450.993 294.123 451.586 285.796C451.6 285.583 451.614 285.374 451.624 285.16Z" fill="#BA93D6"/>
<path d="M451.361 285.109C445.743 294.077 437.447 301.044 427.649 305.021C425.556 305.915 423.334 306.472 421.067 306.673C418.852 306.798 416.644 306.326 414.673 305.307C412.815 304.394 411.021 303.244 408.975 302.799C407.924 302.587 406.84 302.599 405.794 302.836C404.749 303.072 403.765 303.527 402.907 304.171C400.728 305.72 399.235 307.961 397.851 310.203C396.314 312.692 394.757 315.302 392.229 316.904C391.923 317.098 392.241 317.563 392.547 317.369C396.946 314.582 398.324 309.123 402.006 305.642C403.723 304.018 405.941 302.902 408.353 303.258C410.462 303.569 412.313 304.753 414.186 305.694C416.094 306.716 418.224 307.255 420.388 307.263C422.658 307.179 424.897 306.708 427.01 305.871C431.796 304.062 436.268 301.511 440.262 298.312C444.841 294.686 448.767 290.302 451.87 285.35C452.062 285.043 451.552 284.805 451.361 285.109H451.361Z" fill="white"/>
<path d="M430.879 303.926C431.769 305.482 433.181 306.67 434.865 307.278C436.549 307.887 438.393 307.877 440.07 307.249C440.409 307.121 440.226 306.588 439.887 306.716C438.326 307.303 436.608 307.313 435.041 306.743C433.475 306.173 432.163 305.061 431.343 303.608C431.165 303.292 430.702 303.613 430.879 303.926Z" fill="white"/>
<path d="M415.553 305.894C416.481 302.35 418.709 299.286 421.792 297.313C422.098 297.118 421.779 296.654 421.474 296.849C418.269 298.907 415.957 302.1 415 305.791C414.909 306.142 415.463 306.244 415.553 305.894Z" fill="white"/>
<path d="M444.184 294.332C443.714 293.802 443.384 293.163 443.221 292.474C443.059 291.784 443.071 291.065 443.255 290.381C443.35 290.031 442.796 289.93 442.701 290.278C442.502 291.035 442.49 291.829 442.667 292.591C442.845 293.353 443.206 294.06 443.719 294.651C443.763 294.71 443.828 294.751 443.9 294.765C443.973 294.778 444.048 294.764 444.111 294.724C444.172 294.681 444.214 294.616 444.228 294.543C444.241 294.469 444.225 294.394 444.184 294.332Z" fill="white"/>
<path d="M474.33 218.01L455.414 249.884L456.133 250.263L449.728 262.424L448.394 261.717L444.185 268.805L445.231 269.407L438.368 281.306L437.178 280.619L375.457 384.63C373.838 387.352 371.207 389.319 368.141 390.101C365.075 390.883 361.825 390.414 359.103 388.799L244.36 320.529C241.642 318.909 239.676 316.274 238.896 313.204C238.115 310.134 238.583 306.879 240.197 304.154L339.07 137.535C340.688 134.813 343.319 132.845 346.385 132.063C349.451 131.282 352.702 131.75 355.423 133.366L470.166 201.635C472.884 203.257 474.848 205.891 475.629 208.961C476.409 212.031 475.942 215.285 474.33 218.01Z" fill="#3F3D56"/>
<path d="M363.193 382.367L248.045 313.858C247.208 313.358 246.602 312.546 246.361 311.599C246.121 310.653 246.265 309.65 246.762 308.81L346.291 141.082C346.79 140.243 347.601 139.637 348.546 139.396C349.492 139.155 350.493 139.299 351.332 139.797L466.479 208.307C467.317 208.806 467.923 209.619 468.163 210.565C468.404 211.511 468.26 212.514 467.763 213.354L368.234 381.082C367.734 381.921 366.923 382.527 365.978 382.768C365.033 383.009 364.031 382.865 363.193 382.367Z" fill="white"/>
<path d="M410.492 171.401C411.052 171.401 411.507 170.946 411.507 170.385C411.507 169.823 411.052 169.368 410.492 169.368C409.931 169.368 409.477 169.823 409.477 170.385C409.477 170.946 409.931 171.401 410.492 171.401Z" fill="white"/>
<path d="M404.21 291.551L308.091 234.363C307.789 234.185 307.526 233.949 307.315 233.669C307.105 233.389 306.952 233.07 306.865 232.731C306.778 232.392 306.759 232.039 306.809 231.692C306.858 231.345 306.976 231.011 307.155 230.71C307.333 230.409 307.57 230.146 307.85 229.937C308.131 229.727 308.45 229.575 308.789 229.489C309.128 229.404 309.481 229.386 309.827 229.437C310.173 229.488 310.506 229.607 310.806 229.787L406.925 286.975C407.226 287.153 407.49 287.389 407.7 287.669C407.91 287.949 408.063 288.268 408.15 288.607C408.237 288.946 408.257 289.299 408.207 289.646C408.157 289.993 408.04 290.327 407.861 290.628C407.682 290.929 407.446 291.192 407.165 291.401C406.885 291.611 406.566 291.763 406.227 291.849C405.888 291.934 405.535 291.952 405.189 291.901C404.843 291.85 404.51 291.731 404.21 291.551H404.21Z" fill="#E6E6E6"/>
<path d="M365.83 282.689L334.214 263.879C333.914 263.7 333.651 263.464 333.442 263.184C333.233 262.904 333.081 262.586 332.995 262.247C332.909 261.908 332.89 261.556 332.94 261.21C332.99 260.864 333.108 260.532 333.286 260.231C333.464 259.931 333.7 259.668 333.98 259.459C334.259 259.25 334.577 259.098 334.915 259.011C335.254 258.925 335.606 258.907 335.951 258.957C336.297 259.007 336.629 259.124 336.929 259.303L368.545 278.114C368.845 278.292 369.107 278.528 369.316 278.808C369.525 279.088 369.677 279.406 369.763 279.745C369.849 280.084 369.868 280.436 369.818 280.782C369.768 281.128 369.651 281.46 369.472 281.761C369.294 282.061 369.058 282.324 368.779 282.533C368.499 282.742 368.181 282.894 367.843 282.981C367.505 283.067 367.153 283.085 366.808 283.035C366.462 282.985 366.13 282.868 365.83 282.689Z" fill="#E6E6E6"/>
<path d="M353.399 303.638L321.783 284.827C321.177 284.466 320.739 283.879 320.565 283.195C320.392 282.511 320.496 281.786 320.856 281.18C321.216 280.573 321.802 280.134 322.485 279.96C323.168 279.786 323.892 279.891 324.498 280.251L356.115 299.062C356.415 299.24 356.677 299.476 356.886 299.756C357.095 300.036 357.246 300.354 357.333 300.693C357.419 301.032 357.437 301.384 357.387 301.73C357.337 302.076 357.22 302.409 357.042 302.709C356.863 303.01 356.628 303.272 356.348 303.481C356.069 303.69 355.751 303.842 355.413 303.929C355.074 304.015 354.722 304.034 354.377 303.984C354.032 303.934 353.699 303.816 353.399 303.638Z" fill="#E6E6E6"/>
<path d="M347.033 314.367L315.416 295.556C315.115 295.378 314.853 295.142 314.643 294.862C314.433 294.582 314.28 294.264 314.194 293.925C314.107 293.586 314.088 293.233 314.138 292.886C314.188 292.54 314.305 292.207 314.484 291.906C314.662 291.605 314.898 291.342 315.178 291.133C315.458 290.923 315.777 290.771 316.116 290.685C316.455 290.599 316.807 290.581 317.153 290.632C317.499 290.683 317.831 290.801 318.131 290.981L349.748 309.791C350.049 309.969 350.313 310.205 350.523 310.485C350.733 310.765 350.886 311.084 350.973 311.423C351.061 311.762 351.08 312.116 351.03 312.462C350.98 312.809 350.863 313.143 350.684 313.444C350.505 313.745 350.269 314.008 349.988 314.218C349.708 314.427 349.389 314.579 349.05 314.665C348.71 314.751 348.358 314.768 348.012 314.717C347.665 314.666 347.333 314.547 347.033 314.367V314.367Z" fill="#E6E6E6"/>
<path d="M377.433 303.566L310.354 263.656C309.751 263.294 309.316 262.708 309.144 262.025C308.972 261.342 309.077 260.62 309.436 260.014C309.795 259.409 310.379 258.971 311.06 258.796C311.741 258.621 312.464 258.723 313.069 259.08L380.148 298.991C380.45 299.168 380.714 299.404 380.924 299.684C381.134 299.964 381.287 300.283 381.374 300.622C381.461 300.962 381.481 301.315 381.431 301.662C381.381 302.008 381.264 302.342 381.085 302.643C380.906 302.944 380.67 303.207 380.389 303.417C380.109 303.626 379.79 303.778 379.451 303.864C379.111 303.95 378.759 303.968 378.412 303.917C378.066 303.865 377.734 303.746 377.433 303.566Z" fill="#E6E6E6"/>
<path d="M364.648 354.571L353.168 347.741C352.139 347.128 351.396 346.13 351.101 344.967C350.806 343.805 350.984 342.573 351.596 341.542C352.208 340.511 353.203 339.765 354.364 339.469C355.524 339.172 356.755 339.349 357.785 339.961L369.265 346.791C370.295 347.404 371.04 348.402 371.336 349.565C371.632 350.728 371.454 351.961 370.842 352.993C370.229 354.024 369.233 354.77 368.071 355.067C366.91 355.363 365.678 355.185 364.648 354.571Z" fill="url(#paint2_linear_297_489)"/>
<path d="M386.066 243.675C399.062 243.675 409.597 233.126 409.597 220.113C409.597 207.101 399.062 196.552 386.066 196.552C373.071 196.552 362.536 207.101 362.536 220.113C362.536 233.126 373.071 243.675 386.066 243.675Z" fill="url(#paint3_linear_297_489)"/>
<path d="M0.277344 315.859H318.708V131.262C318.707 129.879 318.157 128.553 317.181 127.575C316.204 126.597 314.88 126.047 313.498 126.045H5.48734C4.10607 126.047 2.78181 126.597 1.80509 127.575C0.828363 128.553 0.278939 129.879 0.277344 131.262V315.859Z" fill="#EDEDED"/>
<path d="M308.87 133.261H10.1157V303.094H308.87V133.261Z" fill="white"/>
<path d="M4.28367e-10 310.864V333.643C-1.02998e-05 334.588 0.185736 335.523 0.546635 336.395C0.907533 337.268 1.43652 338.06 2.10338 338.728C2.77024 339.396 3.56193 339.926 4.43324 340.287C5.30454 340.648 6.2384 340.834 7.18149 340.834H124.712V385.79H123.151C123.028 385.79 122.907 385.814 122.794 385.861C122.68 385.908 122.578 385.977 122.491 386.064C122.404 386.15 122.336 386.253 122.289 386.367C122.242 386.48 122.218 386.602 122.218 386.724V389.851C122.218 389.974 122.242 390.095 122.289 390.209C122.336 390.322 122.404 390.425 122.491 390.512C122.578 390.598 122.68 390.667 122.794 390.714C122.907 390.761 123.028 390.785 123.151 390.785H196.112C196.234 390.785 196.356 390.761 196.469 390.714C196.582 390.667 196.685 390.598 196.772 390.512C196.858 390.425 196.927 390.322 196.974 390.209C197.021 390.095 197.045 389.974 197.045 389.851V386.724C197.045 386.602 197.021 386.48 196.974 386.367C196.927 386.253 196.858 386.15 196.772 386.064C196.685 385.977 196.582 385.908 196.469 385.861C196.356 385.814 196.234 385.79 196.112 385.79H194.551V340.834H312.081C313.024 340.834 313.958 340.648 314.829 340.287C315.701 339.926 316.492 339.396 317.159 338.728C317.826 338.06 318.355 337.268 318.716 336.395C319.077 335.523 319.263 334.588 319.263 333.643V310.864L4.28367e-10 310.864Z" fill="#200D69"/>
<path d="M265.64 190.059H124.161C123.269 190.059 122.414 189.704 121.783 189.073C121.153 188.441 120.798 187.585 120.798 186.692C120.798 185.799 121.153 184.942 121.783 184.311C122.414 183.679 123.269 183.325 124.161 183.325H265.64C266.532 183.325 267.387 183.679 268.018 184.311C268.648 184.942 269.003 185.799 269.003 186.692C269.003 187.585 268.648 188.441 268.018 189.073C267.387 189.704 266.532 190.059 265.64 190.059Z" fill="url(#paint4_linear_297_489)" fill-opacity="0.35"/>
<path d="M218.169 205.26H171.633C170.741 205.26 169.885 204.905 169.255 204.274C168.624 203.642 168.27 202.786 168.27 201.893C168.27 200.999 168.624 200.143 169.255 199.511C169.885 198.88 170.741 198.525 171.633 198.525H218.169C219.061 198.525 219.916 198.88 220.547 199.511C221.178 200.143 221.532 200.999 221.532 201.893C221.532 202.786 221.178 203.642 220.547 204.274C219.916 204.905 219.061 205.26 218.169 205.26Z" fill="url(#paint5_linear_297_489)" fill-opacity="0.35"/>
<path d="M218.169 236.094H171.633C170.741 236.094 169.885 235.739 169.255 235.107C168.624 234.476 168.27 233.619 168.27 232.726C168.27 231.833 168.624 230.977 169.255 230.345C169.885 229.714 170.741 229.359 171.633 229.359H218.169C219.061 229.359 219.916 229.714 220.547 230.345C221.178 230.977 221.532 231.833 221.532 232.726C221.532 233.619 221.178 234.476 220.547 235.107C219.916 235.739 219.061 236.094 218.169 236.094Z" fill="url(#paint6_linear_297_489)" fill-opacity="0.35"/>
<path d="M218.169 251.886H171.632C171.191 251.886 170.753 251.799 170.345 251.63C169.937 251.461 169.567 251.213 169.254 250.9C168.942 250.587 168.695 250.216 168.526 249.808C168.357 249.399 168.27 248.961 168.27 248.519C168.27 248.077 168.357 247.639 168.526 247.23C168.695 246.822 168.942 246.451 169.254 246.138C169.567 245.825 169.937 245.577 170.345 245.408C170.753 245.239 171.191 245.152 171.632 245.152H218.169C218.61 245.152 219.048 245.239 219.456 245.408C219.864 245.577 220.234 245.825 220.547 246.138C220.859 246.451 221.107 246.822 221.276 247.23C221.445 247.639 221.532 248.077 221.532 248.519C221.532 248.961 221.445 249.399 221.276 249.808C221.107 250.216 220.859 250.587 220.547 250.9C220.234 251.213 219.864 251.461 219.456 251.63C219.048 251.799 218.61 251.886 218.169 251.886Z" fill="url(#paint7_linear_297_489)" fill-opacity="0.35"/>
<path d="M244.268 220.461H145.533C144.641 220.461 143.786 220.106 143.155 219.474C142.525 218.843 142.17 217.986 142.17 217.093C142.17 216.2 142.525 215.344 143.155 214.712C143.786 214.081 144.641 213.726 145.533 213.726H244.268C245.159 213.726 246.015 214.081 246.645 214.712C247.276 215.344 247.63 216.2 247.63 217.093C247.63 217.986 247.276 218.843 246.645 219.474C246.015 220.106 245.159 220.461 244.268 220.461Z" fill="url(#paint8_linear_297_489)" fill-opacity="0.35"/>
<path d="M263.284 284.221H246.387C244.87 284.221 243.416 283.618 242.343 282.544C241.271 281.47 240.668 280.014 240.668 278.495C240.668 276.976 241.271 275.52 242.343 274.446C243.416 273.372 244.87 272.769 246.387 272.769H263.284C264.801 272.769 266.255 273.372 267.328 274.446C268.4 275.52 269.003 276.976 269.003 278.495C269.003 280.014 268.4 281.47 267.328 282.544C266.255 283.618 264.801 284.221 263.284 284.221Z" fill="url(#paint9_linear_297_489)"/>
<path d="M79.6727 242.661C95.9169 242.661 109.086 229.475 109.086 213.209C109.086 196.944 95.9169 183.758 79.6727 183.758C63.4284 183.758 50.2598 196.944 50.2598 213.209C50.2598 229.475 63.4284 242.661 79.6727 242.661Z" fill="url(#paint10_linear_297_489)"/>
<path d="M423.863 392H0.778446C0.57243 391.999 0.375061 391.917 0.229597 391.771C0.0841324 391.625 0.00244141 391.427 0.00244141 391.221C0.00244141 391.014 0.0841324 390.817 0.229597 390.67C0.375061 390.524 0.57243 390.442 0.778446 390.441H423.863C424.069 390.442 424.266 390.524 424.412 390.67C424.557 390.817 424.639 391.014 424.639 391.221C424.639 391.427 424.557 391.625 424.412 391.771C424.266 391.917 424.069 391.999 423.863 392Z" fill="#CACACA"/>
<path d="M159.354 129.653C159.966 129.653 160.463 129.156 160.463 128.543C160.463 127.93 159.966 127.433 159.354 127.433C158.742 127.433 158.246 127.93 158.246 128.543C158.246 129.156 158.742 129.653 159.354 129.653Z" fill="white"/>
</g>
<defs>
<linearGradient id="paint0_linear_297_489" x1="338.246" y1="73.2058" x2="385.06" y2="73.2058" gradientUnits="userSpaceOnUse">
<stop stop-color="#21D4FD"/>
<stop offset="1" stop-color="#B721FF"/>
</linearGradient>
<linearGradient id="paint1_linear_297_489" x1="209.18" y1="63.0776" x2="244.476" y2="63.0776" gradientUnits="userSpaceOnUse">
<stop stop-color="#21D4FD"/>
<stop offset="1" stop-color="#B721FF"/>
</linearGradient>
<linearGradient id="paint2_linear_297_489" x1="350.962" y1="347.267" x2="371.476" y2="347.267" gradientUnits="userSpaceOnUse">
<stop stop-color="#21D4FD"/>
<stop offset="1" stop-color="#B721FF"/>
</linearGradient>
<linearGradient id="paint3_linear_297_489" x1="362.536" y1="220.113" x2="409.597" y2="220.113" gradientUnits="userSpaceOnUse">
<stop stop-color="#21D4FD"/>
<stop offset="1" stop-color="#B721FF"/>
</linearGradient>
<linearGradient id="paint4_linear_297_489" x1="120.798" y1="186.692" x2="269.003" y2="186.692" gradientUnits="userSpaceOnUse">
<stop stop-color="#21D4FD"/>
<stop offset="1" stop-color="#B721FF"/>
</linearGradient>
<linearGradient id="paint5_linear_297_489" x1="168.27" y1="201.893" x2="221.532" y2="201.893" gradientUnits="userSpaceOnUse">
<stop stop-color="#21D4FD"/>
<stop offset="1" stop-color="#B721FF"/>
</linearGradient>
<linearGradient id="paint6_linear_297_489" x1="168.27" y1="232.726" x2="221.532" y2="232.726" gradientUnits="userSpaceOnUse">
<stop stop-color="#21D4FD"/>
<stop offset="1" stop-color="#B721FF"/>
</linearGradient>
<linearGradient id="paint7_linear_297_489" x1="168.27" y1="248.519" x2="221.532" y2="248.519" gradientUnits="userSpaceOnUse">
<stop stop-color="#21D4FD"/>
<stop offset="1" stop-color="#B721FF"/>
</linearGradient>
<linearGradient id="paint8_linear_297_489" x1="142.17" y1="217.093" x2="247.63" y2="217.093" gradientUnits="userSpaceOnUse">
<stop stop-color="#21D4FD"/>
<stop offset="1" stop-color="#B721FF"/>
</linearGradient>
<linearGradient id="paint9_linear_297_489" x1="240.668" y1="278.495" x2="269.003" y2="278.495" gradientUnits="userSpaceOnUse">
<stop stop-color="#21D4FD"/>
<stop offset="1" stop-color="#B721FF"/>
</linearGradient>
<linearGradient id="paint10_linear_297_489" x1="50.2598" y1="213.209" x2="109.086" y2="213.209" gradientUnits="userSpaceOnUse">
<stop stop-color="#21D4FD"/>
<stop offset="1" stop-color="#B721FF"/>
</linearGradient>
<clipPath id="clip0_297_489">
<rect width="476" height="392" fill="white"/>
</clipPath>
</defs>
</svg>
