<svg width="17" height="17" viewBox="0 0 17 17" fill="none" xmlns="http://www.w3.org/2000/svg">
<path d="M11.6875 9.03125H12.75V10.0938H11.6875V9.03125Z" fill="url(#paint0_linear_508_400)"/>
<path d="M14.875 4.25H2.125V2.65625H13.8125V1.59375H2.125C1.84321 1.59375 1.57296 1.70569 1.3737 1.90495C1.17444 2.10421 1.0625 2.37446 1.0625 2.65625V13.8125C1.0625 14.0943 1.17444 14.3645 1.3737 14.5638C1.57296 14.7631 1.84321 14.875 2.125 14.875H14.875C15.1568 14.875 15.427 14.7631 15.6263 14.5638C15.8256 14.3645 15.9375 14.0943 15.9375 13.8125V5.3125C15.9375 5.03071 15.8256 4.76046 15.6263 4.5612C15.427 4.36194 15.1568 4.25 14.875 4.25ZM2.125 13.8125V5.3125H14.875V6.90625H10.625C10.3432 6.90625 10.073 7.01819 9.8737 7.21745C9.67444 7.41671 9.5625 7.68696 9.5625 7.96875V11.1562C9.5625 11.438 9.67444 11.7083 9.8737 11.9076C10.073 12.1068 10.3432 12.2188 10.625 12.2188H14.875V13.8125H2.125ZM14.875 7.96875V11.1562H10.625V7.96875H14.875Z" fill="url(#paint1_linear_508_400)"/>
<defs>
<linearGradient id="paint0_linear_508_400" x1="11.6875" y1="9.5625" x2="12.75" y2="9.5625" gradientUnits="userSpaceOnUse">
<stop stop-color="#21D4FD"/>
<stop offset="1" stop-color="#B721FF"/>
</linearGradient>
<linearGradient id="paint1_linear_508_400" x1="1.0625" y1="8.23437" x2="15.9375" y2="8.23437" gradientUnits="userSpaceOnUse">
<stop stop-color="#21D4FD"/>
<stop offset="1" stop-color="#B721FF"/>
</linearGradient>
</defs>
</svg>
